<?xml version="1.0" encoding="utf-8" standalone="no"?>
<!DOCTYPE svg PUBLIC "-//W3C//DTD SVG 1.1//EN"
  "http://www.w3.org/Graphics/SVG/1.1/DTD/svg11.dtd">
<svg xmlns:xlink="http://www.w3.org/1999/xlink" width="617.360937pt" height="337.074375pt" viewBox="0 0 617.360937 337.074375" xmlns="http://www.w3.org/2000/svg" version="1.1">
 <metadata>
  <rdf:RDF xmlns:dc="http://purl.org/dc/elements/1.1/" xmlns:cc="http://creativecommons.org/ns#" xmlns:rdf="http://www.w3.org/1999/02/22-rdf-syntax-ns#">
   <cc:Work>
    <dc:type rdf:resource="http://purl.org/dc/dcmitype/StillImage"/>
    <dc:date>2022-12-22T13:08:32.516482</dc:date>
    <dc:format>image/svg+xml</dc:format>
    <dc:creator>
     <cc:Agent>
      <dc:title>Matplotlib v3.6.2, https://matplotlib.org/</dc:title>
     </cc:Agent>
    </dc:creator>
   </cc:Work>
  </rdf:RDF>
 </metadata>
 <defs>
  <style type="text/css">*{stroke-linejoin: round; stroke-linecap: butt}</style>
 </defs>
 <g id="figure_1">
  <g id="patch_1">
   <path d="M 0 337.074375 
L 617.360937 337.074375 
L 617.360937 0 
L 0 0 
z
" style="fill: #ffffff"/>
  </g>
  <g id="axes_1">
   <g id="patch_2">
    <path d="M 52.160938 299.518125 
L 610.160938 299.518125 
L 610.160938 22.318125 
L 52.160938 22.318125 
z
" style="fill: #ffffff"/>
   </g>
   <g id="PathCollection_1">
    <defs>
     <path id="meadf0e2a86" d="M 0 3 
C 0.795609 3 1.55874 2.683901 2.12132 2.12132 
C 2.683901 1.55874 3 0.795609 3 0 
C 3 -0.795609 2.683901 -1.55874 2.12132 -2.12132 
C 1.55874 -2.683901 0.795609 -3 0 -3 
C -0.795609 -3 -1.55874 -2.683901 -2.12132 -2.12132 
C -2.683901 -1.55874 -3 -0.795609 -3 0 
C -3 0.795609 -2.683901 1.55874 -2.12132 2.12132 
C -1.55874 2.683901 -0.795609 3 0 3 
z
" style="stroke: #1f77b4"/>
    </defs>
    <g clip-path="url(#p8011ef167c)">
     <use xlink:href="#meadf0e2a86" x="96.554417" y="180.47542" style="fill: #1f77b4; stroke: #1f77b4"/>
     <use xlink:href="#meadf0e2a86" x="147.686955" y="248.577799" style="fill: #1f77b4; stroke: #1f77b4"/>
     <use xlink:href="#meadf0e2a86" x="205.208563" y="271.435061" style="fill: #1f77b4; stroke: #1f77b4"/>
     <use xlink:href="#meadf0e2a86" x="262.171621" y="279.635755" style="fill: #1f77b4; stroke: #1f77b4"/>
     <use xlink:href="#meadf0e2a86" x="322.561141" y="285.731043" style="fill: #1f77b4; stroke: #1f77b4"/>
     <use xlink:href="#meadf0e2a86" x="385.532198" y="268.097706" style="fill: #1f77b4; stroke: #1f77b4"/>
     <use xlink:href="#meadf0e2a86" x="442.449191" y="278.644904" style="fill: #1f77b4; stroke: #1f77b4"/>
     <use xlink:href="#meadf0e2a86" x="503.364398" y="257.962636" style="fill: #1f77b4; stroke: #1f77b4"/>
     <use xlink:href="#meadf0e2a86" x="568.596214" y="254.494608" style="fill: #1f77b4; stroke: #1f77b4"/>
    </g>
   </g>
   <g id="PathCollection_2">
    <defs>
     <path id="ma6d800c5f4" d="M 0 3 
C 0.795609 3 1.55874 2.683901 2.12132 2.12132 
C 2.683901 1.55874 3 0.795609 3 0 
C 3 -0.795609 2.683901 -1.55874 2.12132 -2.12132 
C 1.55874 -2.683901 0.795609 -3 0 -3 
C -0.795609 -3 -1.55874 -2.683901 -2.12132 -2.12132 
C -2.683901 -1.55874 -3 -0.795609 -3 0 
C -3 0.795609 -2.683901 1.55874 -2.12132 2.12132 
C -1.55874 2.683901 -0.795609 3 0 3 
z
" style="stroke: #ff7f0e"/>
    </defs>
    <g clip-path="url(#p8011ef167c)">
     <use xlink:href="#ma6d800c5f4" x="122.254754" y="35.265105" style="fill: #ff7f0e; stroke: #ff7f0e"/>
     <use xlink:href="#ma6d800c5f4" x="180.486276" y="43.514721" style="fill: #ff7f0e; stroke: #ff7f0e"/>
     <use xlink:href="#ma6d800c5f4" x="232.289306" y="99.01744" style="fill: #ff7f0e; stroke: #ff7f0e"/>
     <use xlink:href="#ma6d800c5f4" x="293.761503" y="114.625276" style="fill: #ff7f0e; stroke: #ff7f0e"/>
     <use xlink:href="#ma6d800c5f4" x="345.678783" y="121.200251" style="fill: #ff7f0e; stroke: #ff7f0e"/>
     <use xlink:href="#ma6d800c5f4" x="413.522354" y="70.91031" style="fill: #ff7f0e; stroke: #ff7f0e"/>
     <use xlink:href="#ma6d800c5f4" x="475.390826" y="66.332599" style="fill: #ff7f0e; stroke: #ff7f0e"/>
     <use xlink:href="#ma6d800c5f4" x="529.375983" y="75.343872" style="fill: #ff7f0e; stroke: #ff7f0e"/>
    </g>
   </g>
   <g id="matplotlib.axis_1">
    <g id="xtick_1">
     <g id="line2d_1">
      <defs>
       <path id="m3e28514fdf" d="M 0 0 
L 0 3.5 
" style="stroke: #000000; stroke-width: 0.8"/>
      </defs>
      <g>
       <use xlink:href="#m3e28514fdf" x="77.109955" y="299.518125" style="stroke: #000000; stroke-width: 0.8"/>
      </g>
     </g>
     <g id="text_1">
      <!-- 0 -->
      <g transform="translate(73.928705 314.116563) scale(0.1 -0.1)">
       <defs>
        <path id="DejaVuSans-30" d="M 2034 4250 
Q 1547 4250 1301 3770 
Q 1056 3291 1056 2328 
Q 1056 1369 1301 889 
Q 1547 409 2034 409 
Q 2525 409 2770 889 
Q 3016 1369 3016 2328 
Q 3016 3291 2770 3770 
Q 2525 4250 2034 4250 
z
M 2034 4750 
Q 2819 4750 3233 4129 
Q 3647 3509 3647 2328 
Q 3647 1150 3233 529 
Q 2819 -91 2034 -91 
Q 1250 -91 836 529 
Q 422 1150 422 2328 
Q 422 3509 836 4129 
Q 1250 4750 2034 4750 
z
" transform="scale(0.015625)"/>
       </defs>
       <use xlink:href="#DejaVuSans-30"/>
      </g>
     </g>
    </g>
    <g id="xtick_2">
     <g id="line2d_2">
      <g>
       <use xlink:href="#m3e28514fdf" x="199.434546" y="299.518125" style="stroke: #000000; stroke-width: 0.8"/>
      </g>
     </g>
     <g id="text_2">
      <!-- 5 -->
      <g transform="translate(196.253296 314.116563) scale(0.1 -0.1)">
       <defs>
        <path id="DejaVuSans-35" d="M 691 4666 
L 3169 4666 
L 3169 4134 
L 1269 4134 
L 1269 2991 
Q 1406 3038 1543 3061 
Q 1681 3084 1819 3084 
Q 2600 3084 3056 2656 
Q 3513 2228 3513 1497 
Q 3513 744 3044 326 
Q 2575 -91 1722 -91 
Q 1428 -91 1123 -41 
Q 819 9 494 109 
L 494 744 
Q 775 591 1075 516 
Q 1375 441 1709 441 
Q 2250 441 2565 725 
Q 2881 1009 2881 1497 
Q 2881 1984 2565 2268 
Q 2250 2553 1709 2553 
Q 1456 2553 1204 2497 
Q 953 2441 691 2322 
L 691 4666 
z
" transform="scale(0.015625)"/>
       </defs>
       <use xlink:href="#DejaVuSans-35"/>
      </g>
     </g>
    </g>
    <g id="xtick_3">
     <g id="line2d_3">
      <g>
       <use xlink:href="#m3e28514fdf" x="321.759137" y="299.518125" style="stroke: #000000; stroke-width: 0.8"/>
      </g>
     </g>
     <g id="text_3">
      <!-- 10 -->
      <g transform="translate(315.396637 314.116563) scale(0.1 -0.1)">
       <defs>
        <path id="DejaVuSans-31" d="M 794 531 
L 1825 531 
L 1825 4091 
L 703 3866 
L 703 4441 
L 1819 4666 
L 2450 4666 
L 2450 531 
L 3481 531 
L 3481 0 
L 794 0 
L 794 531 
z
" transform="scale(0.015625)"/>
       </defs>
       <use xlink:href="#DejaVuSans-31"/>
       <use xlink:href="#DejaVuSans-30" x="63.623047"/>
      </g>
     </g>
    </g>
    <g id="xtick_4">
     <g id="line2d_4">
      <g>
       <use xlink:href="#m3e28514fdf" x="444.083728" y="299.518125" style="stroke: #000000; stroke-width: 0.8"/>
      </g>
     </g>
     <g id="text_4">
      <!-- 15 -->
      <g transform="translate(437.721228 314.116563) scale(0.1 -0.1)">
       <use xlink:href="#DejaVuSans-31"/>
       <use xlink:href="#DejaVuSans-35" x="63.623047"/>
      </g>
     </g>
    </g>
    <g id="xtick_5">
     <g id="line2d_5">
      <g>
       <use xlink:href="#m3e28514fdf" x="566.40832" y="299.518125" style="stroke: #000000; stroke-width: 0.8"/>
      </g>
     </g>
     <g id="text_5">
      <!-- 20 -->
      <g transform="translate(560.04582 314.116563) scale(0.1 -0.1)">
       <defs>
        <path id="DejaVuSans-32" d="M 1228 531 
L 3431 531 
L 3431 0 
L 469 0 
L 469 531 
Q 828 903 1448 1529 
Q 2069 2156 2228 2338 
Q 2531 2678 2651 2914 
Q 2772 3150 2772 3378 
Q 2772 3750 2511 3984 
Q 2250 4219 1831 4219 
Q 1534 4219 1204 4116 
Q 875 4013 500 3803 
L 500 4441 
Q 881 4594 1212 4672 
Q 1544 4750 1819 4750 
Q 2544 4750 2975 4387 
Q 3406 4025 3406 3419 
Q 3406 3131 3298 2873 
Q 3191 2616 2906 2266 
Q 2828 2175 2409 1742 
Q 1991 1309 1228 531 
z
" transform="scale(0.015625)"/>
       </defs>
       <use xlink:href="#DejaVuSans-32"/>
       <use xlink:href="#DejaVuSans-30" x="63.623047"/>
      </g>
     </g>
    </g>
    <g id="text_6">
     <!-- Time (s) -->
     <g transform="translate(310.832031 327.794688) scale(0.1 -0.1)">
      <defs>
       <path id="DejaVuSans-54" d="M -19 4666 
L 3928 4666 
L 3928 4134 
L 2272 4134 
L 2272 0 
L 1638 0 
L 1638 4134 
L -19 4134 
L -19 4666 
z
" transform="scale(0.015625)"/>
       <path id="DejaVuSans-69" d="M 603 3500 
L 1178 3500 
L 1178 0 
L 603 0 
L 603 3500 
z
M 603 4863 
L 1178 4863 
L 1178 4134 
L 603 4134 
L 603 4863 
z
" transform="scale(0.015625)"/>
       <path id="DejaVuSans-6d" d="M 3328 2828 
Q 3544 3216 3844 3400 
Q 4144 3584 4550 3584 
Q 5097 3584 5394 3201 
Q 5691 2819 5691 2113 
L 5691 0 
L 5113 0 
L 5113 2094 
Q 5113 2597 4934 2840 
Q 4756 3084 4391 3084 
Q 3944 3084 3684 2787 
Q 3425 2491 3425 1978 
L 3425 0 
L 2847 0 
L 2847 2094 
Q 2847 2600 2669 2842 
Q 2491 3084 2119 3084 
Q 1678 3084 1418 2786 
Q 1159 2488 1159 1978 
L 1159 0 
L 581 0 
L 581 3500 
L 1159 3500 
L 1159 2956 
Q 1356 3278 1631 3431 
Q 1906 3584 2284 3584 
Q 2666 3584 2933 3390 
Q 3200 3197 3328 2828 
z
" transform="scale(0.015625)"/>
       <path id="DejaVuSans-65" d="M 3597 1894 
L 3597 1613 
L 953 1613 
Q 991 1019 1311 708 
Q 1631 397 2203 397 
Q 2534 397 2845 478 
Q 3156 559 3463 722 
L 3463 178 
Q 3153 47 2828 -22 
Q 2503 -91 2169 -91 
Q 1331 -91 842 396 
Q 353 884 353 1716 
Q 353 2575 817 3079 
Q 1281 3584 2069 3584 
Q 2775 3584 3186 3129 
Q 3597 2675 3597 1894 
z
M 3022 2063 
Q 3016 2534 2758 2815 
Q 2500 3097 2075 3097 
Q 1594 3097 1305 2825 
Q 1016 2553 972 2059 
L 3022 2063 
z
" transform="scale(0.015625)"/>
       <path id="DejaVuSans-20" transform="scale(0.015625)"/>
       <path id="DejaVuSans-28" d="M 1984 4856 
Q 1566 4138 1362 3434 
Q 1159 2731 1159 2009 
Q 1159 1288 1364 580 
Q 1569 -128 1984 -844 
L 1484 -844 
Q 1016 -109 783 600 
Q 550 1309 550 2009 
Q 550 2706 781 3412 
Q 1013 4119 1484 4856 
L 1984 4856 
z
" transform="scale(0.015625)"/>
       <path id="DejaVuSans-73" d="M 2834 3397 
L 2834 2853 
Q 2591 2978 2328 3040 
Q 2066 3103 1784 3103 
Q 1356 3103 1142 2972 
Q 928 2841 928 2578 
Q 928 2378 1081 2264 
Q 1234 2150 1697 2047 
L 1894 2003 
Q 2506 1872 2764 1633 
Q 3022 1394 3022 966 
Q 3022 478 2636 193 
Q 2250 -91 1575 -91 
Q 1294 -91 989 -36 
Q 684 19 347 128 
L 347 722 
Q 666 556 975 473 
Q 1284 391 1588 391 
Q 1994 391 2212 530 
Q 2431 669 2431 922 
Q 2431 1156 2273 1281 
Q 2116 1406 1581 1522 
L 1381 1569 
Q 847 1681 609 1914 
Q 372 2147 372 2553 
Q 372 3047 722 3315 
Q 1072 3584 1716 3584 
Q 2034 3584 2315 3537 
Q 2597 3491 2834 3397 
z
" transform="scale(0.015625)"/>
       <path id="DejaVuSans-29" d="M 513 4856 
L 1013 4856 
Q 1481 4119 1714 3412 
Q 1947 2706 1947 2009 
Q 1947 1309 1714 600 
Q 1481 -109 1013 -844 
L 513 -844 
Q 928 -128 1133 580 
Q 1338 1288 1338 2009 
Q 1338 2731 1133 3434 
Q 928 4138 513 4856 
z
" transform="scale(0.015625)"/>
      </defs>
      <use xlink:href="#DejaVuSans-54"/>
      <use xlink:href="#DejaVuSans-69" x="57.958984"/>
      <use xlink:href="#DejaVuSans-6d" x="85.742188"/>
      <use xlink:href="#DejaVuSans-65" x="183.154297"/>
      <use xlink:href="#DejaVuSans-20" x="244.677734"/>
      <use xlink:href="#DejaVuSans-28" x="276.464844"/>
      <use xlink:href="#DejaVuSans-73" x="315.478516"/>
      <use xlink:href="#DejaVuSans-29" x="367.578125"/>
     </g>
    </g>
   </g>
   <g id="matplotlib.axis_2">
    <g id="ytick_1">
     <g id="line2d_6">
      <defs>
       <path id="m78243fc761" d="M 0 0 
L -3.5 0 
" style="stroke: #000000; stroke-width: 0.8"/>
      </defs>
      <g>
       <use xlink:href="#m78243fc761" x="52.160938" y="266.009325" style="stroke: #000000; stroke-width: 0.8"/>
      </g>
     </g>
     <g id="text_7">
      <!-- −0.5 -->
      <g transform="translate(20.878125 269.808544) scale(0.1 -0.1)">
       <defs>
        <path id="DejaVuSans-2212" d="M 678 2272 
L 4684 2272 
L 4684 1741 
L 678 1741 
L 678 2272 
z
" transform="scale(0.015625)"/>
        <path id="DejaVuSans-2e" d="M 684 794 
L 1344 794 
L 1344 0 
L 684 0 
L 684 794 
z
" transform="scale(0.015625)"/>
       </defs>
       <use xlink:href="#DejaVuSans-2212"/>
       <use xlink:href="#DejaVuSans-30" x="83.789062"/>
       <use xlink:href="#DejaVuSans-2e" x="147.412109"/>
       <use xlink:href="#DejaVuSans-35" x="179.199219"/>
      </g>
     </g>
    </g>
    <g id="ytick_2">
     <g id="line2d_7">
      <g>
       <use xlink:href="#m78243fc761" x="52.160938" y="231.455264" style="stroke: #000000; stroke-width: 0.8"/>
      </g>
     </g>
     <g id="text_8">
      <!-- −0.4 -->
      <g transform="translate(20.878125 235.254483) scale(0.1 -0.1)">
       <defs>
        <path id="DejaVuSans-34" d="M 2419 4116 
L 825 1625 
L 2419 1625 
L 2419 4116 
z
M 2253 4666 
L 3047 4666 
L 3047 1625 
L 3713 1625 
L 3713 1100 
L 3047 1100 
L 3047 0 
L 2419 0 
L 2419 1100 
L 313 1100 
L 313 1709 
L 2253 4666 
z
" transform="scale(0.015625)"/>
       </defs>
       <use xlink:href="#DejaVuSans-2212"/>
       <use xlink:href="#DejaVuSans-30" x="83.789062"/>
       <use xlink:href="#DejaVuSans-2e" x="147.412109"/>
       <use xlink:href="#DejaVuSans-34" x="179.199219"/>
      </g>
     </g>
    </g>
    <g id="ytick_3">
     <g id="line2d_8">
      <g>
       <use xlink:href="#m78243fc761" x="52.160938" y="196.901204" style="stroke: #000000; stroke-width: 0.8"/>
      </g>
     </g>
     <g id="text_9">
      <!-- −0.3 -->
      <g transform="translate(20.878125 200.700423) scale(0.1 -0.1)">
       <defs>
        <path id="DejaVuSans-33" d="M 2597 2516 
Q 3050 2419 3304 2112 
Q 3559 1806 3559 1356 
Q 3559 666 3084 287 
Q 2609 -91 1734 -91 
Q 1441 -91 1130 -33 
Q 819 25 488 141 
L 488 750 
Q 750 597 1062 519 
Q 1375 441 1716 441 
Q 2309 441 2620 675 
Q 2931 909 2931 1356 
Q 2931 1769 2642 2001 
Q 2353 2234 1838 2234 
L 1294 2234 
L 1294 2753 
L 1863 2753 
Q 2328 2753 2575 2939 
Q 2822 3125 2822 3475 
Q 2822 3834 2567 4026 
Q 2313 4219 1838 4219 
Q 1578 4219 1281 4162 
Q 984 4106 628 3988 
L 628 4550 
Q 988 4650 1302 4700 
Q 1616 4750 1894 4750 
Q 2613 4750 3031 4423 
Q 3450 4097 3450 3541 
Q 3450 3153 3228 2886 
Q 3006 2619 2597 2516 
z
" transform="scale(0.015625)"/>
       </defs>
       <use xlink:href="#DejaVuSans-2212"/>
       <use xlink:href="#DejaVuSans-30" x="83.789062"/>
       <use xlink:href="#DejaVuSans-2e" x="147.412109"/>
       <use xlink:href="#DejaVuSans-33" x="179.199219"/>
      </g>
     </g>
    </g>
    <g id="ytick_4">
     <g id="line2d_9">
      <g>
       <use xlink:href="#m78243fc761" x="52.160938" y="162.347143" style="stroke: #000000; stroke-width: 0.8"/>
      </g>
     </g>
     <g id="text_10">
      <!-- −0.2 -->
      <g transform="translate(20.878125 166.146362) scale(0.1 -0.1)">
       <use xlink:href="#DejaVuSans-2212"/>
       <use xlink:href="#DejaVuSans-30" x="83.789062"/>
       <use xlink:href="#DejaVuSans-2e" x="147.412109"/>
       <use xlink:href="#DejaVuSans-32" x="179.199219"/>
      </g>
     </g>
    </g>
    <g id="ytick_5">
     <g id="line2d_10">
      <g>
       <use xlink:href="#m78243fc761" x="52.160938" y="127.793083" style="stroke: #000000; stroke-width: 0.8"/>
      </g>
     </g>
     <g id="text_11">
      <!-- −0.1 -->
      <g transform="translate(20.878125 131.592301) scale(0.1 -0.1)">
       <use xlink:href="#DejaVuSans-2212"/>
       <use xlink:href="#DejaVuSans-30" x="83.789062"/>
       <use xlink:href="#DejaVuSans-2e" x="147.412109"/>
       <use xlink:href="#DejaVuSans-31" x="179.199219"/>
      </g>
     </g>
    </g>
    <g id="ytick_6">
     <g id="line2d_11">
      <g>
       <use xlink:href="#m78243fc761" x="52.160938" y="93.239022" style="stroke: #000000; stroke-width: 0.8"/>
      </g>
     </g>
     <g id="text_12">
      <!-- 0.0 -->
      <g transform="translate(29.257813 97.038241) scale(0.1 -0.1)">
       <use xlink:href="#DejaVuSans-30"/>
       <use xlink:href="#DejaVuSans-2e" x="63.623047"/>
       <use xlink:href="#DejaVuSans-30" x="95.410156"/>
      </g>
     </g>
    </g>
    <g id="ytick_7">
     <g id="line2d_12">
      <g>
       <use xlink:href="#m78243fc761" x="52.160938" y="58.684962" style="stroke: #000000; stroke-width: 0.8"/>
      </g>
     </g>
     <g id="text_13">
      <!-- 0.1 -->
      <g transform="translate(29.257813 62.48418) scale(0.1 -0.1)">
       <use xlink:href="#DejaVuSans-30"/>
       <use xlink:href="#DejaVuSans-2e" x="63.623047"/>
       <use xlink:href="#DejaVuSans-31" x="95.410156"/>
      </g>
     </g>
    </g>
    <g id="ytick_8">
     <g id="line2d_13">
      <g>
       <use xlink:href="#m78243fc761" x="52.160938" y="24.130901" style="stroke: #000000; stroke-width: 0.8"/>
      </g>
     </g>
     <g id="text_14">
      <!-- 0.2 -->
      <g transform="translate(29.257813 27.93012) scale(0.1 -0.1)">
       <use xlink:href="#DejaVuSans-30"/>
       <use xlink:href="#DejaVuSans-2e" x="63.623047"/>
       <use xlink:href="#DejaVuSans-32" x="95.410156"/>
      </g>
     </g>
    </g>
    <g id="text_15">
     <!-- Lung Volume (L) -->
     <g transform="translate(14.798438 201.590781) rotate(-90) scale(0.1 -0.1)">
      <defs>
       <path id="DejaVuSans-4c" d="M 628 4666 
L 1259 4666 
L 1259 531 
L 3531 531 
L 3531 0 
L 628 0 
L 628 4666 
z
" transform="scale(0.015625)"/>
       <path id="DejaVuSans-75" d="M 544 1381 
L 544 3500 
L 1119 3500 
L 1119 1403 
Q 1119 906 1312 657 
Q 1506 409 1894 409 
Q 2359 409 2629 706 
Q 2900 1003 2900 1516 
L 2900 3500 
L 3475 3500 
L 3475 0 
L 2900 0 
L 2900 538 
Q 2691 219 2414 64 
Q 2138 -91 1772 -91 
Q 1169 -91 856 284 
Q 544 659 544 1381 
z
M 1991 3584 
L 1991 3584 
z
" transform="scale(0.015625)"/>
       <path id="DejaVuSans-6e" d="M 3513 2113 
L 3513 0 
L 2938 0 
L 2938 2094 
Q 2938 2591 2744 2837 
Q 2550 3084 2163 3084 
Q 1697 3084 1428 2787 
Q 1159 2491 1159 1978 
L 1159 0 
L 581 0 
L 581 3500 
L 1159 3500 
L 1159 2956 
Q 1366 3272 1645 3428 
Q 1925 3584 2291 3584 
Q 2894 3584 3203 3211 
Q 3513 2838 3513 2113 
z
" transform="scale(0.015625)"/>
       <path id="DejaVuSans-67" d="M 2906 1791 
Q 2906 2416 2648 2759 
Q 2391 3103 1925 3103 
Q 1463 3103 1205 2759 
Q 947 2416 947 1791 
Q 947 1169 1205 825 
Q 1463 481 1925 481 
Q 2391 481 2648 825 
Q 2906 1169 2906 1791 
z
M 3481 434 
Q 3481 -459 3084 -895 
Q 2688 -1331 1869 -1331 
Q 1566 -1331 1297 -1286 
Q 1028 -1241 775 -1147 
L 775 -588 
Q 1028 -725 1275 -790 
Q 1522 -856 1778 -856 
Q 2344 -856 2625 -561 
Q 2906 -266 2906 331 
L 2906 616 
Q 2728 306 2450 153 
Q 2172 0 1784 0 
Q 1141 0 747 490 
Q 353 981 353 1791 
Q 353 2603 747 3093 
Q 1141 3584 1784 3584 
Q 2172 3584 2450 3431 
Q 2728 3278 2906 2969 
L 2906 3500 
L 3481 3500 
L 3481 434 
z
" transform="scale(0.015625)"/>
       <path id="DejaVuSans-56" d="M 1831 0 
L 50 4666 
L 709 4666 
L 2188 738 
L 3669 4666 
L 4325 4666 
L 2547 0 
L 1831 0 
z
" transform="scale(0.015625)"/>
       <path id="DejaVuSans-6f" d="M 1959 3097 
Q 1497 3097 1228 2736 
Q 959 2375 959 1747 
Q 959 1119 1226 758 
Q 1494 397 1959 397 
Q 2419 397 2687 759 
Q 2956 1122 2956 1747 
Q 2956 2369 2687 2733 
Q 2419 3097 1959 3097 
z
M 1959 3584 
Q 2709 3584 3137 3096 
Q 3566 2609 3566 1747 
Q 3566 888 3137 398 
Q 2709 -91 1959 -91 
Q 1206 -91 779 398 
Q 353 888 353 1747 
Q 353 2609 779 3096 
Q 1206 3584 1959 3584 
z
" transform="scale(0.015625)"/>
       <path id="DejaVuSans-6c" d="M 603 4863 
L 1178 4863 
L 1178 0 
L 603 0 
L 603 4863 
z
" transform="scale(0.015625)"/>
      </defs>
      <use xlink:href="#DejaVuSans-4c"/>
      <use xlink:href="#DejaVuSans-75" x="53.962891"/>
      <use xlink:href="#DejaVuSans-6e" x="117.341797"/>
      <use xlink:href="#DejaVuSans-67" x="180.720703"/>
      <use xlink:href="#DejaVuSans-20" x="244.197266"/>
      <use xlink:href="#DejaVuSans-56" x="275.984375"/>
      <use xlink:href="#DejaVuSans-6f" x="336.642578"/>
      <use xlink:href="#DejaVuSans-6c" x="397.824219"/>
      <use xlink:href="#DejaVuSans-75" x="425.607422"/>
      <use xlink:href="#DejaVuSans-6d" x="488.986328"/>
      <use xlink:href="#DejaVuSans-65" x="586.398438"/>
      <use xlink:href="#DejaVuSans-20" x="647.921875"/>
      <use xlink:href="#DejaVuSans-28" x="679.708984"/>
      <use xlink:href="#DejaVuSans-4c" x="718.722656"/>
      <use xlink:href="#DejaVuSans-29" x="774.435547"/>
     </g>
    </g>
   </g>
   <g id="line2d_14">
    <path d="M 77.524574 93.67311 
L 78.772192 94.783821 
L 79.178901 95.620827 
L 79.971767 98.341765 
L 82.308708 108.626508 
L 83.850675 116.297647 
L 85.369918 125.12635 
L 86.512048 131.610406 
L 87.651423 138.234824 
L 88.76655 146.094417 
L 91.725839 167.78596 
L 92.492349 171.84941 
L 93.274711 175.105371 
L 94.069165 177.745396 
L 94.47273 178.742578 
L 94.885793 179.255928 
L 95.729879 179.367806 
L 96.145049 179.773821 
L 96.554417 180.47542 
L 96.968518 180.935928 
L 97.397401 180.643442 
L 97.849495 179.168621 
L 98.808632 173.420019 
L 100.301167 162.055124 
L 101.31671 153.433251 
L 102.872006 138.871431 
L 103.83902 132.721561 
L 104.300646 130.761257 
L 104.743793 129.742196 
L 105.602629 129.10273 
L 106.044187 128.164584 
L 106.507919 126.096945 
L 107.962428 116.66903 
L 108.951616 109.389668 
L 110.009433 98.614494 
L 111.077234 87.330719 
L 112.076407 79.542755 
L 113.019172 74.628062 
L 114.408295 68.530828 
L 115.347916 63.776311 
L 117.174317 56.958903 
L 117.62116 55.751594 
L 118.09546 53.14563 
L 119.578432 42.26787 
L 120.047967 39.904647 
L 120.504859 38.185434 
L 120.950664 37.030966 
L 121.822694 35.719419 
L 122.684707 34.918125 
L 123.10675 34.974064 
L 123.933428 35.972692 
L 124.350705 36.271372 
L 124.75427 37.268555 
L 125.897924 43.675 
L 126.304115 44.538426 
L 126.697112 46.073934 
L 127.430847 51.806852 
L 128.111288 60.254516 
L 129.017417 78.760069 
L 130.166254 106.456579 
L 130.759134 119.364416 
L 131.399506 129.853091 
L 131.755028 133.297507 
L 132.514633 137.712684 
L 133.277966 141.937961 
L 134.379899 150.469635 
L 135.802017 164.245647 
L 136.85649 175.194831 
L 137.57178 181.867342 
L 138.350933 185.286782 
L 138.723377 187.869217 
L 139.433383 194.810891 
L 140.101699 203.876142 
L 140.773193 212.779565 
L 141.505405 218.590094 
L 141.887865 220.662276 
L 142.288286 221.819635 
L 142.701349 222.332985 
L 143.121252 222.49791 
L 143.558045 221.802505 
L 144.010691 220.299612 
L 144.45173 219.387887 
L 144.864794 219.901237 
L 145.248843 221.892504 
L 145.946206 229.478186 
L 146.95108 242.953866 
L 147.686955 248.577799 
L 148.085235 249.844144 
L 148.519954 249.254422 
L 149.469073 244.016073 
L 149.951251 241.008842 
L 150.454533 236.926611 
L 152.014562 222.1237 
L 154.471518 204.74104 
L 156.483155 188.488078 
L 158.034236 174.140926 
L 159.104177 162.748165 
L 160.750308 143.559389 
L 161.761151 135.176955 
L 163.756514 119.752948 
L 165.274821 107.075266 
L 165.760694 103.879786 
L 166.229678 101.544636 
L 166.67597 100.365398 
L 167.104334 100.099333 
L 167.529003 100.021516 
L 168.397889 98.870145 
L 168.818862 98.980577 
L 169.231925 99.493927 
L 169.661878 99.146948 
L 170.122433 97.241137 
L 173.466688 77.769165 
L 173.923547 76.051603 
L 174.802418 74.39163 
L 175.270364 72.109322 
L 176.738067 62.009326 
L 177.679731 57.150777 
L 179.064541 51.273167 
L 180.486276 43.514721 
L 180.93046 42.442819 
L 181.349845 42.634164 
L 181.754447 43.578505 
L 182.143748 45.302262 
L 182.859556 51.948351 
L 183.540516 60.369593 
L 185.121931 87.585368 
L 186.590403 120.554287 
L 187.599491 133.815298 
L 188.700937 142.371741 
L 189.727433 154.746001 
L 192.387505 191.679086 
L 193.094367 198.780936 
L 193.469404 201.231266 
L 193.870829 202.337435 
L 194.283341 202.878857 
L 194.680033 204.226116 
L 195.055103 206.674795 
L 195.771981 213.266392 
L 197.51367 232.318116 
L 197.882904 235.06403 
L 198.267472 237.028877 
L 198.683194 237.40682 
L 199.124234 236.495094 
L 199.573702 235.154029 
L 200.948496 229.786673 
L 201.359419 230.409009 
L 201.735526 232.804846 
L 202.416518 241.224437 
L 203.742615 259.891613 
L 204.816636 269.84506 
L 205.208563 271.435061 
L 205.626878 271.6809 
L 206.05628 271.361993 
L 206.499426 270.342932 
L 206.97055 267.898796 
L 207.930173 262.125424 
L 209.321888 255.896086 
L 209.769768 254.635935 
L 210.206561 253.94053 
L 210.657067 252.546623 
L 211.139245 249.539392 
L 212.146911 241.318787 
L 213.208942 230.328943 
L 214.870277 210.365705 
L 216.003011 195.774367 
L 217.047634 185.671274 
L 218.507426 175.974197 
L 219.963978 166.44225 
L 222.44677 147.7435 
L 223.460207 139.228962 
L 225.540407 119.483491 
L 226.543276 111.507278 
L 227.025454 108.500047 
L 227.944976 104.769339 
L 228.394444 103.428274 
L 228.832307 102.678376 
L 229.257527 102.572487 
L 229.685373 102.332842 
L 230.11847 101.825686 
L 230.543139 101.747869 
L 230.965182 101.803808 
L 231.403564 101.027489 
L 231.851443 99.767338 
L 232.289306 99.01744 
L 232.716082 98.832288 
L 233.133878 99.104548 
L 233.535855 100.182644 
L 235.086283 107.422792 
L 235.486671 108.581803 
L 235.871758 110.520229 
L 236.588636 117.111825 
L 237.261718 125.934335 
L 238.244969 140.511435 
L 242.637977 196.942096 
L 243.371778 202.671712 
L 244.532322 208.217827 
L 244.920585 209.994426 
L 245.290371 212.712267 
L 246.698291 227.21155 
L 247.462629 231.385637 
L 248.218052 236.013833 
L 249.336355 243.711598 
L 249.730389 245.194264 
L 250.946854 247.891879 
L 251.367309 248.028732 
L 251.79885 247.600838 
L 252.206629 248.383351 
L 253.322825 256.188451 
L 253.720036 257.509289 
L 254.539809 258.859645 
L 254.960782 258.970077 
L 255.396019 258.353934 
L 255.842862 257.146625 
L 256.306075 255.105407 
L 256.780894 252.473022 
L 257.235647 250.862794 
L 257.657139 250.946805 
L 258.056457 252.160309 
L 258.439436 254.206069 
L 259.168471 260.178427 
L 260.238797 270.320123 
L 260.99892 274.708879 
L 262.171621 279.635755 
L 262.584684 280.149105 
L 263.015156 279.775705 
L 263.470946 278.112636 
L 263.964211 274.540658 
L 265.040992 262.799471 
L 266.663295 244.824404 
L 267.666715 236.82012 
L 269.627747 223.144844 
L 275.042639 184.414535 
L 276.95981 172.973475 
L 278.426508 162.92467 
L 279.369825 157.981904 
L 280.352173 151.050967 
L 281.370407 142.292036 
L 282.901973 128.938971 
L 283.90173 121.121283 
L 284.366499 119.000803 
L 284.809095 118.009814 
L 285.239567 117.636414 
L 285.658951 117.82776 
L 286.065661 118.664766 
L 286.453373 120.469436 
L 287.903987 132.793951 
L 288.291181 134.625042 
L 288.716401 134.519153 
L 289.177507 132.58527 
L 290.115508 127.913318 
L 290.566564 126.491339 
L 291.001801 125.875197 
L 291.430717 125.581059 
L 291.870168 124.750247 
L 292.330205 122.870857 
L 293.761503 114.625276 
L 294.203612 113.659057 
L 294.616675 114.172408 
L 295.009153 115.734336 
L 296.133292 123.134866 
L 296.535787 124.186542 
L 296.958316 124.217711 
L 297.399875 123.279564 
L 298.30938 120.059109 
L 298.755185 118.904642 
L 299.192011 118.207586 
L 299.621445 117.887027 
L 300.040829 118.078373 
L 300.447539 118.915378 
L 300.838428 120.558221 
L 301.209802 123.195149 
L 303.35042 143.480192 
L 305.19724 157.176736 
L 305.891945 164.897825 
L 306.574525 173.236502 
L 307.646374 183.300586 
L 309.285817 207.560525 
L 310.021725 213.182806 
L 310.758637 218.753897 
L 311.427505 227.791076 
L 312.399604 242.936225 
L 312.7525 246.514396 
L 313.133372 248.667492 
L 314.325556 252.601934 
L 314.750744 252.497696 
L 316.104433 248.205338 
L 317.561049 238.670089 
L 317.985718 238.592272 
L 318.361825 240.988109 
L 319.015359 250.806355 
L 319.981655 266.247088 
L 320.699571 272.785843 
L 322.178161 283.685282 
L 322.561141 285.731043 
L 322.960978 286.918125 
L 323.399359 286.141806 
L 324.369064 279.854878 
L 327.278665 260.969325 
L 328.821804 247.026744 
L 330.967003 223.970407 
L 332.643184 203.250871 
L 333.775951 188.657881 
L 334.841094 177.509513 
L 338.473997 143.334325 
L 339.443151 137.07547 
L 339.906883 135.007831 
L 340.352656 133.855014 
L 340.78893 133.18603 
L 341.23895 131.816893 
L 342.155846 128.219941 
L 343.952131 122.936595 
L 344.384191 122.48228 
L 344.812556 122.216215 
L 346.109806 120.798779 
L 346.526565 121.12388 
L 346.913758 122.954971 
L 348.704593 139.503318 
L 349.078592 142.00649 
L 349.472659 143.487505 
L 349.874635 144.565601 
L 350.266594 146.15395 
L 351.023055 150.729304 
L 352.14982 157.996079 
L 352.558117 158.752171 
L 352.987519 158.433263 
L 353.413225 158.302605 
L 353.817309 159.273366 
L 354.200807 161.292706 
L 354.942453 166.622706 
L 355.328058 168.534711 
L 355.743228 168.940727 
L 356.190071 167.733417 
L 358.044449 159.490934 
L 358.481793 158.767457 
L 358.899103 159.064486 
L 359.717871 160.466032 
L 360.11774 161.651463 
L 360.498612 163.804559 
L 360.854134 167.248975 
L 362.513643 190.486756 
L 362.874968 193.635588 
L 364.038689 199.019876 
L 364.406367 201.845052 
L 365.793118 217.422638 
L 366.185596 218.984566 
L 366.598659 219.497916 
L 367.006989 220.252357 
L 367.392627 222.162711 
L 368.145424 226.924662 
L 368.542635 228.2455 
L 368.96202 228.436846 
L 369.41097 227.122202 
L 370.838539 219.066521 
L 371.27744 218.263781 
L 371.676239 219.503706 
L 373.156937 230.29581 
L 373.559432 231.347485 
L 373.974602 231.753501 
L 374.386628 232.319693 
L 374.808152 232.402052 
L 375.261867 230.844666 
L 377.613206 218.841957 
L 378.035768 218.871474 
L 378.403446 221.696651 
L 379.421449 234.503553 
L 379.787538 237.409643 
L 380.554016 241.474744 
L 380.91748 244.51459 
L 381.970883 255.518267 
L 382.345402 257.995018 
L 382.747378 259.073114 
L 383.181545 258.511465 
L 384.069946 256.366009 
L 384.488812 256.583776 
L 384.868096 258.817786 
L 385.898288 271.003797 
L 386.357255 269.178899 
L 386.90067 263.052354 
L 389.755555 225.39993 
L 390.845011 213.013083 
L 391.33351 209.683847 
L 391.775588 208.71928 
L 392.197631 208.775218 
L 392.615459 209.045827 
L 393.457924 209.240269 
L 393.886289 208.974204 
L 394.344737 207.175728 
L 395.343391 199.414185 
L 397.925836 175.639324 
L 399.933291 159.599381 
L 401.011142 147.803701 
L 402.654581 128.751983 
L 404.216199 113.868158 
L 406.943357 82.721874 
L 407.919319 76.116244 
L 408.36668 74.882514 
L 408.789241 74.912032 
L 409.203342 75.37254 
L 409.608495 76.288809 
L 409.998866 77.958072 
L 410.753187 82.642412 
L 411.155682 83.694087 
L 411.5904 83.104366 
L 412.055721 80.955813 
L 413.522354 70.91031 
L 413.963913 69.972164 
L 414.352695 71.722341 
L 414.698718 75.650589 
L 416.32701 100.478577 
L 417.429461 108.98383 
L 418.442309 122.053289 
L 419.752587 141.526302 
L 420.365501 153.413632 
L 421.564942 178.532455 
L 422.2259 187.972553 
L 422.933312 195.04633 
L 423.266692 199.618587 
L 423.854288 212.795586 
L 424.421331 227.019513 
L 424.744144 232.130095 
L 425.102291 235.440755 
L 426.243287 241.982607 
L 426.992875 246.908038 
L 427.393295 248.065397 
L 427.817445 248.014 
L 428.264288 246.806691 
L 429.17804 243.369915 
L 429.613277 242.753773 
L 430.008413 244.180295 
L 430.354987 248.08047 
L 431.312336 263.976963 
L 431.673661 267.125795 
L 432.076707 268.149398 
L 432.518265 267.211252 
L 432.976681 265.414427 
L 433.424042 264.180697 
L 434.286088 263.377751 
L 434.713933 263.138107 
L 435.151796 262.388209 
L 435.619743 260.1059 
L 437.128616 247.908748 
L 437.588134 246.055778 
L 438.00807 246.219052 
L 438.391568 248.238392 
L 439.481409 257.386002 
L 440.615565 264.27628 
L 441.700154 273.691402 
L 442.449191 278.644904 
L 442.869094 278.809829 
L 443.337559 276.5011 
L 443.840323 272.44529 
L 444.907054 261.216007 
L 445.382911 258.530781 
L 445.792797 259.205959 
L 446.535512 264.481465 
L 446.951753 264.832988 
L 447.417073 262.684435 
L 448.428435 254.275581 
L 449.987459 239.52386 
L 452.64962 211.688442 
L 454.971073 179.653961 
L 456.006165 170.036352 
L 457.036491 160.661485 
L 458.606051 145.37309 
L 459.10353 141.586443 
L 459.574103 139.170379 
L 460.002467 138.904313 
L 460.376467 141.407485 
L 461.732615 158.543902 
L 462.108204 160.96616 
L 462.519678 161.560424 
L 462.988662 159.225274 
L 466.605162 125.885646 
L 467.653447 115.595956 
L 468.148852 111.914993 
L 469.078424 107.67238 
L 470.42952 103.512127 
L 470.922784 99.94015 
L 473.51006 75.919245 
L 474.453863 70.951709 
L 475.846097 64.695951 
L 476.262337 65.047473 
L 476.622106 68.275568 
L 477.256092 79.089551 
L 477.845244 92.187287 
L 478.170163 97.190535 
L 478.525166 100.661371 
L 479.678351 106.582333 
L 480.042852 109.569337 
L 480.390983 113.39025 
L 481.014465 124.739256 
L 481.626342 136.679428 
L 483.264262 161.016978 
L 483.642508 163.30383 
L 484.034468 164.892179 
L 484.438551 165.862941 
L 485.281049 166.055732 
L 485.675634 167.510326 
L 486.031155 170.954742 
L 486.670458 181.49791 
L 487.596167 199.006076 
L 488.318816 205.30374 
L 488.681761 208.370007 
L 490.073278 223.704851 
L 490.468932 225.104951 
L 490.910491 224.166805 
L 492.359748 215.006401 
L 492.784968 214.900512 
L 493.138933 218.424191 
L 494.102604 233.998679 
L 494.820487 240.539085 
L 495.570043 245.466167 
L 496.291136 251.843094 
L 496.678848 253.647764 
L 497.098233 253.83911 
L 497.526079 253.599465 
L 497.95655 253.226065 
L 498.423946 250.971828 
L 499.44004 242.321884 
L 499.925947 239.124752 
L 500.377555 237.674701 
L 500.778493 238.805639 
L 501.853552 248.706245 
L 503.364398 257.962636 
L 503.755806 259.579058 
L 504.182582 259.393906 
L 505.076754 256.954518 
L 505.538897 254.967793 
L 506.485391 249.863199 
L 506.929057 248.817718 
L 507.788444 248.150179 
L 508.214701 247.991449 
L 508.644103 247.672541 
L 509.090913 246.466883 
L 509.563074 243.969905 
L 511.040794 233.359656 
L 511.555714 228.684607 
L 514.789234 193.299219 
L 515.807468 184.540288 
L 516.798277 177.178361 
L 517.771094 170.732908 
L 518.781905 162.352126 
L 519.815408 152.815431 
L 520.791921 146.181729 
L 522.209473 138.636302 
L 522.69431 135.493663 
L 524.233721 121.740982 
L 525.280969 111.504133 
L 527.428177 88.345415 
L 528.432148 80.313059 
L 528.914358 77.304176 
L 529.375983 75.343872 
L 529.808043 74.889558 
L 530.212127 75.860319 
L 530.601428 77.584075 
L 531.353674 82.374099 
L 532.859204 91.901304 
L 533.630479 95.722012 
L 534.410735 99.085308 
L 535.19569 102.209165 
L 535.986481 105.035787 
L 536.372119 106.946141 
L 536.741386 109.690404 
L 537.084783 113.752407 
L 537.709271 125.050222 
L 538.621203 143.260192 
L 538.971991 146.945699 
L 540.455898 157.574324 
L 541.139516 165.860159 
L 541.817331 174.441578 
L 542.869178 185.524517 
L 543.529033 195.020759 
L 544.243254 201.747763 
L 544.627822 203.71261 
L 545.039847 204.278801 
L 545.473496 203.743573 
L 545.912429 202.939182 
L 546.331295 203.156949 
L 546.710027 205.41903 
L 547.367257 215.049028 
L 548.048249 223.468619 
L 548.431228 225.514379 
L 548.839559 226.26882 
L 549.254729 226.674835 
L 549.649833 228.103008 
L 550.397832 233.109352 
L 550.804055 233.971128 
L 551.246683 232.978488 
L 551.732589 229.781357 
L 552.738667 221.641665 
L 553.207651 219.306515 
L 553.649728 218.341948 
L 554.055919 219.205374 
L 554.411441 222.64979 
L 555.07765 231.822376 
L 555.428957 235.481461 
L 556.181236 240.269833 
L 556.574265 241.80369 
L 556.989986 242.181633 
L 557.426812 241.484577 
L 557.888956 239.497852 
L 559.36982 228.727426 
L 559.824573 227.117199 
L 560.243439 227.334965 
L 561.017826 230.997148 
L 562.561317 238.590675 
L 563.303514 243.892603 
L 564.037801 249.597449 
L 564.439777 250.675545 
L 564.871286 250.249303 
L 565.341858 247.833239 
L 566.323655 240.930375 
L 566.760967 240.208549 
L 567.152375 241.82497 
L 567.879822 247.878242 
L 568.596214 254.494608 
L 569.012973 254.81971 
L 569.488311 252.160904 
L 570.509722 243.240145 
L 571.035729 238.00035 
L 572.177443 222.9516 
L 574.580654 186.752529 
L 575.137264 179.953903 
L 575.652702 175.252433 
L 577.074988 167.465915 
L 578.152871 155.668584 
L 579.259249 142.419756 
L 579.774688 137.718286 
L 580.747505 131.272833 
L 581.268196 126.303852 
L 582.427836 110.341931 
L 584.797301 75.861868 
L 584.797301 75.861868 
" clip-path="url(#p8011ef167c)" style="fill: none; stroke: #1f77b4; stroke-width: 1.5; stroke-linecap: square"/>
   </g>
   <g id="patch_3">
    <path d="M 52.160938 299.518125 
L 52.160938 22.318125 
" style="fill: none; stroke: #000000; stroke-width: 0.8; stroke-linejoin: miter; stroke-linecap: square"/>
   </g>
   <g id="patch_4">
    <path d="M 610.160938 299.518125 
L 610.160938 22.318125 
" style="fill: none; stroke: #000000; stroke-width: 0.8; stroke-linejoin: miter; stroke-linecap: square"/>
   </g>
   <g id="patch_5">
    <path d="M 52.160938 299.518125 
L 610.160937 299.518125 
" style="fill: none; stroke: #000000; stroke-width: 0.8; stroke-linejoin: miter; stroke-linecap: square"/>
   </g>
   <g id="patch_6">
    <path d="M 52.160938 22.318125 
L 610.160937 22.318125 
" style="fill: none; stroke: #000000; stroke-width: 0.8; stroke-linejoin: miter; stroke-linecap: square"/>
   </g>
   <g id="text_16">
    <!-- Local Maximums and Minimums of Rotated Spirometry Data -->
    <g transform="translate(150.5975 16.318125) scale(0.12 -0.12)">
     <defs>
      <path id="DejaVuSans-63" d="M 3122 3366 
L 3122 2828 
Q 2878 2963 2633 3030 
Q 2388 3097 2138 3097 
Q 1578 3097 1268 2742 
Q 959 2388 959 1747 
Q 959 1106 1268 751 
Q 1578 397 2138 397 
Q 2388 397 2633 464 
Q 2878 531 3122 666 
L 3122 134 
Q 2881 22 2623 -34 
Q 2366 -91 2075 -91 
Q 1284 -91 818 406 
Q 353 903 353 1747 
Q 353 2603 823 3093 
Q 1294 3584 2113 3584 
Q 2378 3584 2631 3529 
Q 2884 3475 3122 3366 
z
" transform="scale(0.015625)"/>
      <path id="DejaVuSans-61" d="M 2194 1759 
Q 1497 1759 1228 1600 
Q 959 1441 959 1056 
Q 959 750 1161 570 
Q 1363 391 1709 391 
Q 2188 391 2477 730 
Q 2766 1069 2766 1631 
L 2766 1759 
L 2194 1759 
z
M 3341 1997 
L 3341 0 
L 2766 0 
L 2766 531 
Q 2569 213 2275 61 
Q 1981 -91 1556 -91 
Q 1019 -91 701 211 
Q 384 513 384 1019 
Q 384 1609 779 1909 
Q 1175 2209 1959 2209 
L 2766 2209 
L 2766 2266 
Q 2766 2663 2505 2880 
Q 2244 3097 1772 3097 
Q 1472 3097 1187 3025 
Q 903 2953 641 2809 
L 641 3341 
Q 956 3463 1253 3523 
Q 1550 3584 1831 3584 
Q 2591 3584 2966 3190 
Q 3341 2797 3341 1997 
z
" transform="scale(0.015625)"/>
      <path id="DejaVuSans-4d" d="M 628 4666 
L 1569 4666 
L 2759 1491 
L 3956 4666 
L 4897 4666 
L 4897 0 
L 4281 0 
L 4281 4097 
L 3078 897 
L 2444 897 
L 1241 4097 
L 1241 0 
L 628 0 
L 628 4666 
z
" transform="scale(0.015625)"/>
      <path id="DejaVuSans-78" d="M 3513 3500 
L 2247 1797 
L 3578 0 
L 2900 0 
L 1881 1375 
L 863 0 
L 184 0 
L 1544 1831 
L 300 3500 
L 978 3500 
L 1906 2253 
L 2834 3500 
L 3513 3500 
z
" transform="scale(0.015625)"/>
      <path id="DejaVuSans-64" d="M 2906 2969 
L 2906 4863 
L 3481 4863 
L 3481 0 
L 2906 0 
L 2906 525 
Q 2725 213 2448 61 
Q 2172 -91 1784 -91 
Q 1150 -91 751 415 
Q 353 922 353 1747 
Q 353 2572 751 3078 
Q 1150 3584 1784 3584 
Q 2172 3584 2448 3432 
Q 2725 3281 2906 2969 
z
M 947 1747 
Q 947 1113 1208 752 
Q 1469 391 1925 391 
Q 2381 391 2643 752 
Q 2906 1113 2906 1747 
Q 2906 2381 2643 2742 
Q 2381 3103 1925 3103 
Q 1469 3103 1208 2742 
Q 947 2381 947 1747 
z
" transform="scale(0.015625)"/>
      <path id="DejaVuSans-66" d="M 2375 4863 
L 2375 4384 
L 1825 4384 
Q 1516 4384 1395 4259 
Q 1275 4134 1275 3809 
L 1275 3500 
L 2222 3500 
L 2222 3053 
L 1275 3053 
L 1275 0 
L 697 0 
L 697 3053 
L 147 3053 
L 147 3500 
L 697 3500 
L 697 3744 
Q 697 4328 969 4595 
Q 1241 4863 1831 4863 
L 2375 4863 
z
" transform="scale(0.015625)"/>
      <path id="DejaVuSans-52" d="M 2841 2188 
Q 3044 2119 3236 1894 
Q 3428 1669 3622 1275 
L 4263 0 
L 3584 0 
L 2988 1197 
Q 2756 1666 2539 1819 
Q 2322 1972 1947 1972 
L 1259 1972 
L 1259 0 
L 628 0 
L 628 4666 
L 2053 4666 
Q 2853 4666 3247 4331 
Q 3641 3997 3641 3322 
Q 3641 2881 3436 2590 
Q 3231 2300 2841 2188 
z
M 1259 4147 
L 1259 2491 
L 2053 2491 
Q 2509 2491 2742 2702 
Q 2975 2913 2975 3322 
Q 2975 3731 2742 3939 
Q 2509 4147 2053 4147 
L 1259 4147 
z
" transform="scale(0.015625)"/>
      <path id="DejaVuSans-74" d="M 1172 4494 
L 1172 3500 
L 2356 3500 
L 2356 3053 
L 1172 3053 
L 1172 1153 
Q 1172 725 1289 603 
Q 1406 481 1766 481 
L 2356 481 
L 2356 0 
L 1766 0 
Q 1100 0 847 248 
Q 594 497 594 1153 
L 594 3053 
L 172 3053 
L 172 3500 
L 594 3500 
L 594 4494 
L 1172 4494 
z
" transform="scale(0.015625)"/>
      <path id="DejaVuSans-53" d="M 3425 4513 
L 3425 3897 
Q 3066 4069 2747 4153 
Q 2428 4238 2131 4238 
Q 1616 4238 1336 4038 
Q 1056 3838 1056 3469 
Q 1056 3159 1242 3001 
Q 1428 2844 1947 2747 
L 2328 2669 
Q 3034 2534 3370 2195 
Q 3706 1856 3706 1288 
Q 3706 609 3251 259 
Q 2797 -91 1919 -91 
Q 1588 -91 1214 -16 
Q 841 59 441 206 
L 441 856 
Q 825 641 1194 531 
Q 1563 422 1919 422 
Q 2459 422 2753 634 
Q 3047 847 3047 1241 
Q 3047 1584 2836 1778 
Q 2625 1972 2144 2069 
L 1759 2144 
Q 1053 2284 737 2584 
Q 422 2884 422 3419 
Q 422 4038 858 4394 
Q 1294 4750 2059 4750 
Q 2388 4750 2728 4690 
Q 3069 4631 3425 4513 
z
" transform="scale(0.015625)"/>
      <path id="DejaVuSans-70" d="M 1159 525 
L 1159 -1331 
L 581 -1331 
L 581 3500 
L 1159 3500 
L 1159 2969 
Q 1341 3281 1617 3432 
Q 1894 3584 2278 3584 
Q 2916 3584 3314 3078 
Q 3713 2572 3713 1747 
Q 3713 922 3314 415 
Q 2916 -91 2278 -91 
Q 1894 -91 1617 61 
Q 1341 213 1159 525 
z
M 3116 1747 
Q 3116 2381 2855 2742 
Q 2594 3103 2138 3103 
Q 1681 3103 1420 2742 
Q 1159 2381 1159 1747 
Q 1159 1113 1420 752 
Q 1681 391 2138 391 
Q 2594 391 2855 752 
Q 3116 1113 3116 1747 
z
" transform="scale(0.015625)"/>
      <path id="DejaVuSans-72" d="M 2631 2963 
Q 2534 3019 2420 3045 
Q 2306 3072 2169 3072 
Q 1681 3072 1420 2755 
Q 1159 2438 1159 1844 
L 1159 0 
L 581 0 
L 581 3500 
L 1159 3500 
L 1159 2956 
Q 1341 3275 1631 3429 
Q 1922 3584 2338 3584 
Q 2397 3584 2469 3576 
Q 2541 3569 2628 3553 
L 2631 2963 
z
" transform="scale(0.015625)"/>
      <path id="DejaVuSans-79" d="M 2059 -325 
Q 1816 -950 1584 -1140 
Q 1353 -1331 966 -1331 
L 506 -1331 
L 506 -850 
L 844 -850 
Q 1081 -850 1212 -737 
Q 1344 -625 1503 -206 
L 1606 56 
L 191 3500 
L 800 3500 
L 1894 763 
L 2988 3500 
L 3597 3500 
L 2059 -325 
z
" transform="scale(0.015625)"/>
      <path id="DejaVuSans-44" d="M 1259 4147 
L 1259 519 
L 2022 519 
Q 2988 519 3436 956 
Q 3884 1394 3884 2338 
Q 3884 3275 3436 3711 
Q 2988 4147 2022 4147 
L 1259 4147 
z
M 628 4666 
L 1925 4666 
Q 3281 4666 3915 4102 
Q 4550 3538 4550 2338 
Q 4550 1131 3912 565 
Q 3275 0 1925 0 
L 628 0 
L 628 4666 
z
" transform="scale(0.015625)"/>
     </defs>
     <use xlink:href="#DejaVuSans-4c"/>
     <use xlink:href="#DejaVuSans-6f" x="53.962891"/>
     <use xlink:href="#DejaVuSans-63" x="115.144531"/>
     <use xlink:href="#DejaVuSans-61" x="170.125"/>
     <use xlink:href="#DejaVuSans-6c" x="231.404297"/>
     <use xlink:href="#DejaVuSans-20" x="259.1875"/>
     <use xlink:href="#DejaVuSans-4d" x="290.974609"/>
     <use xlink:href="#DejaVuSans-61" x="377.253906"/>
     <use xlink:href="#DejaVuSans-78" x="438.533203"/>
     <use xlink:href="#DejaVuSans-69" x="497.712891"/>
     <use xlink:href="#DejaVuSans-6d" x="525.496094"/>
     <use xlink:href="#DejaVuSans-75" x="622.908203"/>
     <use xlink:href="#DejaVuSans-6d" x="686.287109"/>
     <use xlink:href="#DejaVuSans-73" x="783.699219"/>
     <use xlink:href="#DejaVuSans-20" x="835.798828"/>
     <use xlink:href="#DejaVuSans-61" x="867.585938"/>
     <use xlink:href="#DejaVuSans-6e" x="928.865234"/>
     <use xlink:href="#DejaVuSans-64" x="992.244141"/>
     <use xlink:href="#DejaVuSans-20" x="1055.720703"/>
     <use xlink:href="#DejaVuSans-4d" x="1087.507812"/>
     <use xlink:href="#DejaVuSans-69" x="1173.787109"/>
     <use xlink:href="#DejaVuSans-6e" x="1201.570312"/>
     <use xlink:href="#DejaVuSans-69" x="1264.949219"/>
     <use xlink:href="#DejaVuSans-6d" x="1292.732422"/>
     <use xlink:href="#DejaVuSans-75" x="1390.144531"/>
     <use xlink:href="#DejaVuSans-6d" x="1453.523438"/>
     <use xlink:href="#DejaVuSans-73" x="1550.935547"/>
     <use xlink:href="#DejaVuSans-20" x="1603.035156"/>
     <use xlink:href="#DejaVuSans-6f" x="1634.822266"/>
     <use xlink:href="#DejaVuSans-66" x="1696.003906"/>
     <use xlink:href="#DejaVuSans-20" x="1731.208984"/>
     <use xlink:href="#DejaVuSans-52" x="1762.996094"/>
     <use xlink:href="#DejaVuSans-6f" x="1827.978516"/>
     <use xlink:href="#DejaVuSans-74" x="1889.160156"/>
     <use xlink:href="#DejaVuSans-61" x="1928.369141"/>
     <use xlink:href="#DejaVuSans-74" x="1989.648438"/>
     <use xlink:href="#DejaVuSans-65" x="2028.857422"/>
     <use xlink:href="#DejaVuSans-64" x="2090.380859"/>
     <use xlink:href="#DejaVuSans-20" x="2153.857422"/>
     <use xlink:href="#DejaVuSans-53" x="2185.644531"/>
     <use xlink:href="#DejaVuSans-70" x="2249.121094"/>
     <use xlink:href="#DejaVuSans-69" x="2312.597656"/>
     <use xlink:href="#DejaVuSans-72" x="2340.380859"/>
     <use xlink:href="#DejaVuSans-6f" x="2379.244141"/>
     <use xlink:href="#DejaVuSans-6d" x="2440.425781"/>
     <use xlink:href="#DejaVuSans-65" x="2537.837891"/>
     <use xlink:href="#DejaVuSans-74" x="2599.361328"/>
     <use xlink:href="#DejaVuSans-72" x="2638.570312"/>
     <use xlink:href="#DejaVuSans-79" x="2679.683594"/>
     <use xlink:href="#DejaVuSans-20" x="2738.863281"/>
     <use xlink:href="#DejaVuSans-44" x="2770.650391"/>
     <use xlink:href="#DejaVuSans-61" x="2847.652344"/>
     <use xlink:href="#DejaVuSans-74" x="2908.931641"/>
     <use xlink:href="#DejaVuSans-61" x="2948.140625"/>
    </g>
   </g>
   <g id="legend_1">
    <g id="patch_7">
     <path d="M 252.839063 74.3525 
L 409.482813 74.3525 
Q 411.482813 74.3525 411.482813 72.3525 
L 411.482813 29.318125 
Q 411.482813 27.318125 409.482813 27.318125 
L 252.839063 27.318125 
Q 250.839063 27.318125 250.839063 29.318125 
L 250.839063 72.3525 
Q 250.839063 74.3525 252.839063 74.3525 
z
" style="fill: #ffffff; opacity: 0.8; stroke: #cccccc; stroke-linejoin: miter"/>
    </g>
    <g id="line2d_15">
     <path d="M 254.839063 35.416562 
L 264.839063 35.416562 
L 274.839063 35.416562 
" style="fill: none; stroke: #1f77b4; stroke-width: 1.5; stroke-linecap: square"/>
    </g>
    <g id="text_17">
     <!-- Rotated Spirometry Data -->
     <g transform="translate(282.839063 38.916562) scale(0.1 -0.1)">
      <use xlink:href="#DejaVuSans-52"/>
      <use xlink:href="#DejaVuSans-6f" x="64.982422"/>
      <use xlink:href="#DejaVuSans-74" x="126.164062"/>
      <use xlink:href="#DejaVuSans-61" x="165.373047"/>
      <use xlink:href="#DejaVuSans-74" x="226.652344"/>
      <use xlink:href="#DejaVuSans-65" x="265.861328"/>
      <use xlink:href="#DejaVuSans-64" x="327.384766"/>
      <use xlink:href="#DejaVuSans-20" x="390.861328"/>
      <use xlink:href="#DejaVuSans-53" x="422.648438"/>
      <use xlink:href="#DejaVuSans-70" x="486.125"/>
      <use xlink:href="#DejaVuSans-69" x="549.601562"/>
      <use xlink:href="#DejaVuSans-72" x="577.384766"/>
      <use xlink:href="#DejaVuSans-6f" x="616.248047"/>
      <use xlink:href="#DejaVuSans-6d" x="677.429688"/>
      <use xlink:href="#DejaVuSans-65" x="774.841797"/>
      <use xlink:href="#DejaVuSans-74" x="836.365234"/>
      <use xlink:href="#DejaVuSans-72" x="875.574219"/>
      <use xlink:href="#DejaVuSans-79" x="916.6875"/>
      <use xlink:href="#DejaVuSans-20" x="975.867188"/>
      <use xlink:href="#DejaVuSans-44" x="1007.654297"/>
      <use xlink:href="#DejaVuSans-61" x="1084.65625"/>
      <use xlink:href="#DejaVuSans-74" x="1145.935547"/>
      <use xlink:href="#DejaVuSans-61" x="1185.144531"/>
     </g>
    </g>
    <g id="PathCollection_3">
     <g>
      <use xlink:href="#meadf0e2a86" x="264.839063" y="50.969688" style="fill: #1f77b4; stroke: #1f77b4"/>
     </g>
    </g>
    <g id="text_18">
     <!-- Local Minimums -->
     <g transform="translate(282.839063 53.594688) scale(0.1 -0.1)">
      <use xlink:href="#DejaVuSans-4c"/>
      <use xlink:href="#DejaVuSans-6f" x="53.962891"/>
      <use xlink:href="#DejaVuSans-63" x="115.144531"/>
      <use xlink:href="#DejaVuSans-61" x="170.125"/>
      <use xlink:href="#DejaVuSans-6c" x="231.404297"/>
      <use xlink:href="#DejaVuSans-20" x="259.1875"/>
      <use xlink:href="#DejaVuSans-4d" x="290.974609"/>
      <use xlink:href="#DejaVuSans-69" x="377.253906"/>
      <use xlink:href="#DejaVuSans-6e" x="405.037109"/>
      <use xlink:href="#DejaVuSans-69" x="468.416016"/>
      <use xlink:href="#DejaVuSans-6d" x="496.199219"/>
      <use xlink:href="#DejaVuSans-75" x="593.611328"/>
      <use xlink:href="#DejaVuSans-6d" x="656.990234"/>
      <use xlink:href="#DejaVuSans-73" x="754.402344"/>
     </g>
    </g>
    <g id="PathCollection_4">
     <g>
      <use xlink:href="#ma6d800c5f4" x="264.839063" y="65.647812" style="fill: #ff7f0e; stroke: #ff7f0e"/>
     </g>
    </g>
    <g id="text_19">
     <!-- Local Maximums -->
     <g transform="translate(282.839063 68.272812) scale(0.1 -0.1)">
      <use xlink:href="#DejaVuSans-4c"/>
      <use xlink:href="#DejaVuSans-6f" x="53.962891"/>
      <use xlink:href="#DejaVuSans-63" x="115.144531"/>
      <use xlink:href="#DejaVuSans-61" x="170.125"/>
      <use xlink:href="#DejaVuSans-6c" x="231.404297"/>
      <use xlink:href="#DejaVuSans-20" x="259.1875"/>
      <use xlink:href="#DejaVuSans-4d" x="290.974609"/>
      <use xlink:href="#DejaVuSans-61" x="377.253906"/>
      <use xlink:href="#DejaVuSans-78" x="438.533203"/>
      <use xlink:href="#DejaVuSans-69" x="497.712891"/>
      <use xlink:href="#DejaVuSans-6d" x="525.496094"/>
      <use xlink:href="#DejaVuSans-75" x="622.908203"/>
      <use xlink:href="#DejaVuSans-6d" x="686.287109"/>
      <use xlink:href="#DejaVuSans-73" x="783.699219"/>
     </g>
    </g>
   </g>
  </g>
 </g>
 <defs>
  <clipPath id="p8011ef167c">
   <rect x="52.160938" y="22.318125" width="558" height="277.2"/>
  </clipPath>
 </defs>
</svg>
