<?xml version="1.0" encoding="utf-8" standalone="no"?>
<!DOCTYPE svg PUBLIC "-//W3C//DTD SVG 1.1//EN"
  "http://www.w3.org/Graphics/SVG/1.1/DTD/svg11.dtd">
<svg xmlns:xlink="http://www.w3.org/1999/xlink" width="394.160937pt" height="281.634375pt" viewBox="0 0 394.160937 281.634375" xmlns="http://www.w3.org/2000/svg" version="1.1">
 <metadata>
  <rdf:RDF xmlns:dc="http://purl.org/dc/elements/1.1/" xmlns:cc="http://creativecommons.org/ns#" xmlns:rdf="http://www.w3.org/1999/02/22-rdf-syntax-ns#">
   <cc:Work>
    <dc:type rdf:resource="http://purl.org/dc/dcmitype/StillImage"/>
    <dc:date>2022-12-17T22:13:08.569336</dc:date>
    <dc:format>image/svg+xml</dc:format>
    <dc:creator>
     <cc:Agent>
      <dc:title>Matplotlib v3.6.2, https://matplotlib.org/</dc:title>
     </cc:Agent>
    </dc:creator>
   </cc:Work>
  </rdf:RDF>
 </metadata>
 <defs>
  <style type="text/css">*{stroke-linejoin: round; stroke-linecap: butt}</style>
 </defs>
 <g id="figure_1">
  <g id="patch_1">
   <path d="M 0 281.634375 
L 394.160937 281.634375 
L 394.160937 0 
L 0 0 
z
" style="fill: #ffffff"/>
  </g>
  <g id="axes_1">
   <g id="patch_2">
    <path d="M 52.160938 244.078125 
L 386.960938 244.078125 
L 386.960938 22.318125 
L 52.160938 22.318125 
z
" style="fill: #ffffff"/>
   </g>
   <g id="PathCollection_1">
    <defs>
     <path id="m8803492c2d" d="M 0 3 
C 0.795609 3 1.55874 2.683901 2.12132 2.12132 
C 2.683901 1.55874 3 0.795609 3 0 
C 3 -0.795609 2.683901 -1.55874 2.12132 -2.12132 
C 1.55874 -2.683901 0.795609 -3 0 -3 
C -0.795609 -3 -1.55874 -2.683901 -2.12132 -2.12132 
C -2.683901 -1.55874 -3 -0.795609 -3 0 
C -3 0.795609 -2.683901 1.55874 -2.12132 2.12132 
C -1.55874 2.683901 -0.795609 3 0 3 
z
" style="stroke: #1f77b4"/>
    </defs>
    <g clip-path="url(#pc2ffb46dac)">
     <use xlink:href="#m8803492c2d" x="78.797025" y="148.843961" style="fill: #1f77b4; stroke: #1f77b4"/>
     <use xlink:href="#m8803492c2d" x="109.476548" y="203.325864" style="fill: #1f77b4; stroke: #1f77b4"/>
     <use xlink:href="#m8803492c2d" x="143.989513" y="221.611674" style="fill: #1f77b4; stroke: #1f77b4"/>
     <use xlink:href="#m8803492c2d" x="178.167348" y="228.172229" style="fill: #1f77b4; stroke: #1f77b4"/>
     <use xlink:href="#m8803492c2d" x="214.40106" y="233.048459" style="fill: #1f77b4; stroke: #1f77b4"/>
     <use xlink:href="#m8803492c2d" x="252.183694" y="218.94179" style="fill: #1f77b4; stroke: #1f77b4"/>
     <use xlink:href="#m8803492c2d" x="286.33389" y="227.379548" style="fill: #1f77b4; stroke: #1f77b4"/>
     <use xlink:href="#m8803492c2d" x="322.883014" y="210.833734" style="fill: #1f77b4; stroke: #1f77b4"/>
     <use xlink:href="#m8803492c2d" x="362.022103" y="208.059312" style="fill: #1f77b4; stroke: #1f77b4"/>
    </g>
   </g>
   <g id="matplotlib.axis_1">
    <g id="xtick_1">
     <g id="line2d_1">
      <defs>
       <path id="m0cca3b0b23" d="M 0 0 
L 0 3.5 
" style="stroke: #000000; stroke-width: 0.8"/>
      </defs>
      <g>
       <use xlink:href="#m0cca3b0b23" x="67.130348" y="244.078125" style="stroke: #000000; stroke-width: 0.8"/>
      </g>
     </g>
     <g id="text_1">
      <!-- 0 -->
      <g transform="translate(63.949098 258.676562) scale(0.1 -0.1)">
       <defs>
        <path id="DejaVuSans-30" d="M 2034 4250 
Q 1547 4250 1301 3770 
Q 1056 3291 1056 2328 
Q 1056 1369 1301 889 
Q 1547 409 2034 409 
Q 2525 409 2770 889 
Q 3016 1369 3016 2328 
Q 3016 3291 2770 3770 
Q 2525 4250 2034 4250 
z
M 2034 4750 
Q 2819 4750 3233 4129 
Q 3647 3509 3647 2328 
Q 3647 1150 3233 529 
Q 2819 -91 2034 -91 
Q 1250 -91 836 529 
Q 422 1150 422 2328 
Q 422 3509 836 4129 
Q 1250 4750 2034 4750 
z
" transform="scale(0.015625)"/>
       </defs>
       <use xlink:href="#DejaVuSans-30"/>
      </g>
     </g>
    </g>
    <g id="xtick_2">
     <g id="line2d_2">
      <g>
       <use xlink:href="#m0cca3b0b23" x="140.525102" y="244.078125" style="stroke: #000000; stroke-width: 0.8"/>
      </g>
     </g>
     <g id="text_2">
      <!-- 5 -->
      <g transform="translate(137.343852 258.676562) scale(0.1 -0.1)">
       <defs>
        <path id="DejaVuSans-35" d="M 691 4666 
L 3169 4666 
L 3169 4134 
L 1269 4134 
L 1269 2991 
Q 1406 3038 1543 3061 
Q 1681 3084 1819 3084 
Q 2600 3084 3056 2656 
Q 3513 2228 3513 1497 
Q 3513 744 3044 326 
Q 2575 -91 1722 -91 
Q 1428 -91 1123 -41 
Q 819 9 494 109 
L 494 744 
Q 775 591 1075 516 
Q 1375 441 1709 441 
Q 2250 441 2565 725 
Q 2881 1009 2881 1497 
Q 2881 1984 2565 2268 
Q 2250 2553 1709 2553 
Q 1456 2553 1204 2497 
Q 953 2441 691 2322 
L 691 4666 
z
" transform="scale(0.015625)"/>
       </defs>
       <use xlink:href="#DejaVuSans-35"/>
      </g>
     </g>
    </g>
    <g id="xtick_3">
     <g id="line2d_3">
      <g>
       <use xlink:href="#m0cca3b0b23" x="213.919857" y="244.078125" style="stroke: #000000; stroke-width: 0.8"/>
      </g>
     </g>
     <g id="text_3">
      <!-- 10 -->
      <g transform="translate(207.557357 258.676562) scale(0.1 -0.1)">
       <defs>
        <path id="DejaVuSans-31" d="M 794 531 
L 1825 531 
L 1825 4091 
L 703 3866 
L 703 4441 
L 1819 4666 
L 2450 4666 
L 2450 531 
L 3481 531 
L 3481 0 
L 794 0 
L 794 531 
z
" transform="scale(0.015625)"/>
       </defs>
       <use xlink:href="#DejaVuSans-31"/>
       <use xlink:href="#DejaVuSans-30" x="63.623047"/>
      </g>
     </g>
    </g>
    <g id="xtick_4">
     <g id="line2d_4">
      <g>
       <use xlink:href="#m0cca3b0b23" x="287.314612" y="244.078125" style="stroke: #000000; stroke-width: 0.8"/>
      </g>
     </g>
     <g id="text_4">
      <!-- 15 -->
      <g transform="translate(280.952112 258.676562) scale(0.1 -0.1)">
       <use xlink:href="#DejaVuSans-31"/>
       <use xlink:href="#DejaVuSans-35" x="63.623047"/>
      </g>
     </g>
    </g>
    <g id="xtick_5">
     <g id="line2d_5">
      <g>
       <use xlink:href="#m0cca3b0b23" x="360.709367" y="244.078125" style="stroke: #000000; stroke-width: 0.8"/>
      </g>
     </g>
     <g id="text_5">
      <!-- 20 -->
      <g transform="translate(354.346867 258.676562) scale(0.1 -0.1)">
       <defs>
        <path id="DejaVuSans-32" d="M 1228 531 
L 3431 531 
L 3431 0 
L 469 0 
L 469 531 
Q 828 903 1448 1529 
Q 2069 2156 2228 2338 
Q 2531 2678 2651 2914 
Q 2772 3150 2772 3378 
Q 2772 3750 2511 3984 
Q 2250 4219 1831 4219 
Q 1534 4219 1204 4116 
Q 875 4013 500 3803 
L 500 4441 
Q 881 4594 1212 4672 
Q 1544 4750 1819 4750 
Q 2544 4750 2975 4387 
Q 3406 4025 3406 3419 
Q 3406 3131 3298 2873 
Q 3191 2616 2906 2266 
Q 2828 2175 2409 1742 
Q 1991 1309 1228 531 
z
" transform="scale(0.015625)"/>
       </defs>
       <use xlink:href="#DejaVuSans-32"/>
       <use xlink:href="#DejaVuSans-30" x="63.623047"/>
      </g>
     </g>
    </g>
    <g id="text_6">
     <!-- Time (s) -->
     <g transform="translate(199.232031 272.354687) scale(0.1 -0.1)">
      <defs>
       <path id="DejaVuSans-54" d="M -19 4666 
L 3928 4666 
L 3928 4134 
L 2272 4134 
L 2272 0 
L 1638 0 
L 1638 4134 
L -19 4134 
L -19 4666 
z
" transform="scale(0.015625)"/>
       <path id="DejaVuSans-69" d="M 603 3500 
L 1178 3500 
L 1178 0 
L 603 0 
L 603 3500 
z
M 603 4863 
L 1178 4863 
L 1178 4134 
L 603 4134 
L 603 4863 
z
" transform="scale(0.015625)"/>
       <path id="DejaVuSans-6d" d="M 3328 2828 
Q 3544 3216 3844 3400 
Q 4144 3584 4550 3584 
Q 5097 3584 5394 3201 
Q 5691 2819 5691 2113 
L 5691 0 
L 5113 0 
L 5113 2094 
Q 5113 2597 4934 2840 
Q 4756 3084 4391 3084 
Q 3944 3084 3684 2787 
Q 3425 2491 3425 1978 
L 3425 0 
L 2847 0 
L 2847 2094 
Q 2847 2600 2669 2842 
Q 2491 3084 2119 3084 
Q 1678 3084 1418 2786 
Q 1159 2488 1159 1978 
L 1159 0 
L 581 0 
L 581 3500 
L 1159 3500 
L 1159 2956 
Q 1356 3278 1631 3431 
Q 1906 3584 2284 3584 
Q 2666 3584 2933 3390 
Q 3200 3197 3328 2828 
z
" transform="scale(0.015625)"/>
       <path id="DejaVuSans-65" d="M 3597 1894 
L 3597 1613 
L 953 1613 
Q 991 1019 1311 708 
Q 1631 397 2203 397 
Q 2534 397 2845 478 
Q 3156 559 3463 722 
L 3463 178 
Q 3153 47 2828 -22 
Q 2503 -91 2169 -91 
Q 1331 -91 842 396 
Q 353 884 353 1716 
Q 353 2575 817 3079 
Q 1281 3584 2069 3584 
Q 2775 3584 3186 3129 
Q 3597 2675 3597 1894 
z
M 3022 2063 
Q 3016 2534 2758 2815 
Q 2500 3097 2075 3097 
Q 1594 3097 1305 2825 
Q 1016 2553 972 2059 
L 3022 2063 
z
" transform="scale(0.015625)"/>
       <path id="DejaVuSans-20" transform="scale(0.015625)"/>
       <path id="DejaVuSans-28" d="M 1984 4856 
Q 1566 4138 1362 3434 
Q 1159 2731 1159 2009 
Q 1159 1288 1364 580 
Q 1569 -128 1984 -844 
L 1484 -844 
Q 1016 -109 783 600 
Q 550 1309 550 2009 
Q 550 2706 781 3412 
Q 1013 4119 1484 4856 
L 1984 4856 
z
" transform="scale(0.015625)"/>
       <path id="DejaVuSans-73" d="M 2834 3397 
L 2834 2853 
Q 2591 2978 2328 3040 
Q 2066 3103 1784 3103 
Q 1356 3103 1142 2972 
Q 928 2841 928 2578 
Q 928 2378 1081 2264 
Q 1234 2150 1697 2047 
L 1894 2003 
Q 2506 1872 2764 1633 
Q 3022 1394 3022 966 
Q 3022 478 2636 193 
Q 2250 -91 1575 -91 
Q 1294 -91 989 -36 
Q 684 19 347 128 
L 347 722 
Q 666 556 975 473 
Q 1284 391 1588 391 
Q 1994 391 2212 530 
Q 2431 669 2431 922 
Q 2431 1156 2273 1281 
Q 2116 1406 1581 1522 
L 1381 1569 
Q 847 1681 609 1914 
Q 372 2147 372 2553 
Q 372 3047 722 3315 
Q 1072 3584 1716 3584 
Q 2034 3584 2315 3537 
Q 2597 3491 2834 3397 
z
" transform="scale(0.015625)"/>
       <path id="DejaVuSans-29" d="M 513 4856 
L 1013 4856 
Q 1481 4119 1714 3412 
Q 1947 2706 1947 2009 
Q 1947 1309 1714 600 
Q 1481 -109 1013 -844 
L 513 -844 
Q 928 -128 1133 580 
Q 1338 1288 1338 2009 
Q 1338 2731 1133 3434 
Q 928 4138 513 4856 
z
" transform="scale(0.015625)"/>
      </defs>
      <use xlink:href="#DejaVuSans-54"/>
      <use xlink:href="#DejaVuSans-69" x="57.958984"/>
      <use xlink:href="#DejaVuSans-6d" x="85.742188"/>
      <use xlink:href="#DejaVuSans-65" x="183.154297"/>
      <use xlink:href="#DejaVuSans-20" x="244.677734"/>
      <use xlink:href="#DejaVuSans-28" x="276.464844"/>
      <use xlink:href="#DejaVuSans-73" x="315.478516"/>
      <use xlink:href="#DejaVuSans-29" x="367.578125"/>
     </g>
    </g>
   </g>
   <g id="matplotlib.axis_2">
    <g id="ytick_1">
     <g id="line2d_6">
      <defs>
       <path id="m5f3cc43d1c" d="M 0 0 
L -3.5 0 
" style="stroke: #000000; stroke-width: 0.8"/>
      </defs>
      <g>
       <use xlink:href="#m5f3cc43d1c" x="52.160938" y="217.271085" style="stroke: #000000; stroke-width: 0.8"/>
      </g>
     </g>
     <g id="text_7">
      <!-- −0.5 -->
      <g transform="translate(20.878125 221.070304) scale(0.1 -0.1)">
       <defs>
        <path id="DejaVuSans-2212" d="M 678 2272 
L 4684 2272 
L 4684 1741 
L 678 1741 
L 678 2272 
z
" transform="scale(0.015625)"/>
        <path id="DejaVuSans-2e" d="M 684 794 
L 1344 794 
L 1344 0 
L 684 0 
L 684 794 
z
" transform="scale(0.015625)"/>
       </defs>
       <use xlink:href="#DejaVuSans-2212"/>
       <use xlink:href="#DejaVuSans-30" x="83.789062"/>
       <use xlink:href="#DejaVuSans-2e" x="147.412109"/>
       <use xlink:href="#DejaVuSans-35" x="179.199219"/>
      </g>
     </g>
    </g>
    <g id="ytick_2">
     <g id="line2d_7">
      <g>
       <use xlink:href="#m5f3cc43d1c" x="52.160938" y="189.627837" style="stroke: #000000; stroke-width: 0.8"/>
      </g>
     </g>
     <g id="text_8">
      <!-- −0.4 -->
      <g transform="translate(20.878125 193.427055) scale(0.1 -0.1)">
       <defs>
        <path id="DejaVuSans-34" d="M 2419 4116 
L 825 1625 
L 2419 1625 
L 2419 4116 
z
M 2253 4666 
L 3047 4666 
L 3047 1625 
L 3713 1625 
L 3713 1100 
L 3047 1100 
L 3047 0 
L 2419 0 
L 2419 1100 
L 313 1100 
L 313 1709 
L 2253 4666 
z
" transform="scale(0.015625)"/>
       </defs>
       <use xlink:href="#DejaVuSans-2212"/>
       <use xlink:href="#DejaVuSans-30" x="83.789062"/>
       <use xlink:href="#DejaVuSans-2e" x="147.412109"/>
       <use xlink:href="#DejaVuSans-34" x="179.199219"/>
      </g>
     </g>
    </g>
    <g id="ytick_3">
     <g id="line2d_8">
      <g>
       <use xlink:href="#m5f3cc43d1c" x="52.160938" y="161.984588" style="stroke: #000000; stroke-width: 0.8"/>
      </g>
     </g>
     <g id="text_9">
      <!-- −0.3 -->
      <g transform="translate(20.878125 165.783807) scale(0.1 -0.1)">
       <defs>
        <path id="DejaVuSans-33" d="M 2597 2516 
Q 3050 2419 3304 2112 
Q 3559 1806 3559 1356 
Q 3559 666 3084 287 
Q 2609 -91 1734 -91 
Q 1441 -91 1130 -33 
Q 819 25 488 141 
L 488 750 
Q 750 597 1062 519 
Q 1375 441 1716 441 
Q 2309 441 2620 675 
Q 2931 909 2931 1356 
Q 2931 1769 2642 2001 
Q 2353 2234 1838 2234 
L 1294 2234 
L 1294 2753 
L 1863 2753 
Q 2328 2753 2575 2939 
Q 2822 3125 2822 3475 
Q 2822 3834 2567 4026 
Q 2313 4219 1838 4219 
Q 1578 4219 1281 4162 
Q 984 4106 628 3988 
L 628 4550 
Q 988 4650 1302 4700 
Q 1616 4750 1894 4750 
Q 2613 4750 3031 4423 
Q 3450 4097 3450 3541 
Q 3450 3153 3228 2886 
Q 3006 2619 2597 2516 
z
" transform="scale(0.015625)"/>
       </defs>
       <use xlink:href="#DejaVuSans-2212"/>
       <use xlink:href="#DejaVuSans-30" x="83.789062"/>
       <use xlink:href="#DejaVuSans-2e" x="147.412109"/>
       <use xlink:href="#DejaVuSans-33" x="179.199219"/>
      </g>
     </g>
    </g>
    <g id="ytick_4">
     <g id="line2d_9">
      <g>
       <use xlink:href="#m5f3cc43d1c" x="52.160938" y="134.34134" style="stroke: #000000; stroke-width: 0.8"/>
      </g>
     </g>
     <g id="text_10">
      <!-- −0.2 -->
      <g transform="translate(20.878125 138.140558) scale(0.1 -0.1)">
       <use xlink:href="#DejaVuSans-2212"/>
       <use xlink:href="#DejaVuSans-30" x="83.789062"/>
       <use xlink:href="#DejaVuSans-2e" x="147.412109"/>
       <use xlink:href="#DejaVuSans-32" x="179.199219"/>
      </g>
     </g>
    </g>
    <g id="ytick_5">
     <g id="line2d_10">
      <g>
       <use xlink:href="#m5f3cc43d1c" x="52.160938" y="106.698091" style="stroke: #000000; stroke-width: 0.8"/>
      </g>
     </g>
     <g id="text_11">
      <!-- −0.1 -->
      <g transform="translate(20.878125 110.49731) scale(0.1 -0.1)">
       <use xlink:href="#DejaVuSans-2212"/>
       <use xlink:href="#DejaVuSans-30" x="83.789062"/>
       <use xlink:href="#DejaVuSans-2e" x="147.412109"/>
       <use xlink:href="#DejaVuSans-31" x="179.199219"/>
      </g>
     </g>
    </g>
    <g id="ytick_6">
     <g id="line2d_11">
      <g>
       <use xlink:href="#m5f3cc43d1c" x="52.160938" y="79.054843" style="stroke: #000000; stroke-width: 0.8"/>
      </g>
     </g>
     <g id="text_12">
      <!-- 0.0 -->
      <g transform="translate(29.257812 82.854061) scale(0.1 -0.1)">
       <use xlink:href="#DejaVuSans-30"/>
       <use xlink:href="#DejaVuSans-2e" x="63.623047"/>
       <use xlink:href="#DejaVuSans-30" x="95.410156"/>
      </g>
     </g>
    </g>
    <g id="ytick_7">
     <g id="line2d_12">
      <g>
       <use xlink:href="#m5f3cc43d1c" x="52.160938" y="51.411594" style="stroke: #000000; stroke-width: 0.8"/>
      </g>
     </g>
     <g id="text_13">
      <!-- 0.1 -->
      <g transform="translate(29.257812 55.210813) scale(0.1 -0.1)">
       <use xlink:href="#DejaVuSans-30"/>
       <use xlink:href="#DejaVuSans-2e" x="63.623047"/>
       <use xlink:href="#DejaVuSans-31" x="95.410156"/>
      </g>
     </g>
    </g>
    <g id="ytick_8">
     <g id="line2d_13">
      <g>
       <use xlink:href="#m5f3cc43d1c" x="52.160938" y="23.768346" style="stroke: #000000; stroke-width: 0.8"/>
      </g>
     </g>
     <g id="text_14">
      <!-- 0.2 -->
      <g transform="translate(29.257812 27.567565) scale(0.1 -0.1)">
       <use xlink:href="#DejaVuSans-30"/>
       <use xlink:href="#DejaVuSans-2e" x="63.623047"/>
       <use xlink:href="#DejaVuSans-32" x="95.410156"/>
      </g>
     </g>
    </g>
    <g id="text_15">
     <!-- Lung Volume (L) -->
     <g transform="translate(14.798437 173.870781) rotate(-90) scale(0.1 -0.1)">
      <defs>
       <path id="DejaVuSans-4c" d="M 628 4666 
L 1259 4666 
L 1259 531 
L 3531 531 
L 3531 0 
L 628 0 
L 628 4666 
z
" transform="scale(0.015625)"/>
       <path id="DejaVuSans-75" d="M 544 1381 
L 544 3500 
L 1119 3500 
L 1119 1403 
Q 1119 906 1312 657 
Q 1506 409 1894 409 
Q 2359 409 2629 706 
Q 2900 1003 2900 1516 
L 2900 3500 
L 3475 3500 
L 3475 0 
L 2900 0 
L 2900 538 
Q 2691 219 2414 64 
Q 2138 -91 1772 -91 
Q 1169 -91 856 284 
Q 544 659 544 1381 
z
M 1991 3584 
L 1991 3584 
z
" transform="scale(0.015625)"/>
       <path id="DejaVuSans-6e" d="M 3513 2113 
L 3513 0 
L 2938 0 
L 2938 2094 
Q 2938 2591 2744 2837 
Q 2550 3084 2163 3084 
Q 1697 3084 1428 2787 
Q 1159 2491 1159 1978 
L 1159 0 
L 581 0 
L 581 3500 
L 1159 3500 
L 1159 2956 
Q 1366 3272 1645 3428 
Q 1925 3584 2291 3584 
Q 2894 3584 3203 3211 
Q 3513 2838 3513 2113 
z
" transform="scale(0.015625)"/>
       <path id="DejaVuSans-67" d="M 2906 1791 
Q 2906 2416 2648 2759 
Q 2391 3103 1925 3103 
Q 1463 3103 1205 2759 
Q 947 2416 947 1791 
Q 947 1169 1205 825 
Q 1463 481 1925 481 
Q 2391 481 2648 825 
Q 2906 1169 2906 1791 
z
M 3481 434 
Q 3481 -459 3084 -895 
Q 2688 -1331 1869 -1331 
Q 1566 -1331 1297 -1286 
Q 1028 -1241 775 -1147 
L 775 -588 
Q 1028 -725 1275 -790 
Q 1522 -856 1778 -856 
Q 2344 -856 2625 -561 
Q 2906 -266 2906 331 
L 2906 616 
Q 2728 306 2450 153 
Q 2172 0 1784 0 
Q 1141 0 747 490 
Q 353 981 353 1791 
Q 353 2603 747 3093 
Q 1141 3584 1784 3584 
Q 2172 3584 2450 3431 
Q 2728 3278 2906 2969 
L 2906 3500 
L 3481 3500 
L 3481 434 
z
" transform="scale(0.015625)"/>
       <path id="DejaVuSans-56" d="M 1831 0 
L 50 4666 
L 709 4666 
L 2188 738 
L 3669 4666 
L 4325 4666 
L 2547 0 
L 1831 0 
z
" transform="scale(0.015625)"/>
       <path id="DejaVuSans-6f" d="M 1959 3097 
Q 1497 3097 1228 2736 
Q 959 2375 959 1747 
Q 959 1119 1226 758 
Q 1494 397 1959 397 
Q 2419 397 2687 759 
Q 2956 1122 2956 1747 
Q 2956 2369 2687 2733 
Q 2419 3097 1959 3097 
z
M 1959 3584 
Q 2709 3584 3137 3096 
Q 3566 2609 3566 1747 
Q 3566 888 3137 398 
Q 2709 -91 1959 -91 
Q 1206 -91 779 398 
Q 353 888 353 1747 
Q 353 2609 779 3096 
Q 1206 3584 1959 3584 
z
" transform="scale(0.015625)"/>
       <path id="DejaVuSans-6c" d="M 603 4863 
L 1178 4863 
L 1178 0 
L 603 0 
L 603 4863 
z
" transform="scale(0.015625)"/>
      </defs>
      <use xlink:href="#DejaVuSans-4c"/>
      <use xlink:href="#DejaVuSans-75" x="53.962891"/>
      <use xlink:href="#DejaVuSans-6e" x="117.341797"/>
      <use xlink:href="#DejaVuSans-67" x="180.720703"/>
      <use xlink:href="#DejaVuSans-20" x="244.197266"/>
      <use xlink:href="#DejaVuSans-56" x="275.984375"/>
      <use xlink:href="#DejaVuSans-6f" x="336.642578"/>
      <use xlink:href="#DejaVuSans-6c" x="397.824219"/>
      <use xlink:href="#DejaVuSans-75" x="425.607422"/>
      <use xlink:href="#DejaVuSans-6d" x="488.986328"/>
      <use xlink:href="#DejaVuSans-65" x="586.398438"/>
      <use xlink:href="#DejaVuSans-20" x="647.921875"/>
      <use xlink:href="#DejaVuSans-28" x="679.708984"/>
      <use xlink:href="#DejaVuSans-4c" x="718.722656"/>
      <use xlink:href="#DejaVuSans-29" x="774.435547"/>
     </g>
    </g>
   </g>
   <g id="line2d_14">
    <path d="M 67.379119 79.402113 
L 68.12769 80.290682 
L 68.371716 80.960286 
L 68.847435 83.137037 
L 70.482246 92.807247 
L 71.633072 100.862149 
L 74.124305 121.339158 
L 76.128402 140.41487 
L 76.829202 144.547922 
L 77.548013 147.457688 
L 77.795851 147.868368 
L 78.302302 147.95787 
L 78.551405 148.282682 
L 79.045486 149.212368 
L 79.302815 148.978379 
L 79.574072 147.798522 
L 80.149554 143.19964 
L 81.34578 130.927807 
L 82.88132 112.853787 
L 83.444762 109.072631 
L 83.710651 108.257382 
L 84.225952 107.745809 
L 84.490887 106.995292 
L 85.057811 102.977669 
L 86.235345 91.97536 
L 87.194178 78.583446 
L 87.816166 70.825949 
L 88.395733 65.949648 
L 90.347882 54.06703 
L 91.168965 50.030748 
L 91.437071 49.0649 
L 91.721651 46.980129 
L 92.611434 38.277921 
L 93.16729 35.011972 
L 93.697491 33.488479 
L 94.217228 32.675709 
L 94.475199 32.398125 
L 94.728425 32.442876 
L 95.224432 33.241778 
L 95.474798 33.480723 
L 95.716937 34.278469 
L 96.40313 39.403625 
L 96.646844 40.094366 
L 96.882642 41.322772 
L 97.322883 45.909107 
L 97.731148 52.667237 
L 98.451726 72.700207 
L 99.704079 108.346098 
L 100.143056 113.0183 
L 101.053648 120.145994 
L 101.921157 130.1998 
L 103.639759 151.422371 
L 103.874935 152.693051 
L 104.31362 157.385069 
L 104.728226 163.712539 
L 105.328291 174.687277 
L 105.767618 179.3357 
L 106.237346 181.919333 
L 106.485184 182.330013 
L 106.737126 182.461953 
L 106.999202 181.905629 
L 107.535413 179.973934 
L 107.783251 180.384614 
L 108.013681 181.977629 
L 108.432099 188.046174 
L 109.250884 201.409194 
L 109.476548 203.325864 
L 109.715516 204.33894 
L 109.976347 203.867163 
L 110.545819 199.676483 
L 111.137095 194.004914 
L 112.073112 182.162585 
L 113.547286 168.256457 
L 115.060049 151.729378 
L 116.326881 134.662157 
L 117.31456 119.311136 
L 118.217997 109.681555 
L 119.425329 96.655407 
L 120.320792 87.567454 
L 120.602182 85.699333 
L 120.869957 84.755944 
L 121.126976 84.543091 
L 121.381777 84.480838 
L 121.903108 83.559741 
L 122.155692 83.648087 
L 122.40353 84.058767 
L 122.661502 83.781183 
L 122.937835 82.256534 
L 124.944388 66.678957 
L 125.218503 65.304907 
L 125.745826 63.976929 
L 126.026594 62.151082 
L 126.907215 54.071086 
L 127.472213 50.184246 
L 128.3031 45.482158 
L 129.15614 39.275402 
L 129.422651 38.41788 
L 129.674282 38.570957 
L 129.917043 39.326429 
L 130.150624 40.705434 
L 130.78994 49.014305 
L 131.570407 64.979781 
L 132.111284 79.974455 
L 132.818617 100.907055 
L 133.424069 111.515863 
L 134.084937 118.361018 
L 134.700835 128.260426 
L 136.296878 157.806894 
L 136.720995 163.488374 
L 136.946017 165.448638 
L 137.186872 166.333573 
L 137.43438 166.766711 
L 137.672395 167.844518 
L 138.114562 172.300069 
L 138.738979 181.62086 
L 139.372577 190.318118 
L 139.824858 194.086727 
L 140.074291 194.389081 
L 140.338915 193.6597 
L 140.884929 191.0622 
L 141.165697 189.236353 
L 141.433472 188.292963 
L 141.680027 188.790832 
L 141.905691 190.707502 
L 142.511455 201.295174 
L 143.109944 212.376916 
L 143.754357 220.339673 
L 143.989513 221.611674 
L 144.240502 221.808345 
L 144.498143 221.553219 
L 144.764031 220.737971 
L 146.457508 209.180494 
L 147.258615 206.500924 
L 147.848005 200.957495 
L 148.46622 193.45628 
L 149.786541 172.756189 
L 150.786532 156.568948 
L 151.388603 150.164199 
L 153.731942 128.956169 
L 154.940499 115.846795 
L 156.491542 96.719902 
L 157.079647 91.263663 
L 157.631361 88.279096 
L 158.163759 86.606326 
L 158.675599 86.329899 
L 158.935457 85.924174 
L 159.443484 85.906671 
L 159.706513 85.285616 
L 160.237959 83.677577 
L 160.494024 83.529456 
L 160.744702 83.747263 
L 160.985888 84.60974 
L 161.916145 90.401859 
L 162.156378 91.329067 
L 162.38743 92.879808 
L 162.817557 98.153085 
L 163.221406 105.211093 
L 164.013583 120.3813 
L 166.236688 159.068897 
L 166.663664 164.556184 
L 167.117541 168.216467 
L 168.038597 174.633439 
L 169.109325 188.128399 
L 169.57174 191.208743 
L 170.466188 199.432903 
L 170.946634 201.288641 
L 171.432487 202.777128 
L 171.68476 202.88661 
L 171.943685 202.544295 
L 172.188352 203.170306 
L 173.096397 210.471056 
L 173.58826 211.551341 
L 173.840844 211.639686 
L 174.101986 211.146773 
L 174.370092 210.180925 
L 175.205763 205.15386 
L 175.458658 205.221069 
L 175.698249 206.191872 
L 176.149286 210.045027 
L 177.232364 222.701124 
L 178.167348 228.172229 
L 178.415186 228.582909 
L 178.673469 228.284189 
L 178.946942 226.953734 
L 179.242901 224.096152 
L 180.217548 209.63023 
L 181.169398 196.712571 
L 186.175784 149.825935 
L 187.040261 142.842405 
L 187.92028 134.803361 
L 188.48627 130.849148 
L 189.377026 122.080888 
L 190.909765 104.197097 
L 191.484275 99.664267 
L 191.749832 98.871477 
L 192.008115 98.572756 
L 192.259746 98.725833 
L 192.503771 99.395437 
L 192.736399 100.839174 
L 193.606767 110.698786 
L 193.839084 112.163659 
L 194.094216 112.078947 
L 195.204314 105.656696 
L 195.465456 105.163782 
L 195.722805 104.928472 
L 195.986476 104.263823 
L 196.262498 102.76031 
L 197.121277 96.163846 
L 197.386542 95.390871 
L 197.63438 95.801551 
L 197.869867 97.051094 
L 198.54435 102.971518 
L 198.785847 103.812859 
L 199.039365 103.837794 
L 199.3043 103.087277 
L 200.117486 99.587338 
L 200.379581 99.029693 
L 200.637242 98.773247 
L 200.888873 98.926323 
L 201.132898 99.595928 
L 201.367432 100.910202 
L 201.802947 105.81755 
L 202.654643 116.945364 
L 204.19541 133.00282 
L 205.025573 145.593029 
L 205.452199 151.104094 
L 206.652368 173.050927 
L 207.319557 179.466742 
L 207.720878 186.696486 
L 208.515875 201.675142 
L 208.982414 204.475425 
L 209.459709 206.545172 
L 209.714821 206.461782 
L 210.527035 203.027896 
L 211.401004 195.399696 
L 211.655806 195.337443 
L 211.88147 197.254112 
L 212.27359 205.108709 
L 212.853368 217.461295 
L 213.504083 224.996035 
L 214.171272 231.41185 
L 214.640962 233.998125 
L 214.903991 233.37707 
L 216.065088 223.491042 
L 217.231574 213.239085 
L 218.157458 202.08502 
L 219.773796 178.523384 
L 222.080823 142.538324 
L 224.24411 116.315777 
L 224.808505 112.469889 
L 225.607745 109.91714 
L 226.157883 107.039578 
L 227.235654 102.812901 
L 228.530258 101.102648 
L 228.780314 101.362729 
L 229.01263 102.827602 
L 230.31153 118.068817 
L 231.252544 123.130398 
L 232.154267 130.860488 
L 232.399245 131.465362 
L 232.91231 131.105709 
L 233.15476 131.882318 
L 233.607353 135.62979 
L 234.06121 139.291394 
L 234.310312 139.616206 
L 234.578418 138.650359 
L 235.691044 132.056372 
L 235.953451 131.47759 
L 236.203837 131.715214 
L 236.695097 132.836451 
L 236.935019 133.784796 
L 237.163542 135.507272 
L 237.575288 142.028936 
L 238.372561 156.85303 
L 238.820719 160.9017 
L 239.287588 163.679526 
L 239.717385 168.975261 
L 240.340246 178.401735 
L 240.575733 179.651278 
L 241.068569 180.66551 
L 241.523106 184.280878 
L 241.989956 187.060025 
L 242.241587 187.213102 
L 242.510957 186.161386 
L 243.367499 179.716842 
L 243.630839 179.07465 
L 243.870118 180.066589 
L 244.758537 188.700273 
L 245.000034 189.541613 
L 245.749266 190.385267 
L 246.021495 189.139358 
L 247.432299 179.53719 
L 247.685836 179.560805 
L 247.906442 181.820946 
L 248.517244 192.066467 
L 248.966686 196.027948 
L 249.196785 197.64342 
L 249.622166 203.239032 
L 250.046905 208.878239 
L 250.271616 210.85964 
L 250.512802 211.722117 
L 250.773302 211.272797 
L 251.306343 209.556433 
L 251.557662 209.730646 
L 251.785233 211.517853 
L 252.403348 221.266662 
L 252.678728 219.806745 
L 253.351736 208.58415 
L 254.717708 184.783569 
L 255.371382 174.874091 
L 255.664481 172.210703 
L 255.929728 171.439049 
L 256.182953 171.4838 
L 256.685923 171.809769 
L 256.93913 171.855841 
L 257.196148 171.642988 
L 257.471217 170.204207 
L 258.07041 163.994973 
L 259.920912 141.77271 
L 261.14184 127.823152 
L 262.767963 103.597031 
L 263.394094 95.558151 
L 265.030389 70.641124 
L 265.615966 65.35662 
L 265.884383 64.369636 
L 266.13792 64.39325 
L 266.38638 64.761657 
L 266.629472 65.494672 
L 267.089359 68.746752 
L 267.316287 70.577555 
L 267.557784 71.418895 
L 267.818615 70.947118 
L 268.097808 69.228275 
L 268.977788 61.191873 
L 269.242723 60.441356 
L 269.475992 61.841498 
L 269.876962 69.09502 
L 270.450108 81.898082 
L 270.880857 87.129086 
L 271.322052 91.650689 
L 272.129789 105.764062 
L 272.903604 122.181335 
L 273.994188 151.570927 
L 275.007632 168.956361 
L 275.710861 190.167701 
L 276.155207 194.475296 
L 276.610347 198.049711 
L 277.0601 201.990055 
L 277.300352 202.915942 
L 277.554842 202.874825 
L 278.097394 200.51247 
L 278.371199 199.159557 
L 278.632341 198.666643 
L 278.869423 199.807861 
L 279.267262 207.27407 
L 279.651777 215.645195 
L 279.868571 218.164261 
L 280.110399 218.983144 
L 280.375334 218.232626 
L 280.9188 215.808182 
L 281.436028 215.165826 
L 281.692735 214.97411 
L 281.955453 214.374192 
L 282.236221 212.548345 
L 283.141545 202.790623 
L 283.417256 201.308248 
L 283.669217 201.438866 
L 283.899316 203.054338 
L 284.55322 210.372427 
L 285.233714 215.884649 
L 286.105386 225.655751 
L 286.33389 227.379548 
L 286.585832 227.511488 
L 286.866911 225.664505 
L 287.489852 217.842276 
L 287.808608 213.436431 
L 288.094121 211.288249 
L 288.340053 211.828392 
L 288.785682 216.048797 
L 289.035427 216.330015 
L 289.314619 214.611173 
L 290.229435 204.208782 
L 291.798567 183.853318 
L 292.454147 173.814378 
L 293.847019 148.186794 
L 295.717478 124.609141 
L 296.326493 117.73278 
L 296.608837 115.799928 
L 296.865855 115.587076 
L 297.090255 117.589613 
L 297.903944 131.298747 
L 298.129297 133.236553 
L 298.376182 133.711965 
L 298.657572 131.843844 
L 302.035096 92.126178 
L 302.582063 89.463946 
L 302.848282 88.62624 
L 303.122087 87.273327 
L 303.731432 80.374508 
L 304.675405 67.991872 
L 305.255925 63.050839 
L 306.372033 56.220386 
L 306.621777 56.501604 
L 306.837638 59.084079 
L 307.21803 67.735265 
L 307.766473 82.216053 
L 308.209262 86.629331 
L 308.671386 89.729491 
L 309.098965 95.175825 
L 309.652815 109.289363 
L 310.614346 130.200661 
L 311.04988 135.106689 
L 311.527506 137.153977 
L 312.033004 137.308211 
L 312.269755 138.471886 
L 312.679926 145.100554 
L 313.633482 166.553481 
L 314.073432 171.159631 
L 314.908342 183.427506 
L 315.145734 184.547586 
L 315.41067 183.797069 
L 316.280224 176.468746 
L 316.535356 176.384035 
L 316.747735 179.202978 
L 317.325937 191.662568 
L 317.756667 196.894893 
L 318.422884 203.376761 
L 318.871684 207.381836 
L 319.123315 207.534913 
L 319.638305 207.044477 
L 319.918742 205.241088 
L 320.819943 195.763427 
L 321.090908 194.603386 
L 321.331471 195.508137 
L 322.202501 205.322833 
L 323.117859 212.126871 
L 323.373924 211.97875 
L 323.910427 210.027239 
L 324.474511 206.202489 
L 324.75561 204.354184 
L 325.021809 203.517799 
L 325.537441 202.983769 
L 325.793196 202.856784 
L 326.050837 202.601658 
L 326.318923 201.637132 
L 326.89565 196.953703 
L 327.797803 187.411311 
L 330.047179 155.341824 
L 331.234243 143.692203 
L 331.826472 137.955903 
L 333.339528 121.409008 
L 334.480961 112.858556 
L 335.716088 97.944636 
L 337.923664 68.714072 
L 338.489965 64.738723 
L 338.749201 64.375271 
L 338.991651 65.15188 
L 339.453113 68.296956 
L 340.579897 77.984668 
L 341.042663 81.041234 
L 342.687646 90.020538 
L 342.909207 92.215948 
L 343.307026 99.683479 
L 344.24757 122.020184 
L 345.137914 130.523084 
L 346.585882 152.883239 
L 347.192268 163.428637 
L 347.641068 167.433713 
L 347.888283 167.886666 
L 348.411832 166.814971 
L 348.663152 166.989184 
L 348.890391 168.798849 
L 349.923112 184.875128 
L 350.654275 186.946031 
L 351.103074 190.951107 
L 351.346808 191.640527 
L 351.612385 190.846416 
L 352.209399 184.785138 
L 352.788966 179.908837 
L 353.054212 179.137183 
L 353.297926 179.827924 
L 353.709361 186.370725 
L 354.121749 192.848794 
L 354.573116 196.679492 
L 354.808934 197.906577 
L 355.058367 198.208931 
L 355.320462 197.651286 
L 355.597748 196.061906 
L 356.486267 187.445566 
L 356.759119 186.157384 
L 357.010438 186.331597 
L 357.940968 192.105221 
L 358.627471 197.20924 
L 359.287055 204.141584 
L 359.528241 205.004061 
L 359.787147 204.663068 
L 360.06949 202.730216 
L 360.658568 197.207925 
L 360.920955 196.630464 
L 361.1558 197.923601 
L 361.803383 205.671029 
L 362.022103 208.059312 
L 362.272159 208.319393 
L 362.557361 206.192348 
L 363.485812 194.863905 
L 364.170841 182.824905 
L 365.612768 153.865649 
L 366.255996 144.665571 
L 367.109368 138.436357 
L 367.756098 128.998492 
L 368.729188 114.638254 
L 369.312878 109.481891 
L 369.625292 105.506707 
L 370.682273 85.448807 
L 371.742756 65.15312 
L 371.742756 65.15312 
" clip-path="url(#pc2ffb46dac)" style="fill: none; stroke: #1f77b4; stroke-width: 1.5; stroke-linecap: square"/>
   </g>
   <g id="patch_3">
    <path d="M 52.160938 244.078125 
L 52.160938 22.318125 
" style="fill: none; stroke: #000000; stroke-width: 0.8; stroke-linejoin: miter; stroke-linecap: square"/>
   </g>
   <g id="patch_4">
    <path d="M 386.960938 244.078125 
L 386.960938 22.318125 
" style="fill: none; stroke: #000000; stroke-width: 0.8; stroke-linejoin: miter; stroke-linecap: square"/>
   </g>
   <g id="patch_5">
    <path d="M 52.160937 244.078125 
L 386.960937 244.078125 
" style="fill: none; stroke: #000000; stroke-width: 0.8; stroke-linejoin: miter; stroke-linecap: square"/>
   </g>
   <g id="patch_6">
    <path d="M 52.160937 22.318125 
L 386.960937 22.318125 
" style="fill: none; stroke: #000000; stroke-width: 0.8; stroke-linejoin: miter; stroke-linecap: square"/>
   </g>
   <g id="text_16">
    <!-- Local Minimums of Rotated Spirometry Data -->
    <g transform="translate(86.788438 16.318125) scale(0.12 -0.12)">
     <defs>
      <path id="DejaVuSans-63" d="M 3122 3366 
L 3122 2828 
Q 2878 2963 2633 3030 
Q 2388 3097 2138 3097 
Q 1578 3097 1268 2742 
Q 959 2388 959 1747 
Q 959 1106 1268 751 
Q 1578 397 2138 397 
Q 2388 397 2633 464 
Q 2878 531 3122 666 
L 3122 134 
Q 2881 22 2623 -34 
Q 2366 -91 2075 -91 
Q 1284 -91 818 406 
Q 353 903 353 1747 
Q 353 2603 823 3093 
Q 1294 3584 2113 3584 
Q 2378 3584 2631 3529 
Q 2884 3475 3122 3366 
z
" transform="scale(0.015625)"/>
      <path id="DejaVuSans-61" d="M 2194 1759 
Q 1497 1759 1228 1600 
Q 959 1441 959 1056 
Q 959 750 1161 570 
Q 1363 391 1709 391 
Q 2188 391 2477 730 
Q 2766 1069 2766 1631 
L 2766 1759 
L 2194 1759 
z
M 3341 1997 
L 3341 0 
L 2766 0 
L 2766 531 
Q 2569 213 2275 61 
Q 1981 -91 1556 -91 
Q 1019 -91 701 211 
Q 384 513 384 1019 
Q 384 1609 779 1909 
Q 1175 2209 1959 2209 
L 2766 2209 
L 2766 2266 
Q 2766 2663 2505 2880 
Q 2244 3097 1772 3097 
Q 1472 3097 1187 3025 
Q 903 2953 641 2809 
L 641 3341 
Q 956 3463 1253 3523 
Q 1550 3584 1831 3584 
Q 2591 3584 2966 3190 
Q 3341 2797 3341 1997 
z
" transform="scale(0.015625)"/>
      <path id="DejaVuSans-4d" d="M 628 4666 
L 1569 4666 
L 2759 1491 
L 3956 4666 
L 4897 4666 
L 4897 0 
L 4281 0 
L 4281 4097 
L 3078 897 
L 2444 897 
L 1241 4097 
L 1241 0 
L 628 0 
L 628 4666 
z
" transform="scale(0.015625)"/>
      <path id="DejaVuSans-66" d="M 2375 4863 
L 2375 4384 
L 1825 4384 
Q 1516 4384 1395 4259 
Q 1275 4134 1275 3809 
L 1275 3500 
L 2222 3500 
L 2222 3053 
L 1275 3053 
L 1275 0 
L 697 0 
L 697 3053 
L 147 3053 
L 147 3500 
L 697 3500 
L 697 3744 
Q 697 4328 969 4595 
Q 1241 4863 1831 4863 
L 2375 4863 
z
" transform="scale(0.015625)"/>
      <path id="DejaVuSans-52" d="M 2841 2188 
Q 3044 2119 3236 1894 
Q 3428 1669 3622 1275 
L 4263 0 
L 3584 0 
L 2988 1197 
Q 2756 1666 2539 1819 
Q 2322 1972 1947 1972 
L 1259 1972 
L 1259 0 
L 628 0 
L 628 4666 
L 2053 4666 
Q 2853 4666 3247 4331 
Q 3641 3997 3641 3322 
Q 3641 2881 3436 2590 
Q 3231 2300 2841 2188 
z
M 1259 4147 
L 1259 2491 
L 2053 2491 
Q 2509 2491 2742 2702 
Q 2975 2913 2975 3322 
Q 2975 3731 2742 3939 
Q 2509 4147 2053 4147 
L 1259 4147 
z
" transform="scale(0.015625)"/>
      <path id="DejaVuSans-74" d="M 1172 4494 
L 1172 3500 
L 2356 3500 
L 2356 3053 
L 1172 3053 
L 1172 1153 
Q 1172 725 1289 603 
Q 1406 481 1766 481 
L 2356 481 
L 2356 0 
L 1766 0 
Q 1100 0 847 248 
Q 594 497 594 1153 
L 594 3053 
L 172 3053 
L 172 3500 
L 594 3500 
L 594 4494 
L 1172 4494 
z
" transform="scale(0.015625)"/>
      <path id="DejaVuSans-64" d="M 2906 2969 
L 2906 4863 
L 3481 4863 
L 3481 0 
L 2906 0 
L 2906 525 
Q 2725 213 2448 61 
Q 2172 -91 1784 -91 
Q 1150 -91 751 415 
Q 353 922 353 1747 
Q 353 2572 751 3078 
Q 1150 3584 1784 3584 
Q 2172 3584 2448 3432 
Q 2725 3281 2906 2969 
z
M 947 1747 
Q 947 1113 1208 752 
Q 1469 391 1925 391 
Q 2381 391 2643 752 
Q 2906 1113 2906 1747 
Q 2906 2381 2643 2742 
Q 2381 3103 1925 3103 
Q 1469 3103 1208 2742 
Q 947 2381 947 1747 
z
" transform="scale(0.015625)"/>
      <path id="DejaVuSans-53" d="M 3425 4513 
L 3425 3897 
Q 3066 4069 2747 4153 
Q 2428 4238 2131 4238 
Q 1616 4238 1336 4038 
Q 1056 3838 1056 3469 
Q 1056 3159 1242 3001 
Q 1428 2844 1947 2747 
L 2328 2669 
Q 3034 2534 3370 2195 
Q 3706 1856 3706 1288 
Q 3706 609 3251 259 
Q 2797 -91 1919 -91 
Q 1588 -91 1214 -16 
Q 841 59 441 206 
L 441 856 
Q 825 641 1194 531 
Q 1563 422 1919 422 
Q 2459 422 2753 634 
Q 3047 847 3047 1241 
Q 3047 1584 2836 1778 
Q 2625 1972 2144 2069 
L 1759 2144 
Q 1053 2284 737 2584 
Q 422 2884 422 3419 
Q 422 4038 858 4394 
Q 1294 4750 2059 4750 
Q 2388 4750 2728 4690 
Q 3069 4631 3425 4513 
z
" transform="scale(0.015625)"/>
      <path id="DejaVuSans-70" d="M 1159 525 
L 1159 -1331 
L 581 -1331 
L 581 3500 
L 1159 3500 
L 1159 2969 
Q 1341 3281 1617 3432 
Q 1894 3584 2278 3584 
Q 2916 3584 3314 3078 
Q 3713 2572 3713 1747 
Q 3713 922 3314 415 
Q 2916 -91 2278 -91 
Q 1894 -91 1617 61 
Q 1341 213 1159 525 
z
M 3116 1747 
Q 3116 2381 2855 2742 
Q 2594 3103 2138 3103 
Q 1681 3103 1420 2742 
Q 1159 2381 1159 1747 
Q 1159 1113 1420 752 
Q 1681 391 2138 391 
Q 2594 391 2855 752 
Q 3116 1113 3116 1747 
z
" transform="scale(0.015625)"/>
      <path id="DejaVuSans-72" d="M 2631 2963 
Q 2534 3019 2420 3045 
Q 2306 3072 2169 3072 
Q 1681 3072 1420 2755 
Q 1159 2438 1159 1844 
L 1159 0 
L 581 0 
L 581 3500 
L 1159 3500 
L 1159 2956 
Q 1341 3275 1631 3429 
Q 1922 3584 2338 3584 
Q 2397 3584 2469 3576 
Q 2541 3569 2628 3553 
L 2631 2963 
z
" transform="scale(0.015625)"/>
      <path id="DejaVuSans-79" d="M 2059 -325 
Q 1816 -950 1584 -1140 
Q 1353 -1331 966 -1331 
L 506 -1331 
L 506 -850 
L 844 -850 
Q 1081 -850 1212 -737 
Q 1344 -625 1503 -206 
L 1606 56 
L 191 3500 
L 800 3500 
L 1894 763 
L 2988 3500 
L 3597 3500 
L 2059 -325 
z
" transform="scale(0.015625)"/>
      <path id="DejaVuSans-44" d="M 1259 4147 
L 1259 519 
L 2022 519 
Q 2988 519 3436 956 
Q 3884 1394 3884 2338 
Q 3884 3275 3436 3711 
Q 2988 4147 2022 4147 
L 1259 4147 
z
M 628 4666 
L 1925 4666 
Q 3281 4666 3915 4102 
Q 4550 3538 4550 2338 
Q 4550 1131 3912 565 
Q 3275 0 1925 0 
L 628 0 
L 628 4666 
z
" transform="scale(0.015625)"/>
     </defs>
     <use xlink:href="#DejaVuSans-4c"/>
     <use xlink:href="#DejaVuSans-6f" x="53.962891"/>
     <use xlink:href="#DejaVuSans-63" x="115.144531"/>
     <use xlink:href="#DejaVuSans-61" x="170.125"/>
     <use xlink:href="#DejaVuSans-6c" x="231.404297"/>
     <use xlink:href="#DejaVuSans-20" x="259.1875"/>
     <use xlink:href="#DejaVuSans-4d" x="290.974609"/>
     <use xlink:href="#DejaVuSans-69" x="377.253906"/>
     <use xlink:href="#DejaVuSans-6e" x="405.037109"/>
     <use xlink:href="#DejaVuSans-69" x="468.416016"/>
     <use xlink:href="#DejaVuSans-6d" x="496.199219"/>
     <use xlink:href="#DejaVuSans-75" x="593.611328"/>
     <use xlink:href="#DejaVuSans-6d" x="656.990234"/>
     <use xlink:href="#DejaVuSans-73" x="754.402344"/>
     <use xlink:href="#DejaVuSans-20" x="806.501953"/>
     <use xlink:href="#DejaVuSans-6f" x="838.289062"/>
     <use xlink:href="#DejaVuSans-66" x="899.470703"/>
     <use xlink:href="#DejaVuSans-20" x="934.675781"/>
     <use xlink:href="#DejaVuSans-52" x="966.462891"/>
     <use xlink:href="#DejaVuSans-6f" x="1031.445312"/>
     <use xlink:href="#DejaVuSans-74" x="1092.626953"/>
     <use xlink:href="#DejaVuSans-61" x="1131.835938"/>
     <use xlink:href="#DejaVuSans-74" x="1193.115234"/>
     <use xlink:href="#DejaVuSans-65" x="1232.324219"/>
     <use xlink:href="#DejaVuSans-64" x="1293.847656"/>
     <use xlink:href="#DejaVuSans-20" x="1357.324219"/>
     <use xlink:href="#DejaVuSans-53" x="1389.111328"/>
     <use xlink:href="#DejaVuSans-70" x="1452.587891"/>
     <use xlink:href="#DejaVuSans-69" x="1516.064453"/>
     <use xlink:href="#DejaVuSans-72" x="1543.847656"/>
     <use xlink:href="#DejaVuSans-6f" x="1582.710938"/>
     <use xlink:href="#DejaVuSans-6d" x="1643.892578"/>
     <use xlink:href="#DejaVuSans-65" x="1741.304688"/>
     <use xlink:href="#DejaVuSans-74" x="1802.828125"/>
     <use xlink:href="#DejaVuSans-72" x="1842.037109"/>
     <use xlink:href="#DejaVuSans-79" x="1883.150391"/>
     <use xlink:href="#DejaVuSans-20" x="1942.330078"/>
     <use xlink:href="#DejaVuSans-44" x="1974.117188"/>
     <use xlink:href="#DejaVuSans-61" x="2051.119141"/>
     <use xlink:href="#DejaVuSans-74" x="2112.398438"/>
     <use xlink:href="#DejaVuSans-61" x="2151.607422"/>
    </g>
   </g>
   <g id="legend_1">
    <g id="patch_7">
     <path d="M 141.239062 59.674375 
L 297.882812 59.674375 
Q 299.882812 59.674375 299.882812 57.674375 
L 299.882812 29.318125 
Q 299.882812 27.318125 297.882812 27.318125 
L 141.239062 27.318125 
Q 139.239062 27.318125 139.239062 29.318125 
L 139.239062 57.674375 
Q 139.239062 59.674375 141.239062 59.674375 
z
" style="fill: #ffffff; opacity: 0.8; stroke: #cccccc; stroke-linejoin: miter"/>
    </g>
    <g id="line2d_15">
     <path d="M 143.239062 35.416562 
L 153.239062 35.416562 
L 163.239062 35.416562 
" style="fill: none; stroke: #1f77b4; stroke-width: 1.5; stroke-linecap: square"/>
    </g>
    <g id="text_17">
     <!-- Rotated Spirometry Data -->
     <g transform="translate(171.239062 38.916562) scale(0.1 -0.1)">
      <use xlink:href="#DejaVuSans-52"/>
      <use xlink:href="#DejaVuSans-6f" x="64.982422"/>
      <use xlink:href="#DejaVuSans-74" x="126.164062"/>
      <use xlink:href="#DejaVuSans-61" x="165.373047"/>
      <use xlink:href="#DejaVuSans-74" x="226.652344"/>
      <use xlink:href="#DejaVuSans-65" x="265.861328"/>
      <use xlink:href="#DejaVuSans-64" x="327.384766"/>
      <use xlink:href="#DejaVuSans-20" x="390.861328"/>
      <use xlink:href="#DejaVuSans-53" x="422.648438"/>
      <use xlink:href="#DejaVuSans-70" x="486.125"/>
      <use xlink:href="#DejaVuSans-69" x="549.601562"/>
      <use xlink:href="#DejaVuSans-72" x="577.384766"/>
      <use xlink:href="#DejaVuSans-6f" x="616.248047"/>
      <use xlink:href="#DejaVuSans-6d" x="677.429688"/>
      <use xlink:href="#DejaVuSans-65" x="774.841797"/>
      <use xlink:href="#DejaVuSans-74" x="836.365234"/>
      <use xlink:href="#DejaVuSans-72" x="875.574219"/>
      <use xlink:href="#DejaVuSans-79" x="916.6875"/>
      <use xlink:href="#DejaVuSans-20" x="975.867188"/>
      <use xlink:href="#DejaVuSans-44" x="1007.654297"/>
      <use xlink:href="#DejaVuSans-61" x="1084.65625"/>
      <use xlink:href="#DejaVuSans-74" x="1145.935547"/>
      <use xlink:href="#DejaVuSans-61" x="1185.144531"/>
     </g>
    </g>
    <g id="PathCollection_2">
     <g>
      <use xlink:href="#m8803492c2d" x="153.239062" y="50.969687" style="fill: #1f77b4; stroke: #1f77b4"/>
     </g>
    </g>
    <g id="text_18">
     <!-- Local Minimums -->
     <g transform="translate(171.239062 53.594687) scale(0.1 -0.1)">
      <use xlink:href="#DejaVuSans-4c"/>
      <use xlink:href="#DejaVuSans-6f" x="53.962891"/>
      <use xlink:href="#DejaVuSans-63" x="115.144531"/>
      <use xlink:href="#DejaVuSans-61" x="170.125"/>
      <use xlink:href="#DejaVuSans-6c" x="231.404297"/>
      <use xlink:href="#DejaVuSans-20" x="259.1875"/>
      <use xlink:href="#DejaVuSans-4d" x="290.974609"/>
      <use xlink:href="#DejaVuSans-69" x="377.253906"/>
      <use xlink:href="#DejaVuSans-6e" x="405.037109"/>
      <use xlink:href="#DejaVuSans-69" x="468.416016"/>
      <use xlink:href="#DejaVuSans-6d" x="496.199219"/>
      <use xlink:href="#DejaVuSans-75" x="593.611328"/>
      <use xlink:href="#DejaVuSans-6d" x="656.990234"/>
      <use xlink:href="#DejaVuSans-73" x="754.402344"/>
     </g>
    </g>
   </g>
  </g>
 </g>
 <defs>
  <clipPath id="pc2ffb46dac">
   <rect x="52.160938" y="22.318125" width="334.8" height="221.76"/>
  </clipPath>
 </defs>
</svg>
