<?xml version="1.0" encoding="utf-8" standalone="no"?>
<!DOCTYPE svg PUBLIC "-//W3C//DTD SVG 1.1//EN"
  "http://www.w3.org/Graphics/SVG/1.1/DTD/svg11.dtd">
<svg xmlns:xlink="http://www.w3.org/1999/xlink" width="719.420312pt" height="392.514375pt" viewBox="0 0 719.420312 392.514375" xmlns="http://www.w3.org/2000/svg" version="1.1">
 <metadata>
  <rdf:RDF xmlns:dc="http://purl.org/dc/elements/1.1/" xmlns:cc="http://creativecommons.org/ns#" xmlns:rdf="http://www.w3.org/1999/02/22-rdf-syntax-ns#">
   <cc:Work>
    <dc:type rdf:resource="http://purl.org/dc/dcmitype/StillImage"/>
    <dc:date>2022-12-10T22:25:37.511874</dc:date>
    <dc:format>image/svg+xml</dc:format>
    <dc:creator>
     <cc:Agent>
      <dc:title>Matplotlib v3.6.2, https://matplotlib.org/</dc:title>
     </cc:Agent>
    </dc:creator>
   </cc:Work>
  </rdf:RDF>
 </metadata>
 <defs>
  <style type="text/css">*{stroke-linejoin: round; stroke-linecap: butt}</style>
 </defs>
 <g id="figure_1">
  <g id="patch_1">
   <path d="M 0 392.514375 
L 719.420312 392.514375 
L 719.420312 0 
L 0 0 
z
" style="fill: #ffffff"/>
  </g>
  <g id="axes_1">
   <g id="patch_2">
    <path d="M 42.620313 354.958125 
L 712.220313 354.958125 
L 712.220313 22.318125 
L 42.620313 22.318125 
z
" style="fill: #ffffff"/>
   </g>
   <g id="matplotlib.axis_1">
    <g id="xtick_1">
     <g id="line2d_1">
      <defs>
       <path id="m8d941f0827" d="M 0 0 
L 0 3.5 
" style="stroke: #000000; stroke-width: 0.8"/>
      </defs>
      <g>
       <use xlink:href="#m8d941f0827" x="79.322746" y="354.958125" style="stroke: #000000; stroke-width: 0.8"/>
      </g>
     </g>
     <g id="text_1">
      <!-- 0.0 -->
      <g transform="translate(71.371183 369.556562) scale(0.1 -0.1)">
       <defs>
        <path id="DejaVuSans-30" d="M 2034 4250 
Q 1547 4250 1301 3770 
Q 1056 3291 1056 2328 
Q 1056 1369 1301 889 
Q 1547 409 2034 409 
Q 2525 409 2770 889 
Q 3016 1369 3016 2328 
Q 3016 3291 2770 3770 
Q 2525 4250 2034 4250 
z
M 2034 4750 
Q 2819 4750 3233 4129 
Q 3647 3509 3647 2328 
Q 3647 1150 3233 529 
Q 2819 -91 2034 -91 
Q 1250 -91 836 529 
Q 422 1150 422 2328 
Q 422 3509 836 4129 
Q 1250 4750 2034 4750 
z
" transform="scale(0.015625)"/>
        <path id="DejaVuSans-2e" d="M 684 794 
L 1344 794 
L 1344 0 
L 684 0 
L 684 794 
z
" transform="scale(0.015625)"/>
       </defs>
       <use xlink:href="#DejaVuSans-30"/>
       <use xlink:href="#DejaVuSans-2e" x="63.623047"/>
       <use xlink:href="#DejaVuSans-30" x="95.410156"/>
      </g>
     </g>
    </g>
    <g id="xtick_2">
     <g id="line2d_2">
      <g>
       <use xlink:href="#m8d941f0827" x="154.668069" y="354.958125" style="stroke: #000000; stroke-width: 0.8"/>
      </g>
     </g>
     <g id="text_2">
      <!-- 2.5 -->
      <g transform="translate(146.716506 369.556562) scale(0.1 -0.1)">
       <defs>
        <path id="DejaVuSans-32" d="M 1228 531 
L 3431 531 
L 3431 0 
L 469 0 
L 469 531 
Q 828 903 1448 1529 
Q 2069 2156 2228 2338 
Q 2531 2678 2651 2914 
Q 2772 3150 2772 3378 
Q 2772 3750 2511 3984 
Q 2250 4219 1831 4219 
Q 1534 4219 1204 4116 
Q 875 4013 500 3803 
L 500 4441 
Q 881 4594 1212 4672 
Q 1544 4750 1819 4750 
Q 2544 4750 2975 4387 
Q 3406 4025 3406 3419 
Q 3406 3131 3298 2873 
Q 3191 2616 2906 2266 
Q 2828 2175 2409 1742 
Q 1991 1309 1228 531 
z
" transform="scale(0.015625)"/>
        <path id="DejaVuSans-35" d="M 691 4666 
L 3169 4666 
L 3169 4134 
L 1269 4134 
L 1269 2991 
Q 1406 3038 1543 3061 
Q 1681 3084 1819 3084 
Q 2600 3084 3056 2656 
Q 3513 2228 3513 1497 
Q 3513 744 3044 326 
Q 2575 -91 1722 -91 
Q 1428 -91 1123 -41 
Q 819 9 494 109 
L 494 744 
Q 775 591 1075 516 
Q 1375 441 1709 441 
Q 2250 441 2565 725 
Q 2881 1009 2881 1497 
Q 2881 1984 2565 2268 
Q 2250 2553 1709 2553 
Q 1456 2553 1204 2497 
Q 953 2441 691 2322 
L 691 4666 
z
" transform="scale(0.015625)"/>
       </defs>
       <use xlink:href="#DejaVuSans-32"/>
       <use xlink:href="#DejaVuSans-2e" x="63.623047"/>
       <use xlink:href="#DejaVuSans-35" x="95.410156"/>
      </g>
     </g>
    </g>
    <g id="xtick_3">
     <g id="line2d_3">
      <g>
       <use xlink:href="#m8d941f0827" x="230.013392" y="354.958125" style="stroke: #000000; stroke-width: 0.8"/>
      </g>
     </g>
     <g id="text_3">
      <!-- 5.0 -->
      <g transform="translate(222.061829 369.556562) scale(0.1 -0.1)">
       <use xlink:href="#DejaVuSans-35"/>
       <use xlink:href="#DejaVuSans-2e" x="63.623047"/>
       <use xlink:href="#DejaVuSans-30" x="95.410156"/>
      </g>
     </g>
    </g>
    <g id="xtick_4">
     <g id="line2d_4">
      <g>
       <use xlink:href="#m8d941f0827" x="305.358715" y="354.958125" style="stroke: #000000; stroke-width: 0.8"/>
      </g>
     </g>
     <g id="text_4">
      <!-- 7.5 -->
      <g transform="translate(297.407152 369.556562) scale(0.1 -0.1)">
       <defs>
        <path id="DejaVuSans-37" d="M 525 4666 
L 3525 4666 
L 3525 4397 
L 1831 0 
L 1172 0 
L 2766 4134 
L 525 4134 
L 525 4666 
z
" transform="scale(0.015625)"/>
       </defs>
       <use xlink:href="#DejaVuSans-37"/>
       <use xlink:href="#DejaVuSans-2e" x="63.623047"/>
       <use xlink:href="#DejaVuSans-35" x="95.410156"/>
      </g>
     </g>
    </g>
    <g id="xtick_5">
     <g id="line2d_5">
      <g>
       <use xlink:href="#m8d941f0827" x="380.704038" y="354.958125" style="stroke: #000000; stroke-width: 0.8"/>
      </g>
     </g>
     <g id="text_5">
      <!-- 10.0 -->
      <g transform="translate(369.571225 369.556562) scale(0.1 -0.1)">
       <defs>
        <path id="DejaVuSans-31" d="M 794 531 
L 1825 531 
L 1825 4091 
L 703 3866 
L 703 4441 
L 1819 4666 
L 2450 4666 
L 2450 531 
L 3481 531 
L 3481 0 
L 794 0 
L 794 531 
z
" transform="scale(0.015625)"/>
       </defs>
       <use xlink:href="#DejaVuSans-31"/>
       <use xlink:href="#DejaVuSans-30" x="63.623047"/>
       <use xlink:href="#DejaVuSans-2e" x="127.246094"/>
       <use xlink:href="#DejaVuSans-30" x="159.033203"/>
      </g>
     </g>
    </g>
    <g id="xtick_6">
     <g id="line2d_6">
      <g>
       <use xlink:href="#m8d941f0827" x="456.049361" y="354.958125" style="stroke: #000000; stroke-width: 0.8"/>
      </g>
     </g>
     <g id="text_6">
      <!-- 12.5 -->
      <g transform="translate(444.916548 369.556562) scale(0.1 -0.1)">
       <use xlink:href="#DejaVuSans-31"/>
       <use xlink:href="#DejaVuSans-32" x="63.623047"/>
       <use xlink:href="#DejaVuSans-2e" x="127.246094"/>
       <use xlink:href="#DejaVuSans-35" x="159.033203"/>
      </g>
     </g>
    </g>
    <g id="xtick_7">
     <g id="line2d_7">
      <g>
       <use xlink:href="#m8d941f0827" x="531.394684" y="354.958125" style="stroke: #000000; stroke-width: 0.8"/>
      </g>
     </g>
     <g id="text_7">
      <!-- 15.0 -->
      <g transform="translate(520.261872 369.556562) scale(0.1 -0.1)">
       <use xlink:href="#DejaVuSans-31"/>
       <use xlink:href="#DejaVuSans-35" x="63.623047"/>
       <use xlink:href="#DejaVuSans-2e" x="127.246094"/>
       <use xlink:href="#DejaVuSans-30" x="159.033203"/>
      </g>
     </g>
    </g>
    <g id="xtick_8">
     <g id="line2d_8">
      <g>
       <use xlink:href="#m8d941f0827" x="606.740007" y="354.958125" style="stroke: #000000; stroke-width: 0.8"/>
      </g>
     </g>
     <g id="text_8">
      <!-- 17.5 -->
      <g transform="translate(595.607195 369.556562) scale(0.1 -0.1)">
       <use xlink:href="#DejaVuSans-31"/>
       <use xlink:href="#DejaVuSans-37" x="63.623047"/>
       <use xlink:href="#DejaVuSans-2e" x="127.246094"/>
       <use xlink:href="#DejaVuSans-35" x="159.033203"/>
      </g>
     </g>
    </g>
    <g id="xtick_9">
     <g id="line2d_9">
      <g>
       <use xlink:href="#m8d941f0827" x="682.08533" y="354.958125" style="stroke: #000000; stroke-width: 0.8"/>
      </g>
     </g>
     <g id="text_9">
      <!-- 20.0 -->
      <g transform="translate(670.952518 369.556562) scale(0.1 -0.1)">
       <use xlink:href="#DejaVuSans-32"/>
       <use xlink:href="#DejaVuSans-30" x="63.623047"/>
       <use xlink:href="#DejaVuSans-2e" x="127.246094"/>
       <use xlink:href="#DejaVuSans-30" x="159.033203"/>
      </g>
     </g>
    </g>
    <g id="text_10">
     <!-- Time (s) -->
     <g transform="translate(357.091406 383.234687) scale(0.1 -0.1)">
      <defs>
       <path id="DejaVuSans-54" d="M -19 4666 
L 3928 4666 
L 3928 4134 
L 2272 4134 
L 2272 0 
L 1638 0 
L 1638 4134 
L -19 4134 
L -19 4666 
z
" transform="scale(0.015625)"/>
       <path id="DejaVuSans-69" d="M 603 3500 
L 1178 3500 
L 1178 0 
L 603 0 
L 603 3500 
z
M 603 4863 
L 1178 4863 
L 1178 4134 
L 603 4134 
L 603 4863 
z
" transform="scale(0.015625)"/>
       <path id="DejaVuSans-6d" d="M 3328 2828 
Q 3544 3216 3844 3400 
Q 4144 3584 4550 3584 
Q 5097 3584 5394 3201 
Q 5691 2819 5691 2113 
L 5691 0 
L 5113 0 
L 5113 2094 
Q 5113 2597 4934 2840 
Q 4756 3084 4391 3084 
Q 3944 3084 3684 2787 
Q 3425 2491 3425 1978 
L 3425 0 
L 2847 0 
L 2847 2094 
Q 2847 2600 2669 2842 
Q 2491 3084 2119 3084 
Q 1678 3084 1418 2786 
Q 1159 2488 1159 1978 
L 1159 0 
L 581 0 
L 581 3500 
L 1159 3500 
L 1159 2956 
Q 1356 3278 1631 3431 
Q 1906 3584 2284 3584 
Q 2666 3584 2933 3390 
Q 3200 3197 3328 2828 
z
" transform="scale(0.015625)"/>
       <path id="DejaVuSans-65" d="M 3597 1894 
L 3597 1613 
L 953 1613 
Q 991 1019 1311 708 
Q 1631 397 2203 397 
Q 2534 397 2845 478 
Q 3156 559 3463 722 
L 3463 178 
Q 3153 47 2828 -22 
Q 2503 -91 2169 -91 
Q 1331 -91 842 396 
Q 353 884 353 1716 
Q 353 2575 817 3079 
Q 1281 3584 2069 3584 
Q 2775 3584 3186 3129 
Q 3597 2675 3597 1894 
z
M 3022 2063 
Q 3016 2534 2758 2815 
Q 2500 3097 2075 3097 
Q 1594 3097 1305 2825 
Q 1016 2553 972 2059 
L 3022 2063 
z
" transform="scale(0.015625)"/>
       <path id="DejaVuSans-20" transform="scale(0.015625)"/>
       <path id="DejaVuSans-28" d="M 1984 4856 
Q 1566 4138 1362 3434 
Q 1159 2731 1159 2009 
Q 1159 1288 1364 580 
Q 1569 -128 1984 -844 
L 1484 -844 
Q 1016 -109 783 600 
Q 550 1309 550 2009 
Q 550 2706 781 3412 
Q 1013 4119 1484 4856 
L 1984 4856 
z
" transform="scale(0.015625)"/>
       <path id="DejaVuSans-73" d="M 2834 3397 
L 2834 2853 
Q 2591 2978 2328 3040 
Q 2066 3103 1784 3103 
Q 1356 3103 1142 2972 
Q 928 2841 928 2578 
Q 928 2378 1081 2264 
Q 1234 2150 1697 2047 
L 1894 2003 
Q 2506 1872 2764 1633 
Q 3022 1394 3022 966 
Q 3022 478 2636 193 
Q 2250 -91 1575 -91 
Q 1294 -91 989 -36 
Q 684 19 347 128 
L 347 722 
Q 666 556 975 473 
Q 1284 391 1588 391 
Q 1994 391 2212 530 
Q 2431 669 2431 922 
Q 2431 1156 2273 1281 
Q 2116 1406 1581 1522 
L 1381 1569 
Q 847 1681 609 1914 
Q 372 2147 372 2553 
Q 372 3047 722 3315 
Q 1072 3584 1716 3584 
Q 2034 3584 2315 3537 
Q 2597 3491 2834 3397 
z
" transform="scale(0.015625)"/>
       <path id="DejaVuSans-29" d="M 513 4856 
L 1013 4856 
Q 1481 4119 1714 3412 
Q 1947 2706 1947 2009 
Q 1947 1309 1714 600 
Q 1481 -109 1013 -844 
L 513 -844 
Q 928 -128 1133 580 
Q 1338 1288 1338 2009 
Q 1338 2731 1133 3434 
Q 928 4138 513 4856 
z
" transform="scale(0.015625)"/>
      </defs>
      <use xlink:href="#DejaVuSans-54"/>
      <use xlink:href="#DejaVuSans-69" x="57.958984"/>
      <use xlink:href="#DejaVuSans-6d" x="85.742188"/>
      <use xlink:href="#DejaVuSans-65" x="183.154297"/>
      <use xlink:href="#DejaVuSans-20" x="244.677734"/>
      <use xlink:href="#DejaVuSans-28" x="276.464844"/>
      <use xlink:href="#DejaVuSans-73" x="315.478516"/>
      <use xlink:href="#DejaVuSans-29" x="367.578125"/>
     </g>
    </g>
   </g>
   <g id="matplotlib.axis_2">
    <g id="ytick_1">
     <g id="line2d_10">
      <defs>
       <path id="mde8ddb6279" d="M 0 0 
L -3.5 0 
" style="stroke: #000000; stroke-width: 0.8"/>
      </defs>
      <g>
       <use xlink:href="#mde8ddb6279" x="42.620313" y="339.838125" style="stroke: #000000; stroke-width: 0.8"/>
      </g>
     </g>
     <g id="text_11">
      <!-- −1 -->
      <g transform="translate(20.878125 343.637344) scale(0.1 -0.1)">
       <defs>
        <path id="DejaVuSans-2212" d="M 678 2272 
L 4684 2272 
L 4684 1741 
L 678 1741 
L 678 2272 
z
" transform="scale(0.015625)"/>
       </defs>
       <use xlink:href="#DejaVuSans-2212"/>
       <use xlink:href="#DejaVuSans-31" x="83.789062"/>
      </g>
     </g>
    </g>
    <g id="ytick_2">
     <g id="line2d_11">
      <g>
       <use xlink:href="#mde8ddb6279" x="42.620313" y="290.541565" style="stroke: #000000; stroke-width: 0.8"/>
      </g>
     </g>
     <g id="text_12">
      <!-- 0 -->
      <g transform="translate(29.257813 294.340784) scale(0.1 -0.1)">
       <use xlink:href="#DejaVuSans-30"/>
      </g>
     </g>
    </g>
    <g id="ytick_3">
     <g id="line2d_12">
      <g>
       <use xlink:href="#mde8ddb6279" x="42.620313" y="241.245005" style="stroke: #000000; stroke-width: 0.8"/>
      </g>
     </g>
     <g id="text_13">
      <!-- 1 -->
      <g transform="translate(29.257813 245.044224) scale(0.1 -0.1)">
       <use xlink:href="#DejaVuSans-31"/>
      </g>
     </g>
    </g>
    <g id="ytick_4">
     <g id="line2d_13">
      <g>
       <use xlink:href="#mde8ddb6279" x="42.620313" y="191.948446" style="stroke: #000000; stroke-width: 0.8"/>
      </g>
     </g>
     <g id="text_14">
      <!-- 2 -->
      <g transform="translate(29.257813 195.747664) scale(0.1 -0.1)">
       <use xlink:href="#DejaVuSans-32"/>
      </g>
     </g>
    </g>
    <g id="ytick_5">
     <g id="line2d_14">
      <g>
       <use xlink:href="#mde8ddb6279" x="42.620313" y="142.651886" style="stroke: #000000; stroke-width: 0.8"/>
      </g>
     </g>
     <g id="text_15">
      <!-- 3 -->
      <g transform="translate(29.257813 146.451105) scale(0.1 -0.1)">
       <defs>
        <path id="DejaVuSans-33" d="M 2597 2516 
Q 3050 2419 3304 2112 
Q 3559 1806 3559 1356 
Q 3559 666 3084 287 
Q 2609 -91 1734 -91 
Q 1441 -91 1130 -33 
Q 819 25 488 141 
L 488 750 
Q 750 597 1062 519 
Q 1375 441 1716 441 
Q 2309 441 2620 675 
Q 2931 909 2931 1356 
Q 2931 1769 2642 2001 
Q 2353 2234 1838 2234 
L 1294 2234 
L 1294 2753 
L 1863 2753 
Q 2328 2753 2575 2939 
Q 2822 3125 2822 3475 
Q 2822 3834 2567 4026 
Q 2313 4219 1838 4219 
Q 1578 4219 1281 4162 
Q 984 4106 628 3988 
L 628 4550 
Q 988 4650 1302 4700 
Q 1616 4750 1894 4750 
Q 2613 4750 3031 4423 
Q 3450 4097 3450 3541 
Q 3450 3153 3228 2886 
Q 3006 2619 2597 2516 
z
" transform="scale(0.015625)"/>
       </defs>
       <use xlink:href="#DejaVuSans-33"/>
      </g>
     </g>
    </g>
    <g id="ytick_6">
     <g id="line2d_15">
      <g>
       <use xlink:href="#mde8ddb6279" x="42.620313" y="93.355326" style="stroke: #000000; stroke-width: 0.8"/>
      </g>
     </g>
     <g id="text_16">
      <!-- 4 -->
      <g transform="translate(29.257813 97.154545) scale(0.1 -0.1)">
       <defs>
        <path id="DejaVuSans-34" d="M 2419 4116 
L 825 1625 
L 2419 1625 
L 2419 4116 
z
M 2253 4666 
L 3047 4666 
L 3047 1625 
L 3713 1625 
L 3713 1100 
L 3047 1100 
L 3047 0 
L 2419 0 
L 2419 1100 
L 313 1100 
L 313 1709 
L 2253 4666 
z
" transform="scale(0.015625)"/>
       </defs>
       <use xlink:href="#DejaVuSans-34"/>
      </g>
     </g>
    </g>
    <g id="ytick_7">
     <g id="line2d_16">
      <g>
       <use xlink:href="#mde8ddb6279" x="42.620313" y="44.058766" style="stroke: #000000; stroke-width: 0.8"/>
      </g>
     </g>
     <g id="text_17">
      <!-- 5 -->
      <g transform="translate(29.257813 47.857985) scale(0.1 -0.1)">
       <use xlink:href="#DejaVuSans-35"/>
      </g>
     </g>
    </g>
    <g id="text_18">
     <!-- Lung Volume (L) -->
     <g transform="translate(14.798438 229.310781) rotate(-90) scale(0.1 -0.1)">
      <defs>
       <path id="DejaVuSans-4c" d="M 628 4666 
L 1259 4666 
L 1259 531 
L 3531 531 
L 3531 0 
L 628 0 
L 628 4666 
z
" transform="scale(0.015625)"/>
       <path id="DejaVuSans-75" d="M 544 1381 
L 544 3500 
L 1119 3500 
L 1119 1403 
Q 1119 906 1312 657 
Q 1506 409 1894 409 
Q 2359 409 2629 706 
Q 2900 1003 2900 1516 
L 2900 3500 
L 3475 3500 
L 3475 0 
L 2900 0 
L 2900 538 
Q 2691 219 2414 64 
Q 2138 -91 1772 -91 
Q 1169 -91 856 284 
Q 544 659 544 1381 
z
M 1991 3584 
L 1991 3584 
z
" transform="scale(0.015625)"/>
       <path id="DejaVuSans-6e" d="M 3513 2113 
L 3513 0 
L 2938 0 
L 2938 2094 
Q 2938 2591 2744 2837 
Q 2550 3084 2163 3084 
Q 1697 3084 1428 2787 
Q 1159 2491 1159 1978 
L 1159 0 
L 581 0 
L 581 3500 
L 1159 3500 
L 1159 2956 
Q 1366 3272 1645 3428 
Q 1925 3584 2291 3584 
Q 2894 3584 3203 3211 
Q 3513 2838 3513 2113 
z
" transform="scale(0.015625)"/>
       <path id="DejaVuSans-67" d="M 2906 1791 
Q 2906 2416 2648 2759 
Q 2391 3103 1925 3103 
Q 1463 3103 1205 2759 
Q 947 2416 947 1791 
Q 947 1169 1205 825 
Q 1463 481 1925 481 
Q 2391 481 2648 825 
Q 2906 1169 2906 1791 
z
M 3481 434 
Q 3481 -459 3084 -895 
Q 2688 -1331 1869 -1331 
Q 1566 -1331 1297 -1286 
Q 1028 -1241 775 -1147 
L 775 -588 
Q 1028 -725 1275 -790 
Q 1522 -856 1778 -856 
Q 2344 -856 2625 -561 
Q 2906 -266 2906 331 
L 2906 616 
Q 2728 306 2450 153 
Q 2172 0 1784 0 
Q 1141 0 747 490 
Q 353 981 353 1791 
Q 353 2603 747 3093 
Q 1141 3584 1784 3584 
Q 2172 3584 2450 3431 
Q 2728 3278 2906 2969 
L 2906 3500 
L 3481 3500 
L 3481 434 
z
" transform="scale(0.015625)"/>
       <path id="DejaVuSans-56" d="M 1831 0 
L 50 4666 
L 709 4666 
L 2188 738 
L 3669 4666 
L 4325 4666 
L 2547 0 
L 1831 0 
z
" transform="scale(0.015625)"/>
       <path id="DejaVuSans-6f" d="M 1959 3097 
Q 1497 3097 1228 2736 
Q 959 2375 959 1747 
Q 959 1119 1226 758 
Q 1494 397 1959 397 
Q 2419 397 2687 759 
Q 2956 1122 2956 1747 
Q 2956 2369 2687 2733 
Q 2419 3097 1959 3097 
z
M 1959 3584 
Q 2709 3584 3137 3096 
Q 3566 2609 3566 1747 
Q 3566 888 3137 398 
Q 2709 -91 1959 -91 
Q 1206 -91 779 398 
Q 353 888 353 1747 
Q 353 2609 779 3096 
Q 1206 3584 1959 3584 
z
" transform="scale(0.015625)"/>
       <path id="DejaVuSans-6c" d="M 603 4863 
L 1178 4863 
L 1178 0 
L 603 0 
L 603 4863 
z
" transform="scale(0.015625)"/>
      </defs>
      <use xlink:href="#DejaVuSans-4c"/>
      <use xlink:href="#DejaVuSans-75" x="53.962891"/>
      <use xlink:href="#DejaVuSans-6e" x="117.341797"/>
      <use xlink:href="#DejaVuSans-67" x="180.720703"/>
      <use xlink:href="#DejaVuSans-20" x="244.197266"/>
      <use xlink:href="#DejaVuSans-56" x="275.984375"/>
      <use xlink:href="#DejaVuSans-6f" x="336.642578"/>
      <use xlink:href="#DejaVuSans-6c" x="397.824219"/>
      <use xlink:href="#DejaVuSans-75" x="425.607422"/>
      <use xlink:href="#DejaVuSans-6d" x="488.986328"/>
      <use xlink:href="#DejaVuSans-65" x="586.398438"/>
      <use xlink:href="#DejaVuSans-20" x="647.921875"/>
      <use xlink:href="#DejaVuSans-28" x="679.708984"/>
      <use xlink:href="#DejaVuSans-4c" x="718.722656"/>
      <use xlink:href="#DejaVuSans-29" x="774.435547"/>
     </g>
    </g>
   </g>
   <g id="line2d_17">
    <path d="M 79.322746 290.541565 
L 88.062803 276.445104 
L 92.884904 269.099261 
L 96.80286 263.52587 
L 100.118055 259.162472 
L 103.131868 255.523593 
L 106.145681 252.234601 
L 108.858112 249.600902 
L 111.269163 247.537441 
L 113.680213 245.74906 
L 116.091263 244.247198 
L 118.200932 243.175702 
L 120.310601 242.336204 
L 122.42027 241.732817 
L 124.529939 241.368494 
L 126.639608 241.245021 
L 128.749277 241.363003 
L 130.858947 241.721861 
L 132.968616 242.319838 
L 135.078285 243.154005 
L 137.187954 244.220276 
L 139.297623 245.513429 
L 141.708673 247.260957 
L 144.119723 249.285334 
L 146.832155 251.877488 
L 149.544587 254.78261 
L 152.5584 258.348903 
L 155.873594 262.64187 
L 159.490169 267.707829 
L 163.709507 274.027802 
L 168.832989 282.124087 
L 186.313104 310.119604 
L 190.532442 316.241281 
L 194.149018 321.09246 
L 197.464212 325.154962 
L 200.478025 328.486268 
L 203.190457 331.161159 
L 205.902888 333.507252 
L 208.313939 335.301228 
L 210.724989 336.808894 
L 212.834658 337.885611 
L 214.944327 338.730437 
L 217.053996 339.339234 
L 219.163665 339.70902 
L 221.273334 339.837984 
L 223.383003 339.725494 
L 225.492672 339.372102 
L 227.602341 338.779537 
L 229.71201 337.950703 
L 231.821679 336.889659 
L 233.931348 335.601602 
L 236.342399 333.859704 
L 238.753449 331.840718 
L 241.465881 329.254299 
L 244.178312 326.354518 
L 247.192125 322.793646 
L 250.50732 318.505953 
L 254.123895 313.444854 
L 258.343233 307.129284 
L 263.466715 299.036392 
L 280.94683 271.035607 
L 285.166168 264.908881 
L 288.782744 260.052327 
L 292.097938 255.984116 
L 295.111751 252.647031 
L 297.824182 249.966509 
L 300.536614 247.614424 
L 302.947664 245.81486 
L 305.358715 244.301393 
L 307.468384 243.219457 
L 309.578053 242.369305 
L 311.687722 241.7551 
L 313.797391 241.379851 
L 315.90706 241.245396 
L 318.016729 241.352394 
L 320.126398 241.700321 
L 322.236067 242.287471 
L 324.345736 243.110971 
L 326.455405 244.166785 
L 328.565074 245.449743 
L 330.976125 247.186005 
L 333.387175 249.199595 
L 336.099607 251.780273 
L 338.812038 254.674705 
L 341.825851 258.230148 
L 345.141045 262.512555 
L 348.757621 267.568781 
L 352.976959 273.879934 
L 358.100441 281.969412 
L 375.881937 310.427458 
L 379.799894 316.107153 
L 383.416469 320.96907 
L 386.731664 325.04298 
L 389.745477 328.385835 
L 392.457908 331.07198 
L 395.17034 333.430051 
L 397.58139 335.235201 
L 399.992441 336.754463 
L 402.10211 337.841616 
L 404.211779 338.697093 
L 406.321448 339.316704 
L 408.431117 339.697414 
L 410.540786 339.837359 
L 412.650455 339.735853 
L 414.760124 339.393394 
L 416.869793 338.811659 
L 418.979462 337.993496 
L 421.089131 336.942914 
L 423.1988 335.665059 
L 425.60985 333.934437 
L 428.020901 331.926248 
L 430.733332 329.351318 
L 433.445764 326.462242 
L 436.459577 322.912237 
L 439.774771 318.635126 
L 443.391347 313.583786 
L 447.610685 307.277068 
L 452.734167 299.191024 
L 470.515663 270.727539 
L 474.43362 265.043139 
L 478.050195 260.175871 
L 481.365389 256.096273 
L 484.379202 252.747657 
L 487.091634 250.055893 
L 489.804066 247.691843 
L 492.215116 245.881113 
L 494.626166 244.356058 
L 496.735835 243.263692 
L 498.845504 242.402893 
L 500.955173 241.777878 
L 503.064843 241.391707 
L 505.174512 241.246272 
L 507.284181 241.342285 
L 509.39385 241.679276 
L 511.503519 242.255595 
L 513.613188 243.068418 
L 515.722857 244.113765 
L 517.832526 245.386515 
L 520.243576 247.111493 
L 522.654627 249.114275 
L 525.367058 251.68345 
L 528.07949 254.567164 
L 531.093303 258.111721 
L 534.408497 262.383525 
L 538.025072 267.429966 
L 542.244411 273.732235 
L 547.367892 281.814823 
L 565.149389 310.283675 
L 569.368727 316.393791 
L 572.985302 321.232673 
L 576.300497 325.282128 
L 579.314309 328.600234 
L 582.026741 331.262267 
L 584.739173 333.594685 
L 587.150223 335.375906 
L 589.561273 336.87034 
L 591.670942 337.935154 
L 593.780612 338.767834 
L 595.890281 339.364302 
L 597.99995 339.721637 
L 600.109619 339.838087 
L 602.219288 339.713083 
L 604.328957 339.347237 
L 606.438626 338.742341 
L 608.548295 337.901357 
L 610.657964 336.828405 
L 612.767633 335.528741 
L 615.178683 333.774017 
L 617.589734 331.742754 
L 620.302165 329.143275 
L 623.014597 326.231334 
L 626.02841 322.658123 
L 629.343604 318.358426 
L 632.96018 313.28627 
L 637.179518 306.960692 
L 642.303 298.860096 
L 659.481733 271.324419 
L 663.701071 265.177656 
L 667.317647 260.299723 
L 670.632841 256.20878 
L 673.646654 252.848666 
L 676.359086 250.145688 
L 679.071517 247.769696 
L 681.482568 245.94782 
L 681.783949 245.739922 
L 681.783949 245.739922 
" clip-path="url(#p0593030ecc)" style="fill: none; stroke: #1f77b4; stroke-width: 1.5; stroke-linecap: square"/>
   </g>
   <g id="line2d_18">
    <path d="M 79.322746 241.245005 
L 681.783949 241.245005 
L 681.783949 241.245005 
" clip-path="url(#p0593030ecc)" style="fill: none; stroke-dasharray: 5.55,2.4; stroke-dashoffset: 0; stroke: #1f77b4; stroke-width: 1.5"/>
   </g>
   <g id="line2d_19">
    <path d="M 79.322746 339.838125 
L 681.783949 339.838125 
L 681.783949 339.838125 
" clip-path="url(#p0593030ecc)" style="fill: none; stroke-dasharray: 5.55,2.4; stroke-dashoffset: 0; stroke: #1f77b4; stroke-width: 1.5"/>
   </g>
   <g id="line2d_20">
    <path d="M 79.322746 290.541565 
L 86.314857 273.216985 
L 90.101524 264.420001 
L 93.229477 257.667114 
L 96.168782 251.833564 
L 98.914557 246.881765 
L 101.458626 242.748818 
L 103.790773 239.356092 
L 106.165871 236.293896 
L 108.314956 233.863489 
L 110.5011 231.718267 
L 112.725406 229.866707 
L 114.703658 228.492721 
L 116.712204 227.351866 
L 118.751316 226.446217 
L 120.821113 225.776695 
L 122.921563 225.343065 
L 125.052487 225.143937 
L 127.213554 225.176773 
L 129.404287 225.437897 
L 131.624064 225.922517 
L 133.872118 226.624744 
L 136.474784 227.68478 
L 139.111636 229.007897 
L 141.780895 230.580385 
L 144.820062 232.628398 
L 148.238248 235.222044 
L 152.043055 238.419824 
L 156.239508 242.260408 
L 161.183354 247.110335 
L 167.590921 253.739908 
L 183.991783 270.88199 
L 188.923361 275.637514 
L 193.106069 279.372321 
L 196.895832 282.454337 
L 200.298471 284.928341 
L 203.322253 286.857967 
L 206.306355 288.482236 
L 208.923405 289.65296 
L 211.505325 290.553357 
L 213.73456 291.110758 
L 215.934988 291.446493 
L 218.105942 291.555405 
L 220.246893 291.433445 
L 222.357465 291.077697 
L 224.437425 290.48639 
L 226.486694 289.658905 
L 228.505342 288.595782 
L 230.493589 287.298713 
L 232.451804 285.770537 
L 234.653658 283.746209 
L 236.817967 281.432954 
L 238.945971 278.840326 
L 241.298424 275.603866 
L 243.609235 272.046953 
L 246.131343 267.745009 
L 248.855335 262.625584 
L 251.774013 256.633301 
L 254.883644 249.739425 
L 258.653946 240.816505 
L 264.009926 227.498632 
L 271.465438 208.997991 
L 275.250926 200.191938 
L 278.377583 193.429078 
L 281.315443 187.584404 
L 284.0597 182.620929 
L 286.602247 178.476263 
L 288.932919 175.07219 
L 291.306456 171.997984 
L 293.454092 169.556423 
L 295.638738 167.399672 
L 297.861506 165.536281 
L 299.838388 164.151754 
L 301.84555 163.000237 
L 303.883267 162.083856 
L 305.951666 161.403586 
L 308.050725 160.959243 
L 310.180268 160.749491 
L 312.339973 160.771843 
L 314.529368 161.022674 
L 316.747839 161.497244 
L 318.994625 162.189712 
L 321.595895 163.239013 
L 324.23142 164.551906 
L 326.899424 166.114747 
L 329.937281 168.152674 
L 333.354146 170.736159 
L 337.157682 173.924153 
L 341.352981 177.755854 
L 346.295809 182.597948 
L 352.702616 189.221679 
L 369.458313 206.723287 
L 374.3875 211.460412 
L 378.567567 215.174896 
L 382.354464 218.234852 
L 385.754156 220.686185 
L 388.775035 222.593467 
L 391.426854 224.031753 
L 394.04527 225.212988 
L 396.628618 226.124371 
L 398.859145 226.691718 
L 401.0609 227.03766 
L 403.233207 227.15699 
L 405.375533 227.045607 
L 407.487493 226.700545 
L 409.568849 226.119979 
L 411.619514 225.303238 
L 413.639552 224.250809 
L 415.629176 222.964333 
L 417.588747 221.446596 
L 419.792119 219.433944 
L 421.9579 217.132022 
L 424.087323 214.550313 
L 426.441297 211.325553 
L 428.753536 207.779633 
L 431.277109 203.488964 
L 434.002547 198.380671 
L 436.922587 192.398861 
L 440.033415 185.514195 
L 443.804765 176.599341 
L 449.161383 163.286379 
L 456.850946 144.215797 
L 460.638967 135.429235 
L 463.768405 128.687779 
L 466.709365 122.866962 
L 469.456875 117.928513 
L 472.002684 113.808957 
L 474.336515 110.42919 
L 476.713395 107.380705 
L 478.864134 104.963027 
L 481.051987 102.830958 
L 483.278046 100.992891 
L 485.25786 99.630923 
L 487.267986 98.502223 
L 489.308687 97.608804 
L 491.380075 96.951528 
L 493.482111 96.530101 
L 495.614607 96.343072 
L 497.777226 96.387844 
L 499.969481 96.660684 
L 502.190744 97.15674 
L 504.440241 97.870069 
L 507.044493 98.942314 
L 509.682856 100.277053 
L 512.68955 102.075173 
L 515.734281 104.166002 
L 519.158062 106.802706 
L 522.968246 110.041866 
L 527.169563 113.919874 
L 532.11767 118.802598 
L 538.885483 125.833337 
L 553.862959 141.506164 
L 558.800127 146.30471 
L 562.989057 150.087393 
L 566.785603 153.2216 
L 570.195232 155.749401 
L 573.225919 157.732158 
L 576.217448 159.413579 
L 578.841489 160.638107 
L 581.430722 161.594775 
L 583.666581 162.203153 
L 585.873811 162.591231 
L 588.051711 162.753593 
L 590.199718 162.685929 
L 592.31742 162.385058 
L 594.404552 161.848938 
L 596.460998 161.076681 
L 598.486793 160.068556 
L 600.482122 158.825987 
L 602.44732 157.351545 
L 604.656989 155.387351 
L 606.828887 153.132502 
L 608.964208 150.596178 
L 611.324508 147.420099 
L 613.642696 143.919962 
L 616.17238 139.676317 
L 618.903862 134.614533 
L 621.829602 128.676587 
L 624.945462 121.830644 
L 628.721252 112.949961 
L 633.848469 100.242715 
L 642.236541 79.434273 
L 646.027138 70.667534 
L 649.15939 63.947734 
L 652.103478 58.150985 
L 654.854262 53.237739 
L 657.403354 49.143437 
L 659.740358 45.788091 
L 662.120593 42.765425 
L 662.924004 41.834817 
L 662.924004 41.834817 
" clip-path="url(#p0593030ecc)" style="fill: none; stroke: #ff7f0e; stroke-width: 1.5; stroke-linecap: square"/>
   </g>
   <g id="line2d_21">
    <path d="M 73.056676 242.322254 
L 662.352657 37.438125 
L 662.352657 37.438125 
" clip-path="url(#p0593030ecc)" style="fill: none; stroke-dasharray: 5.55,2.4; stroke-dashoffset: 0; stroke: #ffa500; stroke-width: 1.5"/>
   </g>
   <g id="line2d_22">
    <path d="M 85.588815 338.760877 
L 674.884796 133.876748 
L 674.884796 133.876748 
" clip-path="url(#p0593030ecc)" style="fill: none; stroke-dasharray: 5.55,2.4; stroke-dashoffset: 0; stroke: #ffa500; stroke-width: 1.5"/>
   </g>
   <g id="patch_3">
    <path d="M 42.620313 354.958125 
L 42.620313 22.318125 
" style="fill: none; stroke: #000000; stroke-width: 0.8; stroke-linejoin: miter; stroke-linecap: square"/>
   </g>
   <g id="patch_4">
    <path d="M 712.220313 354.958125 
L 712.220313 22.318125 
" style="fill: none; stroke: #000000; stroke-width: 0.8; stroke-linejoin: miter; stroke-linecap: square"/>
   </g>
   <g id="patch_5">
    <path d="M 42.620313 354.958125 
L 712.220313 354.958125 
" style="fill: none; stroke: #000000; stroke-width: 0.8; stroke-linejoin: miter; stroke-linecap: square"/>
   </g>
   <g id="patch_6">
    <path d="M 42.620313 22.318125 
L 712.220313 22.318125 
" style="fill: none; stroke: #000000; stroke-width: 0.8; stroke-linejoin: miter; stroke-linecap: square"/>
   </g>
   <g id="text_19">
    <!-- Time(s) vs. Lung Volume(L) -->
    <g transform="translate(295.634688 16.318125) scale(0.12 -0.12)">
     <defs>
      <path id="DejaVuSans-76" d="M 191 3500 
L 800 3500 
L 1894 563 
L 2988 3500 
L 3597 3500 
L 2284 0 
L 1503 0 
L 191 3500 
z
" transform="scale(0.015625)"/>
     </defs>
     <use xlink:href="#DejaVuSans-54"/>
     <use xlink:href="#DejaVuSans-69" x="57.958984"/>
     <use xlink:href="#DejaVuSans-6d" x="85.742188"/>
     <use xlink:href="#DejaVuSans-65" x="183.154297"/>
     <use xlink:href="#DejaVuSans-28" x="244.677734"/>
     <use xlink:href="#DejaVuSans-73" x="283.691406"/>
     <use xlink:href="#DejaVuSans-29" x="335.791016"/>
     <use xlink:href="#DejaVuSans-20" x="374.804688"/>
     <use xlink:href="#DejaVuSans-76" x="406.591797"/>
     <use xlink:href="#DejaVuSans-73" x="465.771484"/>
     <use xlink:href="#DejaVuSans-2e" x="517.871094"/>
     <use xlink:href="#DejaVuSans-20" x="549.658203"/>
     <use xlink:href="#DejaVuSans-4c" x="581.445312"/>
     <use xlink:href="#DejaVuSans-75" x="635.408203"/>
     <use xlink:href="#DejaVuSans-6e" x="698.787109"/>
     <use xlink:href="#DejaVuSans-67" x="762.166016"/>
     <use xlink:href="#DejaVuSans-20" x="825.642578"/>
     <use xlink:href="#DejaVuSans-56" x="857.429688"/>
     <use xlink:href="#DejaVuSans-6f" x="918.087891"/>
     <use xlink:href="#DejaVuSans-6c" x="979.269531"/>
     <use xlink:href="#DejaVuSans-75" x="1007.052734"/>
     <use xlink:href="#DejaVuSans-6d" x="1070.431641"/>
     <use xlink:href="#DejaVuSans-65" x="1167.84375"/>
     <use xlink:href="#DejaVuSans-28" x="1229.367188"/>
     <use xlink:href="#DejaVuSans-4c" x="1268.380859"/>
     <use xlink:href="#DejaVuSans-29" x="1324.09375"/>
    </g>
   </g>
   <g id="legend_1">
    <g id="patch_7">
     <path d="M 49.620313 118.386875 
L 347.295313 118.386875 
Q 349.295313 118.386875 349.295313 116.386875 
L 349.295313 29.318125 
Q 349.295313 27.318125 347.295313 27.318125 
L 49.620313 27.318125 
Q 47.620313 27.318125 47.620313 29.318125 
L 47.620313 116.386875 
Q 47.620313 118.386875 49.620313 118.386875 
z
" style="fill: #ffffff; opacity: 0.8; stroke: #cccccc; stroke-linejoin: miter"/>
    </g>
    <g id="line2d_23">
     <path d="M 51.620313 35.416562 
L 61.620313 35.416562 
L 71.620313 35.416562 
" style="fill: none; stroke: #1f77b4; stroke-width: 1.5; stroke-linecap: square"/>
    </g>
    <g id="text_20">
     <!-- Sine Wave y = sin(x) -->
     <g transform="translate(79.620313 38.916562) scale(0.1 -0.1)">
      <defs>
       <path id="DejaVuSans-53" d="M 3425 4513 
L 3425 3897 
Q 3066 4069 2747 4153 
Q 2428 4238 2131 4238 
Q 1616 4238 1336 4038 
Q 1056 3838 1056 3469 
Q 1056 3159 1242 3001 
Q 1428 2844 1947 2747 
L 2328 2669 
Q 3034 2534 3370 2195 
Q 3706 1856 3706 1288 
Q 3706 609 3251 259 
Q 2797 -91 1919 -91 
Q 1588 -91 1214 -16 
Q 841 59 441 206 
L 441 856 
Q 825 641 1194 531 
Q 1563 422 1919 422 
Q 2459 422 2753 634 
Q 3047 847 3047 1241 
Q 3047 1584 2836 1778 
Q 2625 1972 2144 2069 
L 1759 2144 
Q 1053 2284 737 2584 
Q 422 2884 422 3419 
Q 422 4038 858 4394 
Q 1294 4750 2059 4750 
Q 2388 4750 2728 4690 
Q 3069 4631 3425 4513 
z
" transform="scale(0.015625)"/>
       <path id="DejaVuSans-57" d="M 213 4666 
L 850 4666 
L 1831 722 
L 2809 4666 
L 3519 4666 
L 4500 722 
L 5478 4666 
L 6119 4666 
L 4947 0 
L 4153 0 
L 3169 4050 
L 2175 0 
L 1381 0 
L 213 4666 
z
" transform="scale(0.015625)"/>
       <path id="DejaVuSans-61" d="M 2194 1759 
Q 1497 1759 1228 1600 
Q 959 1441 959 1056 
Q 959 750 1161 570 
Q 1363 391 1709 391 
Q 2188 391 2477 730 
Q 2766 1069 2766 1631 
L 2766 1759 
L 2194 1759 
z
M 3341 1997 
L 3341 0 
L 2766 0 
L 2766 531 
Q 2569 213 2275 61 
Q 1981 -91 1556 -91 
Q 1019 -91 701 211 
Q 384 513 384 1019 
Q 384 1609 779 1909 
Q 1175 2209 1959 2209 
L 2766 2209 
L 2766 2266 
Q 2766 2663 2505 2880 
Q 2244 3097 1772 3097 
Q 1472 3097 1187 3025 
Q 903 2953 641 2809 
L 641 3341 
Q 956 3463 1253 3523 
Q 1550 3584 1831 3584 
Q 2591 3584 2966 3190 
Q 3341 2797 3341 1997 
z
" transform="scale(0.015625)"/>
       <path id="DejaVuSans-79" d="M 2059 -325 
Q 1816 -950 1584 -1140 
Q 1353 -1331 966 -1331 
L 506 -1331 
L 506 -850 
L 844 -850 
Q 1081 -850 1212 -737 
Q 1344 -625 1503 -206 
L 1606 56 
L 191 3500 
L 800 3500 
L 1894 763 
L 2988 3500 
L 3597 3500 
L 2059 -325 
z
" transform="scale(0.015625)"/>
       <path id="DejaVuSans-3d" d="M 678 2906 
L 4684 2906 
L 4684 2381 
L 678 2381 
L 678 2906 
z
M 678 1631 
L 4684 1631 
L 4684 1100 
L 678 1100 
L 678 1631 
z
" transform="scale(0.015625)"/>
       <path id="DejaVuSans-78" d="M 3513 3500 
L 2247 1797 
L 3578 0 
L 2900 0 
L 1881 1375 
L 863 0 
L 184 0 
L 1544 1831 
L 300 3500 
L 978 3500 
L 1906 2253 
L 2834 3500 
L 3513 3500 
z
" transform="scale(0.015625)"/>
      </defs>
      <use xlink:href="#DejaVuSans-53"/>
      <use xlink:href="#DejaVuSans-69" x="63.476562"/>
      <use xlink:href="#DejaVuSans-6e" x="91.259766"/>
      <use xlink:href="#DejaVuSans-65" x="154.638672"/>
      <use xlink:href="#DejaVuSans-20" x="216.162109"/>
      <use xlink:href="#DejaVuSans-57" x="247.949219"/>
      <use xlink:href="#DejaVuSans-61" x="340.451172"/>
      <use xlink:href="#DejaVuSans-76" x="401.730469"/>
      <use xlink:href="#DejaVuSans-65" x="460.910156"/>
      <use xlink:href="#DejaVuSans-20" x="522.433594"/>
      <use xlink:href="#DejaVuSans-79" x="554.220703"/>
      <use xlink:href="#DejaVuSans-20" x="613.400391"/>
      <use xlink:href="#DejaVuSans-3d" x="645.1875"/>
      <use xlink:href="#DejaVuSans-20" x="728.976562"/>
      <use xlink:href="#DejaVuSans-73" x="760.763672"/>
      <use xlink:href="#DejaVuSans-69" x="812.863281"/>
      <use xlink:href="#DejaVuSans-6e" x="840.646484"/>
      <use xlink:href="#DejaVuSans-28" x="904.025391"/>
      <use xlink:href="#DejaVuSans-78" x="943.039062"/>
      <use xlink:href="#DejaVuSans-29" x="1002.21875"/>
     </g>
    </g>
    <g id="line2d_24">
     <path d="M 51.620313 50.094688 
L 61.620313 50.094688 
L 71.620313 50.094688 
" style="fill: none; stroke-dasharray: 5.55,2.4; stroke-dashoffset: 0; stroke: #1f77b4; stroke-width: 1.5"/>
    </g>
    <g id="text_21">
     <!-- y=1 -->
     <g transform="translate(79.620313 53.594688) scale(0.1 -0.1)">
      <use xlink:href="#DejaVuSans-79"/>
      <use xlink:href="#DejaVuSans-3d" x="59.179688"/>
      <use xlink:href="#DejaVuSans-31" x="142.96875"/>
     </g>
    </g>
    <g id="line2d_25">
     <path d="M 51.620313 64.772812 
L 61.620313 64.772812 
L 71.620313 64.772812 
" style="fill: none; stroke-dasharray: 5.55,2.4; stroke-dashoffset: 0; stroke: #1f77b4; stroke-width: 1.5"/>
    </g>
    <g id="text_22">
     <!-- y=-1 -->
     <g transform="translate(79.620313 68.272812) scale(0.1 -0.1)">
      <defs>
       <path id="DejaVuSans-2d" d="M 313 2009 
L 1997 2009 
L 1997 1497 
L 313 1497 
L 313 2009 
z
" transform="scale(0.015625)"/>
      </defs>
      <use xlink:href="#DejaVuSans-79"/>
      <use xlink:href="#DejaVuSans-3d" x="59.179688"/>
      <use xlink:href="#DejaVuSans-2d" x="142.96875"/>
      <use xlink:href="#DejaVuSans-31" x="179.052734"/>
     </g>
    </g>
    <g id="line2d_26">
     <path d="M 51.620313 79.450938 
L 61.620313 79.450938 
L 71.620313 79.450938 
" style="fill: none; stroke: #ff7f0e; stroke-width: 1.5; stroke-linecap: square"/>
    </g>
    <g id="text_23">
     <!-- y = sin(x) after counter-clockwise 12-degree rotation -->
     <g transform="translate(79.620313 82.950938) scale(0.1 -0.1)">
      <defs>
       <path id="DejaVuSans-66" d="M 2375 4863 
L 2375 4384 
L 1825 4384 
Q 1516 4384 1395 4259 
Q 1275 4134 1275 3809 
L 1275 3500 
L 2222 3500 
L 2222 3053 
L 1275 3053 
L 1275 0 
L 697 0 
L 697 3053 
L 147 3053 
L 147 3500 
L 697 3500 
L 697 3744 
Q 697 4328 969 4595 
Q 1241 4863 1831 4863 
L 2375 4863 
z
" transform="scale(0.015625)"/>
       <path id="DejaVuSans-74" d="M 1172 4494 
L 1172 3500 
L 2356 3500 
L 2356 3053 
L 1172 3053 
L 1172 1153 
Q 1172 725 1289 603 
Q 1406 481 1766 481 
L 2356 481 
L 2356 0 
L 1766 0 
Q 1100 0 847 248 
Q 594 497 594 1153 
L 594 3053 
L 172 3053 
L 172 3500 
L 594 3500 
L 594 4494 
L 1172 4494 
z
" transform="scale(0.015625)"/>
       <path id="DejaVuSans-72" d="M 2631 2963 
Q 2534 3019 2420 3045 
Q 2306 3072 2169 3072 
Q 1681 3072 1420 2755 
Q 1159 2438 1159 1844 
L 1159 0 
L 581 0 
L 581 3500 
L 1159 3500 
L 1159 2956 
Q 1341 3275 1631 3429 
Q 1922 3584 2338 3584 
Q 2397 3584 2469 3576 
Q 2541 3569 2628 3553 
L 2631 2963 
z
" transform="scale(0.015625)"/>
       <path id="DejaVuSans-63" d="M 3122 3366 
L 3122 2828 
Q 2878 2963 2633 3030 
Q 2388 3097 2138 3097 
Q 1578 3097 1268 2742 
Q 959 2388 959 1747 
Q 959 1106 1268 751 
Q 1578 397 2138 397 
Q 2388 397 2633 464 
Q 2878 531 3122 666 
L 3122 134 
Q 2881 22 2623 -34 
Q 2366 -91 2075 -91 
Q 1284 -91 818 406 
Q 353 903 353 1747 
Q 353 2603 823 3093 
Q 1294 3584 2113 3584 
Q 2378 3584 2631 3529 
Q 2884 3475 3122 3366 
z
" transform="scale(0.015625)"/>
       <path id="DejaVuSans-6b" d="M 581 4863 
L 1159 4863 
L 1159 1991 
L 2875 3500 
L 3609 3500 
L 1753 1863 
L 3688 0 
L 2938 0 
L 1159 1709 
L 1159 0 
L 581 0 
L 581 4863 
z
" transform="scale(0.015625)"/>
       <path id="DejaVuSans-77" d="M 269 3500 
L 844 3500 
L 1563 769 
L 2278 3500 
L 2956 3500 
L 3675 769 
L 4391 3500 
L 4966 3500 
L 4050 0 
L 3372 0 
L 2619 2869 
L 1863 0 
L 1184 0 
L 269 3500 
z
" transform="scale(0.015625)"/>
       <path id="DejaVuSans-64" d="M 2906 2969 
L 2906 4863 
L 3481 4863 
L 3481 0 
L 2906 0 
L 2906 525 
Q 2725 213 2448 61 
Q 2172 -91 1784 -91 
Q 1150 -91 751 415 
Q 353 922 353 1747 
Q 353 2572 751 3078 
Q 1150 3584 1784 3584 
Q 2172 3584 2448 3432 
Q 2725 3281 2906 2969 
z
M 947 1747 
Q 947 1113 1208 752 
Q 1469 391 1925 391 
Q 2381 391 2643 752 
Q 2906 1113 2906 1747 
Q 2906 2381 2643 2742 
Q 2381 3103 1925 3103 
Q 1469 3103 1208 2742 
Q 947 2381 947 1747 
z
" transform="scale(0.015625)"/>
      </defs>
      <use xlink:href="#DejaVuSans-79"/>
      <use xlink:href="#DejaVuSans-20" x="59.179688"/>
      <use xlink:href="#DejaVuSans-3d" x="90.966797"/>
      <use xlink:href="#DejaVuSans-20" x="174.755859"/>
      <use xlink:href="#DejaVuSans-73" x="206.542969"/>
      <use xlink:href="#DejaVuSans-69" x="258.642578"/>
      <use xlink:href="#DejaVuSans-6e" x="286.425781"/>
      <use xlink:href="#DejaVuSans-28" x="349.804688"/>
      <use xlink:href="#DejaVuSans-78" x="388.818359"/>
      <use xlink:href="#DejaVuSans-29" x="447.998047"/>
      <use xlink:href="#DejaVuSans-20" x="487.011719"/>
      <use xlink:href="#DejaVuSans-61" x="518.798828"/>
      <use xlink:href="#DejaVuSans-66" x="580.078125"/>
      <use xlink:href="#DejaVuSans-74" x="613.533203"/>
      <use xlink:href="#DejaVuSans-65" x="652.742188"/>
      <use xlink:href="#DejaVuSans-72" x="714.265625"/>
      <use xlink:href="#DejaVuSans-20" x="755.378906"/>
      <use xlink:href="#DejaVuSans-63" x="787.166016"/>
      <use xlink:href="#DejaVuSans-6f" x="842.146484"/>
      <use xlink:href="#DejaVuSans-75" x="903.328125"/>
      <use xlink:href="#DejaVuSans-6e" x="966.707031"/>
      <use xlink:href="#DejaVuSans-74" x="1030.085938"/>
      <use xlink:href="#DejaVuSans-65" x="1069.294922"/>
      <use xlink:href="#DejaVuSans-72" x="1130.818359"/>
      <use xlink:href="#DejaVuSans-2d" x="1165.556641"/>
      <use xlink:href="#DejaVuSans-63" x="1201.640625"/>
      <use xlink:href="#DejaVuSans-6c" x="1256.621094"/>
      <use xlink:href="#DejaVuSans-6f" x="1284.404297"/>
      <use xlink:href="#DejaVuSans-63" x="1345.585938"/>
      <use xlink:href="#DejaVuSans-6b" x="1400.566406"/>
      <use xlink:href="#DejaVuSans-77" x="1458.476562"/>
      <use xlink:href="#DejaVuSans-69" x="1540.263672"/>
      <use xlink:href="#DejaVuSans-73" x="1568.046875"/>
      <use xlink:href="#DejaVuSans-65" x="1620.146484"/>
      <use xlink:href="#DejaVuSans-20" x="1681.669922"/>
      <use xlink:href="#DejaVuSans-31" x="1713.457031"/>
      <use xlink:href="#DejaVuSans-32" x="1777.080078"/>
      <use xlink:href="#DejaVuSans-2d" x="1840.703125"/>
      <use xlink:href="#DejaVuSans-64" x="1876.787109"/>
      <use xlink:href="#DejaVuSans-65" x="1940.263672"/>
      <use xlink:href="#DejaVuSans-67" x="2001.787109"/>
      <use xlink:href="#DejaVuSans-72" x="2065.263672"/>
      <use xlink:href="#DejaVuSans-65" x="2104.126953"/>
      <use xlink:href="#DejaVuSans-65" x="2165.650391"/>
      <use xlink:href="#DejaVuSans-20" x="2227.173828"/>
      <use xlink:href="#DejaVuSans-72" x="2258.960938"/>
      <use xlink:href="#DejaVuSans-6f" x="2297.824219"/>
      <use xlink:href="#DejaVuSans-74" x="2359.005859"/>
      <use xlink:href="#DejaVuSans-61" x="2398.214844"/>
      <use xlink:href="#DejaVuSans-74" x="2459.494141"/>
      <use xlink:href="#DejaVuSans-69" x="2498.703125"/>
      <use xlink:href="#DejaVuSans-6f" x="2526.486328"/>
      <use xlink:href="#DejaVuSans-6e" x="2587.667969"/>
     </g>
    </g>
    <g id="line2d_27">
     <path d="M 51.620313 94.129063 
L 61.620313 94.129063 
L 71.620313 94.129063 
" style="fill: none; stroke-dasharray: 5.55,2.4; stroke-dashoffset: 0; stroke: #ffa500; stroke-width: 1.5"/>
    </g>
    <g id="text_24">
     <!-- Maximum after counter-clockwise 12-degree rotation -->
     <g transform="translate(79.620313 97.629063) scale(0.1 -0.1)">
      <defs>
       <path id="DejaVuSans-4d" d="M 628 4666 
L 1569 4666 
L 2759 1491 
L 3956 4666 
L 4897 4666 
L 4897 0 
L 4281 0 
L 4281 4097 
L 3078 897 
L 2444 897 
L 1241 4097 
L 1241 0 
L 628 0 
L 628 4666 
z
" transform="scale(0.015625)"/>
      </defs>
      <use xlink:href="#DejaVuSans-4d"/>
      <use xlink:href="#DejaVuSans-61" x="86.279297"/>
      <use xlink:href="#DejaVuSans-78" x="147.558594"/>
      <use xlink:href="#DejaVuSans-69" x="206.738281"/>
      <use xlink:href="#DejaVuSans-6d" x="234.521484"/>
      <use xlink:href="#DejaVuSans-75" x="331.933594"/>
      <use xlink:href="#DejaVuSans-6d" x="395.3125"/>
      <use xlink:href="#DejaVuSans-20" x="492.724609"/>
      <use xlink:href="#DejaVuSans-61" x="524.511719"/>
      <use xlink:href="#DejaVuSans-66" x="585.791016"/>
      <use xlink:href="#DejaVuSans-74" x="619.246094"/>
      <use xlink:href="#DejaVuSans-65" x="658.455078"/>
      <use xlink:href="#DejaVuSans-72" x="719.978516"/>
      <use xlink:href="#DejaVuSans-20" x="761.091797"/>
      <use xlink:href="#DejaVuSans-63" x="792.878906"/>
      <use xlink:href="#DejaVuSans-6f" x="847.859375"/>
      <use xlink:href="#DejaVuSans-75" x="909.041016"/>
      <use xlink:href="#DejaVuSans-6e" x="972.419922"/>
      <use xlink:href="#DejaVuSans-74" x="1035.798828"/>
      <use xlink:href="#DejaVuSans-65" x="1075.007812"/>
      <use xlink:href="#DejaVuSans-72" x="1136.53125"/>
      <use xlink:href="#DejaVuSans-2d" x="1171.269531"/>
      <use xlink:href="#DejaVuSans-63" x="1207.353516"/>
      <use xlink:href="#DejaVuSans-6c" x="1262.333984"/>
      <use xlink:href="#DejaVuSans-6f" x="1290.117188"/>
      <use xlink:href="#DejaVuSans-63" x="1351.298828"/>
      <use xlink:href="#DejaVuSans-6b" x="1406.279297"/>
      <use xlink:href="#DejaVuSans-77" x="1464.189453"/>
      <use xlink:href="#DejaVuSans-69" x="1545.976562"/>
      <use xlink:href="#DejaVuSans-73" x="1573.759766"/>
      <use xlink:href="#DejaVuSans-65" x="1625.859375"/>
      <use xlink:href="#DejaVuSans-20" x="1687.382812"/>
      <use xlink:href="#DejaVuSans-31" x="1719.169922"/>
      <use xlink:href="#DejaVuSans-32" x="1782.792969"/>
      <use xlink:href="#DejaVuSans-2d" x="1846.416016"/>
      <use xlink:href="#DejaVuSans-64" x="1882.5"/>
      <use xlink:href="#DejaVuSans-65" x="1945.976562"/>
      <use xlink:href="#DejaVuSans-67" x="2007.5"/>
      <use xlink:href="#DejaVuSans-72" x="2070.976562"/>
      <use xlink:href="#DejaVuSans-65" x="2109.839844"/>
      <use xlink:href="#DejaVuSans-65" x="2171.363281"/>
      <use xlink:href="#DejaVuSans-20" x="2232.886719"/>
      <use xlink:href="#DejaVuSans-72" x="2264.673828"/>
      <use xlink:href="#DejaVuSans-6f" x="2303.537109"/>
      <use xlink:href="#DejaVuSans-74" x="2364.71875"/>
      <use xlink:href="#DejaVuSans-61" x="2403.927734"/>
      <use xlink:href="#DejaVuSans-74" x="2465.207031"/>
      <use xlink:href="#DejaVuSans-69" x="2504.416016"/>
      <use xlink:href="#DejaVuSans-6f" x="2532.199219"/>
      <use xlink:href="#DejaVuSans-6e" x="2593.380859"/>
     </g>
    </g>
    <g id="line2d_28">
     <path d="M 51.620313 108.807187 
L 61.620313 108.807187 
L 71.620313 108.807187 
" style="fill: none; stroke-dasharray: 5.55,2.4; stroke-dashoffset: 0; stroke: #ffa500; stroke-width: 1.5"/>
    </g>
    <g id="text_25">
     <!-- Maximum after counter-clockwise 12-degree rotation -->
     <g transform="translate(79.620313 112.307187) scale(0.1 -0.1)">
      <use xlink:href="#DejaVuSans-4d"/>
      <use xlink:href="#DejaVuSans-61" x="86.279297"/>
      <use xlink:href="#DejaVuSans-78" x="147.558594"/>
      <use xlink:href="#DejaVuSans-69" x="206.738281"/>
      <use xlink:href="#DejaVuSans-6d" x="234.521484"/>
      <use xlink:href="#DejaVuSans-75" x="331.933594"/>
      <use xlink:href="#DejaVuSans-6d" x="395.3125"/>
      <use xlink:href="#DejaVuSans-20" x="492.724609"/>
      <use xlink:href="#DejaVuSans-61" x="524.511719"/>
      <use xlink:href="#DejaVuSans-66" x="585.791016"/>
      <use xlink:href="#DejaVuSans-74" x="619.246094"/>
      <use xlink:href="#DejaVuSans-65" x="658.455078"/>
      <use xlink:href="#DejaVuSans-72" x="719.978516"/>
      <use xlink:href="#DejaVuSans-20" x="761.091797"/>
      <use xlink:href="#DejaVuSans-63" x="792.878906"/>
      <use xlink:href="#DejaVuSans-6f" x="847.859375"/>
      <use xlink:href="#DejaVuSans-75" x="909.041016"/>
      <use xlink:href="#DejaVuSans-6e" x="972.419922"/>
      <use xlink:href="#DejaVuSans-74" x="1035.798828"/>
      <use xlink:href="#DejaVuSans-65" x="1075.007812"/>
      <use xlink:href="#DejaVuSans-72" x="1136.53125"/>
      <use xlink:href="#DejaVuSans-2d" x="1171.269531"/>
      <use xlink:href="#DejaVuSans-63" x="1207.353516"/>
      <use xlink:href="#DejaVuSans-6c" x="1262.333984"/>
      <use xlink:href="#DejaVuSans-6f" x="1290.117188"/>
      <use xlink:href="#DejaVuSans-63" x="1351.298828"/>
      <use xlink:href="#DejaVuSans-6b" x="1406.279297"/>
      <use xlink:href="#DejaVuSans-77" x="1464.189453"/>
      <use xlink:href="#DejaVuSans-69" x="1545.976562"/>
      <use xlink:href="#DejaVuSans-73" x="1573.759766"/>
      <use xlink:href="#DejaVuSans-65" x="1625.859375"/>
      <use xlink:href="#DejaVuSans-20" x="1687.382812"/>
      <use xlink:href="#DejaVuSans-31" x="1719.169922"/>
      <use xlink:href="#DejaVuSans-32" x="1782.792969"/>
      <use xlink:href="#DejaVuSans-2d" x="1846.416016"/>
      <use xlink:href="#DejaVuSans-64" x="1882.5"/>
      <use xlink:href="#DejaVuSans-65" x="1945.976562"/>
      <use xlink:href="#DejaVuSans-67" x="2007.5"/>
      <use xlink:href="#DejaVuSans-72" x="2070.976562"/>
      <use xlink:href="#DejaVuSans-65" x="2109.839844"/>
      <use xlink:href="#DejaVuSans-65" x="2171.363281"/>
      <use xlink:href="#DejaVuSans-20" x="2232.886719"/>
      <use xlink:href="#DejaVuSans-72" x="2264.673828"/>
      <use xlink:href="#DejaVuSans-6f" x="2303.537109"/>
      <use xlink:href="#DejaVuSans-74" x="2364.71875"/>
      <use xlink:href="#DejaVuSans-61" x="2403.927734"/>
      <use xlink:href="#DejaVuSans-74" x="2465.207031"/>
      <use xlink:href="#DejaVuSans-69" x="2504.416016"/>
      <use xlink:href="#DejaVuSans-6f" x="2532.199219"/>
      <use xlink:href="#DejaVuSans-6e" x="2593.380859"/>
     </g>
    </g>
   </g>
  </g>
 </g>
 <defs>
  <clipPath id="p0593030ecc">
   <rect x="42.620313" y="22.318125" width="669.6" height="332.64"/>
  </clipPath>
 </defs>
</svg>
