<?xml version="1.0" encoding="utf-8" standalone="no"?>
<!DOCTYPE svg PUBLIC "-//W3C//DTD SVG 1.1//EN"
  "http://www.w3.org/Graphics/SVG/1.1/DTD/svg11.dtd">
<svg xmlns:xlink="http://www.w3.org/1999/xlink" width="864pt" height="432pt" viewBox="0 0 864 432" xmlns="http://www.w3.org/2000/svg" version="1.1">
 <metadata>
  <rdf:RDF xmlns:dc="http://purl.org/dc/elements/1.1/" xmlns:cc="http://creativecommons.org/ns#" xmlns:rdf="http://www.w3.org/1999/02/22-rdf-syntax-ns#">
   <cc:Work>
    <dc:type rdf:resource="http://purl.org/dc/dcmitype/StillImage"/>
    <dc:date>2023-02-07T15:34:00.116686</dc:date>
    <dc:format>image/svg+xml</dc:format>
    <dc:creator>
     <cc:Agent>
      <dc:title>Matplotlib v3.6.2, https://matplotlib.org/</dc:title>
     </cc:Agent>
    </dc:creator>
   </cc:Work>
  </rdf:RDF>
 </metadata>
 <defs>
  <style type="text/css">*{stroke-linejoin: round; stroke-linecap: butt}</style>
 </defs>
 <g id="figure_1">
  <g id="patch_1">
   <path d="M 0 432 
L 864 432 
L 864 0 
L 0 0 
z
" style="fill: #ffffff"/>
  </g>
  <g id="axes_1">
   <g id="patch_2">
    <path d="M 108 384.48 
L 777.6 384.48 
L 777.6 51.84 
L 108 51.84 
z
" style="fill: #ffffff"/>
   </g>
   <g id="matplotlib.axis_1">
    <g id="xtick_1">
     <g id="line2d_1">
      <defs>
       <path id="m54cdff8db0" d="M 0 0 
L 0 3.5 
" style="stroke: #000000; stroke-width: 0.8"/>
      </defs>
      <g>
       <use xlink:href="#m54cdff8db0" x="144.702433" y="384.48" style="stroke: #000000; stroke-width: 0.8"/>
      </g>
     </g>
     <g id="text_1">
      <!-- 0.0 -->
      <g transform="translate(136.750871 399.078438) scale(0.1 -0.1)">
       <defs>
        <path id="DejaVuSans-30" d="M 2034 4250 
Q 1547 4250 1301 3770 
Q 1056 3291 1056 2328 
Q 1056 1369 1301 889 
Q 1547 409 2034 409 
Q 2525 409 2770 889 
Q 3016 1369 3016 2328 
Q 3016 3291 2770 3770 
Q 2525 4250 2034 4250 
z
M 2034 4750 
Q 2819 4750 3233 4129 
Q 3647 3509 3647 2328 
Q 3647 1150 3233 529 
Q 2819 -91 2034 -91 
Q 1250 -91 836 529 
Q 422 1150 422 2328 
Q 422 3509 836 4129 
Q 1250 4750 2034 4750 
z
" transform="scale(0.015625)"/>
        <path id="DejaVuSans-2e" d="M 684 794 
L 1344 794 
L 1344 0 
L 684 0 
L 684 794 
z
" transform="scale(0.015625)"/>
       </defs>
       <use xlink:href="#DejaVuSans-30"/>
       <use xlink:href="#DejaVuSans-2e" x="63.623047"/>
       <use xlink:href="#DejaVuSans-30" x="95.410156"/>
      </g>
     </g>
    </g>
    <g id="xtick_2">
     <g id="line2d_2">
      <g>
       <use xlink:href="#m54cdff8db0" x="220.047756" y="384.48" style="stroke: #000000; stroke-width: 0.8"/>
      </g>
     </g>
     <g id="text_2">
      <!-- 2.5 -->
      <g transform="translate(212.096194 399.078438) scale(0.1 -0.1)">
       <defs>
        <path id="DejaVuSans-32" d="M 1228 531 
L 3431 531 
L 3431 0 
L 469 0 
L 469 531 
Q 828 903 1448 1529 
Q 2069 2156 2228 2338 
Q 2531 2678 2651 2914 
Q 2772 3150 2772 3378 
Q 2772 3750 2511 3984 
Q 2250 4219 1831 4219 
Q 1534 4219 1204 4116 
Q 875 4013 500 3803 
L 500 4441 
Q 881 4594 1212 4672 
Q 1544 4750 1819 4750 
Q 2544 4750 2975 4387 
Q 3406 4025 3406 3419 
Q 3406 3131 3298 2873 
Q 3191 2616 2906 2266 
Q 2828 2175 2409 1742 
Q 1991 1309 1228 531 
z
" transform="scale(0.015625)"/>
        <path id="DejaVuSans-35" d="M 691 4666 
L 3169 4666 
L 3169 4134 
L 1269 4134 
L 1269 2991 
Q 1406 3038 1543 3061 
Q 1681 3084 1819 3084 
Q 2600 3084 3056 2656 
Q 3513 2228 3513 1497 
Q 3513 744 3044 326 
Q 2575 -91 1722 -91 
Q 1428 -91 1123 -41 
Q 819 9 494 109 
L 494 744 
Q 775 591 1075 516 
Q 1375 441 1709 441 
Q 2250 441 2565 725 
Q 2881 1009 2881 1497 
Q 2881 1984 2565 2268 
Q 2250 2553 1709 2553 
Q 1456 2553 1204 2497 
Q 953 2441 691 2322 
L 691 4666 
z
" transform="scale(0.015625)"/>
       </defs>
       <use xlink:href="#DejaVuSans-32"/>
       <use xlink:href="#DejaVuSans-2e" x="63.623047"/>
       <use xlink:href="#DejaVuSans-35" x="95.410156"/>
      </g>
     </g>
    </g>
    <g id="xtick_3">
     <g id="line2d_3">
      <g>
       <use xlink:href="#m54cdff8db0" x="295.393079" y="384.48" style="stroke: #000000; stroke-width: 0.8"/>
      </g>
     </g>
     <g id="text_3">
      <!-- 5.0 -->
      <g transform="translate(287.441517 399.078438) scale(0.1 -0.1)">
       <use xlink:href="#DejaVuSans-35"/>
       <use xlink:href="#DejaVuSans-2e" x="63.623047"/>
       <use xlink:href="#DejaVuSans-30" x="95.410156"/>
      </g>
     </g>
    </g>
    <g id="xtick_4">
     <g id="line2d_4">
      <g>
       <use xlink:href="#m54cdff8db0" x="370.738402" y="384.48" style="stroke: #000000; stroke-width: 0.8"/>
      </g>
     </g>
     <g id="text_4">
      <!-- 7.5 -->
      <g transform="translate(362.78684 399.078438) scale(0.1 -0.1)">
       <defs>
        <path id="DejaVuSans-37" d="M 525 4666 
L 3525 4666 
L 3525 4397 
L 1831 0 
L 1172 0 
L 2766 4134 
L 525 4134 
L 525 4666 
z
" transform="scale(0.015625)"/>
       </defs>
       <use xlink:href="#DejaVuSans-37"/>
       <use xlink:href="#DejaVuSans-2e" x="63.623047"/>
       <use xlink:href="#DejaVuSans-35" x="95.410156"/>
      </g>
     </g>
    </g>
    <g id="xtick_5">
     <g id="line2d_5">
      <g>
       <use xlink:href="#m54cdff8db0" x="446.083725" y="384.48" style="stroke: #000000; stroke-width: 0.8"/>
      </g>
     </g>
     <g id="text_5">
      <!-- 10.0 -->
      <g transform="translate(434.950913 399.078438) scale(0.1 -0.1)">
       <defs>
        <path id="DejaVuSans-31" d="M 794 531 
L 1825 531 
L 1825 4091 
L 703 3866 
L 703 4441 
L 1819 4666 
L 2450 4666 
L 2450 531 
L 3481 531 
L 3481 0 
L 794 0 
L 794 531 
z
" transform="scale(0.015625)"/>
       </defs>
       <use xlink:href="#DejaVuSans-31"/>
       <use xlink:href="#DejaVuSans-30" x="63.623047"/>
       <use xlink:href="#DejaVuSans-2e" x="127.246094"/>
       <use xlink:href="#DejaVuSans-30" x="159.033203"/>
      </g>
     </g>
    </g>
    <g id="xtick_6">
     <g id="line2d_6">
      <g>
       <use xlink:href="#m54cdff8db0" x="521.429048" y="384.48" style="stroke: #000000; stroke-width: 0.8"/>
      </g>
     </g>
     <g id="text_6">
      <!-- 12.5 -->
      <g transform="translate(510.296236 399.078438) scale(0.1 -0.1)">
       <use xlink:href="#DejaVuSans-31"/>
       <use xlink:href="#DejaVuSans-32" x="63.623047"/>
       <use xlink:href="#DejaVuSans-2e" x="127.246094"/>
       <use xlink:href="#DejaVuSans-35" x="159.033203"/>
      </g>
     </g>
    </g>
    <g id="xtick_7">
     <g id="line2d_7">
      <g>
       <use xlink:href="#m54cdff8db0" x="596.774372" y="384.48" style="stroke: #000000; stroke-width: 0.8"/>
      </g>
     </g>
     <g id="text_7">
      <!-- 15.0 -->
      <g transform="translate(585.641559 399.078438) scale(0.1 -0.1)">
       <use xlink:href="#DejaVuSans-31"/>
       <use xlink:href="#DejaVuSans-35" x="63.623047"/>
       <use xlink:href="#DejaVuSans-2e" x="127.246094"/>
       <use xlink:href="#DejaVuSans-30" x="159.033203"/>
      </g>
     </g>
    </g>
    <g id="xtick_8">
     <g id="line2d_8">
      <g>
       <use xlink:href="#m54cdff8db0" x="672.119695" y="384.48" style="stroke: #000000; stroke-width: 0.8"/>
      </g>
     </g>
     <g id="text_8">
      <!-- 17.5 -->
      <g transform="translate(660.986882 399.078438) scale(0.1 -0.1)">
       <use xlink:href="#DejaVuSans-31"/>
       <use xlink:href="#DejaVuSans-37" x="63.623047"/>
       <use xlink:href="#DejaVuSans-2e" x="127.246094"/>
       <use xlink:href="#DejaVuSans-35" x="159.033203"/>
      </g>
     </g>
    </g>
    <g id="xtick_9">
     <g id="line2d_9">
      <g>
       <use xlink:href="#m54cdff8db0" x="747.465018" y="384.48" style="stroke: #000000; stroke-width: 0.8"/>
      </g>
     </g>
     <g id="text_9">
      <!-- 20.0 -->
      <g transform="translate(736.332205 399.078438) scale(0.1 -0.1)">
       <use xlink:href="#DejaVuSans-32"/>
       <use xlink:href="#DejaVuSans-30" x="63.623047"/>
       <use xlink:href="#DejaVuSans-2e" x="127.246094"/>
       <use xlink:href="#DejaVuSans-30" x="159.033203"/>
      </g>
     </g>
    </g>
    <g id="text_10">
     <!-- Time (s) -->
     <g transform="translate(422.471094 412.756563) scale(0.1 -0.1)">
      <defs>
       <path id="DejaVuSans-54" d="M -19 4666 
L 3928 4666 
L 3928 4134 
L 2272 4134 
L 2272 0 
L 1638 0 
L 1638 4134 
L -19 4134 
L -19 4666 
z
" transform="scale(0.015625)"/>
       <path id="DejaVuSans-69" d="M 603 3500 
L 1178 3500 
L 1178 0 
L 603 0 
L 603 3500 
z
M 603 4863 
L 1178 4863 
L 1178 4134 
L 603 4134 
L 603 4863 
z
" transform="scale(0.015625)"/>
       <path id="DejaVuSans-6d" d="M 3328 2828 
Q 3544 3216 3844 3400 
Q 4144 3584 4550 3584 
Q 5097 3584 5394 3201 
Q 5691 2819 5691 2113 
L 5691 0 
L 5113 0 
L 5113 2094 
Q 5113 2597 4934 2840 
Q 4756 3084 4391 3084 
Q 3944 3084 3684 2787 
Q 3425 2491 3425 1978 
L 3425 0 
L 2847 0 
L 2847 2094 
Q 2847 2600 2669 2842 
Q 2491 3084 2119 3084 
Q 1678 3084 1418 2786 
Q 1159 2488 1159 1978 
L 1159 0 
L 581 0 
L 581 3500 
L 1159 3500 
L 1159 2956 
Q 1356 3278 1631 3431 
Q 1906 3584 2284 3584 
Q 2666 3584 2933 3390 
Q 3200 3197 3328 2828 
z
" transform="scale(0.015625)"/>
       <path id="DejaVuSans-65" d="M 3597 1894 
L 3597 1613 
L 953 1613 
Q 991 1019 1311 708 
Q 1631 397 2203 397 
Q 2534 397 2845 478 
Q 3156 559 3463 722 
L 3463 178 
Q 3153 47 2828 -22 
Q 2503 -91 2169 -91 
Q 1331 -91 842 396 
Q 353 884 353 1716 
Q 353 2575 817 3079 
Q 1281 3584 2069 3584 
Q 2775 3584 3186 3129 
Q 3597 2675 3597 1894 
z
M 3022 2063 
Q 3016 2534 2758 2815 
Q 2500 3097 2075 3097 
Q 1594 3097 1305 2825 
Q 1016 2553 972 2059 
L 3022 2063 
z
" transform="scale(0.015625)"/>
       <path id="DejaVuSans-20" transform="scale(0.015625)"/>
       <path id="DejaVuSans-28" d="M 1984 4856 
Q 1566 4138 1362 3434 
Q 1159 2731 1159 2009 
Q 1159 1288 1364 580 
Q 1569 -128 1984 -844 
L 1484 -844 
Q 1016 -109 783 600 
Q 550 1309 550 2009 
Q 550 2706 781 3412 
Q 1013 4119 1484 4856 
L 1984 4856 
z
" transform="scale(0.015625)"/>
       <path id="DejaVuSans-73" d="M 2834 3397 
L 2834 2853 
Q 2591 2978 2328 3040 
Q 2066 3103 1784 3103 
Q 1356 3103 1142 2972 
Q 928 2841 928 2578 
Q 928 2378 1081 2264 
Q 1234 2150 1697 2047 
L 1894 2003 
Q 2506 1872 2764 1633 
Q 3022 1394 3022 966 
Q 3022 478 2636 193 
Q 2250 -91 1575 -91 
Q 1294 -91 989 -36 
Q 684 19 347 128 
L 347 722 
Q 666 556 975 473 
Q 1284 391 1588 391 
Q 1994 391 2212 530 
Q 2431 669 2431 922 
Q 2431 1156 2273 1281 
Q 2116 1406 1581 1522 
L 1381 1569 
Q 847 1681 609 1914 
Q 372 2147 372 2553 
Q 372 3047 722 3315 
Q 1072 3584 1716 3584 
Q 2034 3584 2315 3537 
Q 2597 3491 2834 3397 
z
" transform="scale(0.015625)"/>
       <path id="DejaVuSans-29" d="M 513 4856 
L 1013 4856 
Q 1481 4119 1714 3412 
Q 1947 2706 1947 2009 
Q 1947 1309 1714 600 
Q 1481 -109 1013 -844 
L 513 -844 
Q 928 -128 1133 580 
Q 1338 1288 1338 2009 
Q 1338 2731 1133 3434 
Q 928 4138 513 4856 
z
" transform="scale(0.015625)"/>
      </defs>
      <use xlink:href="#DejaVuSans-54"/>
      <use xlink:href="#DejaVuSans-69" x="57.958984"/>
      <use xlink:href="#DejaVuSans-6d" x="85.742188"/>
      <use xlink:href="#DejaVuSans-65" x="183.154297"/>
      <use xlink:href="#DejaVuSans-20" x="244.677734"/>
      <use xlink:href="#DejaVuSans-28" x="276.464844"/>
      <use xlink:href="#DejaVuSans-73" x="315.478516"/>
      <use xlink:href="#DejaVuSans-29" x="367.578125"/>
     </g>
    </g>
   </g>
   <g id="matplotlib.axis_2">
    <g id="ytick_1">
     <g id="line2d_10">
      <defs>
       <path id="m6b178e5ff4" d="M 0 0 
L -3.5 0 
" style="stroke: #000000; stroke-width: 0.8"/>
      </defs>
      <g>
       <use xlink:href="#m6b178e5ff4" x="108" y="369.36" style="stroke: #000000; stroke-width: 0.8"/>
      </g>
     </g>
     <g id="text_11">
      <!-- −1 -->
      <g transform="translate(86.257812 373.159219) scale(0.1 -0.1)">
       <defs>
        <path id="DejaVuSans-2212" d="M 678 2272 
L 4684 2272 
L 4684 1741 
L 678 1741 
L 678 2272 
z
" transform="scale(0.015625)"/>
       </defs>
       <use xlink:href="#DejaVuSans-2212"/>
       <use xlink:href="#DejaVuSans-31" x="83.789062"/>
      </g>
     </g>
    </g>
    <g id="ytick_2">
     <g id="line2d_11">
      <g>
       <use xlink:href="#m6b178e5ff4" x="108" y="320.06344" style="stroke: #000000; stroke-width: 0.8"/>
      </g>
     </g>
     <g id="text_12">
      <!-- 0 -->
      <g transform="translate(94.6375 323.862659) scale(0.1 -0.1)">
       <use xlink:href="#DejaVuSans-30"/>
      </g>
     </g>
    </g>
    <g id="ytick_3">
     <g id="line2d_12">
      <g>
       <use xlink:href="#m6b178e5ff4" x="108" y="270.76688" style="stroke: #000000; stroke-width: 0.8"/>
      </g>
     </g>
     <g id="text_13">
      <!-- 1 -->
      <g transform="translate(94.6375 274.566099) scale(0.1 -0.1)">
       <use xlink:href="#DejaVuSans-31"/>
      </g>
     </g>
    </g>
    <g id="ytick_4">
     <g id="line2d_13">
      <g>
       <use xlink:href="#m6b178e5ff4" x="108" y="221.470321" style="stroke: #000000; stroke-width: 0.8"/>
      </g>
     </g>
     <g id="text_14">
      <!-- 2 -->
      <g transform="translate(94.6375 225.269539) scale(0.1 -0.1)">
       <use xlink:href="#DejaVuSans-32"/>
      </g>
     </g>
    </g>
    <g id="ytick_5">
     <g id="line2d_14">
      <g>
       <use xlink:href="#m6b178e5ff4" x="108" y="172.173761" style="stroke: #000000; stroke-width: 0.8"/>
      </g>
     </g>
     <g id="text_15">
      <!-- 3 -->
      <g transform="translate(94.6375 175.97298) scale(0.1 -0.1)">
       <defs>
        <path id="DejaVuSans-33" d="M 2597 2516 
Q 3050 2419 3304 2112 
Q 3559 1806 3559 1356 
Q 3559 666 3084 287 
Q 2609 -91 1734 -91 
Q 1441 -91 1130 -33 
Q 819 25 488 141 
L 488 750 
Q 750 597 1062 519 
Q 1375 441 1716 441 
Q 2309 441 2620 675 
Q 2931 909 2931 1356 
Q 2931 1769 2642 2001 
Q 2353 2234 1838 2234 
L 1294 2234 
L 1294 2753 
L 1863 2753 
Q 2328 2753 2575 2939 
Q 2822 3125 2822 3475 
Q 2822 3834 2567 4026 
Q 2313 4219 1838 4219 
Q 1578 4219 1281 4162 
Q 984 4106 628 3988 
L 628 4550 
Q 988 4650 1302 4700 
Q 1616 4750 1894 4750 
Q 2613 4750 3031 4423 
Q 3450 4097 3450 3541 
Q 3450 3153 3228 2886 
Q 3006 2619 2597 2516 
z
" transform="scale(0.015625)"/>
       </defs>
       <use xlink:href="#DejaVuSans-33"/>
      </g>
     </g>
    </g>
    <g id="ytick_6">
     <g id="line2d_15">
      <g>
       <use xlink:href="#m6b178e5ff4" x="108" y="122.877201" style="stroke: #000000; stroke-width: 0.8"/>
      </g>
     </g>
     <g id="text_16">
      <!-- 4 -->
      <g transform="translate(94.6375 126.67642) scale(0.1 -0.1)">
       <defs>
        <path id="DejaVuSans-34" d="M 2419 4116 
L 825 1625 
L 2419 1625 
L 2419 4116 
z
M 2253 4666 
L 3047 4666 
L 3047 1625 
L 3713 1625 
L 3713 1100 
L 3047 1100 
L 3047 0 
L 2419 0 
L 2419 1100 
L 313 1100 
L 313 1709 
L 2253 4666 
z
" transform="scale(0.015625)"/>
       </defs>
       <use xlink:href="#DejaVuSans-34"/>
      </g>
     </g>
    </g>
    <g id="ytick_7">
     <g id="line2d_16">
      <g>
       <use xlink:href="#m6b178e5ff4" x="108" y="73.580641" style="stroke: #000000; stroke-width: 0.8"/>
      </g>
     </g>
     <g id="text_17">
      <!-- 5 -->
      <g transform="translate(94.6375 77.37986) scale(0.1 -0.1)">
       <use xlink:href="#DejaVuSans-35"/>
      </g>
     </g>
    </g>
    <g id="text_18">
     <!-- Lung Volume (L) -->
     <g transform="translate(80.178125 258.832656) rotate(-90) scale(0.1 -0.1)">
      <defs>
       <path id="DejaVuSans-4c" d="M 628 4666 
L 1259 4666 
L 1259 531 
L 3531 531 
L 3531 0 
L 628 0 
L 628 4666 
z
" transform="scale(0.015625)"/>
       <path id="DejaVuSans-75" d="M 544 1381 
L 544 3500 
L 1119 3500 
L 1119 1403 
Q 1119 906 1312 657 
Q 1506 409 1894 409 
Q 2359 409 2629 706 
Q 2900 1003 2900 1516 
L 2900 3500 
L 3475 3500 
L 3475 0 
L 2900 0 
L 2900 538 
Q 2691 219 2414 64 
Q 2138 -91 1772 -91 
Q 1169 -91 856 284 
Q 544 659 544 1381 
z
M 1991 3584 
L 1991 3584 
z
" transform="scale(0.015625)"/>
       <path id="DejaVuSans-6e" d="M 3513 2113 
L 3513 0 
L 2938 0 
L 2938 2094 
Q 2938 2591 2744 2837 
Q 2550 3084 2163 3084 
Q 1697 3084 1428 2787 
Q 1159 2491 1159 1978 
L 1159 0 
L 581 0 
L 581 3500 
L 1159 3500 
L 1159 2956 
Q 1366 3272 1645 3428 
Q 1925 3584 2291 3584 
Q 2894 3584 3203 3211 
Q 3513 2838 3513 2113 
z
" transform="scale(0.015625)"/>
       <path id="DejaVuSans-67" d="M 2906 1791 
Q 2906 2416 2648 2759 
Q 2391 3103 1925 3103 
Q 1463 3103 1205 2759 
Q 947 2416 947 1791 
Q 947 1169 1205 825 
Q 1463 481 1925 481 
Q 2391 481 2648 825 
Q 2906 1169 2906 1791 
z
M 3481 434 
Q 3481 -459 3084 -895 
Q 2688 -1331 1869 -1331 
Q 1566 -1331 1297 -1286 
Q 1028 -1241 775 -1147 
L 775 -588 
Q 1028 -725 1275 -790 
Q 1522 -856 1778 -856 
Q 2344 -856 2625 -561 
Q 2906 -266 2906 331 
L 2906 616 
Q 2728 306 2450 153 
Q 2172 0 1784 0 
Q 1141 0 747 490 
Q 353 981 353 1791 
Q 353 2603 747 3093 
Q 1141 3584 1784 3584 
Q 2172 3584 2450 3431 
Q 2728 3278 2906 2969 
L 2906 3500 
L 3481 3500 
L 3481 434 
z
" transform="scale(0.015625)"/>
       <path id="DejaVuSans-56" d="M 1831 0 
L 50 4666 
L 709 4666 
L 2188 738 
L 3669 4666 
L 4325 4666 
L 2547 0 
L 1831 0 
z
" transform="scale(0.015625)"/>
       <path id="DejaVuSans-6f" d="M 1959 3097 
Q 1497 3097 1228 2736 
Q 959 2375 959 1747 
Q 959 1119 1226 758 
Q 1494 397 1959 397 
Q 2419 397 2687 759 
Q 2956 1122 2956 1747 
Q 2956 2369 2687 2733 
Q 2419 3097 1959 3097 
z
M 1959 3584 
Q 2709 3584 3137 3096 
Q 3566 2609 3566 1747 
Q 3566 888 3137 398 
Q 2709 -91 1959 -91 
Q 1206 -91 779 398 
Q 353 888 353 1747 
Q 353 2609 779 3096 
Q 1206 3584 1959 3584 
z
" transform="scale(0.015625)"/>
       <path id="DejaVuSans-6c" d="M 603 4863 
L 1178 4863 
L 1178 0 
L 603 0 
L 603 4863 
z
" transform="scale(0.015625)"/>
      </defs>
      <use xlink:href="#DejaVuSans-4c"/>
      <use xlink:href="#DejaVuSans-75" x="53.962891"/>
      <use xlink:href="#DejaVuSans-6e" x="117.341797"/>
      <use xlink:href="#DejaVuSans-67" x="180.720703"/>
      <use xlink:href="#DejaVuSans-20" x="244.197266"/>
      <use xlink:href="#DejaVuSans-56" x="275.984375"/>
      <use xlink:href="#DejaVuSans-6f" x="336.642578"/>
      <use xlink:href="#DejaVuSans-6c" x="397.824219"/>
      <use xlink:href="#DejaVuSans-75" x="425.607422"/>
      <use xlink:href="#DejaVuSans-6d" x="488.986328"/>
      <use xlink:href="#DejaVuSans-65" x="586.398438"/>
      <use xlink:href="#DejaVuSans-20" x="647.921875"/>
      <use xlink:href="#DejaVuSans-28" x="679.708984"/>
      <use xlink:href="#DejaVuSans-4c" x="718.722656"/>
      <use xlink:href="#DejaVuSans-29" x="774.435547"/>
     </g>
    </g>
   </g>
   <g id="line2d_17">
    <path d="M 144.702433 320.06344 
L 153.442491 305.966979 
L 158.264591 298.621136 
L 162.182548 293.047745 
L 165.497742 288.684347 
L 168.511555 285.045468 
L 171.525368 281.756476 
L 174.2378 279.122777 
L 176.64885 277.059316 
L 179.0599 275.270935 
L 181.470951 273.769073 
L 183.58062 272.697577 
L 185.690289 271.858079 
L 187.799958 271.254692 
L 189.909627 270.890369 
L 192.019296 270.766896 
L 194.128965 270.884878 
L 196.238634 271.243736 
L 198.348303 271.841713 
L 200.457972 272.67588 
L 202.567641 273.742151 
L 204.67731 275.035304 
L 207.088361 276.782832 
L 209.499411 278.807209 
L 212.211843 281.399363 
L 214.924274 284.304485 
L 217.938087 287.870778 
L 221.253281 292.163745 
L 224.869857 297.229704 
L 229.089195 303.549677 
L 234.212677 311.645962 
L 251.692792 339.641479 
L 255.91213 345.763156 
L 259.528705 350.614335 
L 262.8439 354.676837 
L 265.857713 358.008143 
L 268.570144 360.683034 
L 271.282576 363.029127 
L 273.693626 364.823103 
L 276.104676 366.330769 
L 278.214346 367.407486 
L 280.324015 368.252312 
L 282.433684 368.861109 
L 284.543353 369.230895 
L 286.653022 369.359859 
L 288.762691 369.247369 
L 290.87236 368.893977 
L 292.982029 368.301412 
L 295.091698 367.472578 
L 297.201367 366.411534 
L 299.311036 365.123477 
L 301.722086 363.381579 
L 304.133137 361.362593 
L 306.845568 358.776174 
L 309.558 355.876393 
L 312.571813 352.315521 
L 315.887007 348.027828 
L 319.503583 342.966729 
L 323.722921 336.651159 
L 328.846403 328.558267 
L 346.326518 300.557482 
L 350.545856 294.430756 
L 354.162431 289.574202 
L 357.477625 285.505991 
L 360.491438 282.168906 
L 363.20387 279.488384 
L 365.916302 277.136299 
L 368.327352 275.336735 
L 370.738402 273.823268 
L 372.848071 272.741332 
L 374.95774 271.89118 
L 377.067409 271.276975 
L 379.177078 270.901726 
L 381.286748 270.767271 
L 383.396417 270.874269 
L 385.506086 271.222196 
L 387.615755 271.809346 
L 389.725424 272.632846 
L 391.835093 273.68866 
L 393.944762 274.971618 
L 396.355812 276.70788 
L 398.766862 278.72147 
L 401.479294 281.302148 
L 404.191726 284.19658 
L 407.205539 287.752023 
L 410.520733 292.03443 
L 414.137308 297.090656 
L 418.356646 303.401809 
L 423.480128 311.491287 
L 441.261625 339.949333 
L 445.179581 345.629028 
L 448.796157 350.490945 
L 452.111351 354.564855 
L 455.125164 357.90771 
L 457.837596 360.593855 
L 460.550027 362.951926 
L 462.961078 364.757076 
L 465.372128 366.276338 
L 467.481797 367.363491 
L 469.591466 368.218968 
L 471.701135 368.838579 
L 473.810804 369.219289 
L 475.920473 369.359234 
L 478.030142 369.257728 
L 480.139811 368.915269 
L 482.24948 368.333534 
L 484.359149 367.515371 
L 486.468819 366.464789 
L 488.578488 365.186934 
L 490.989538 363.456312 
L 493.400588 361.448123 
L 496.11302 358.873193 
L 498.825452 355.984117 
L 501.839264 352.434112 
L 505.154459 348.157001 
L 508.771034 343.105661 
L 512.990372 336.798943 
L 518.113854 328.712899 
L 535.89535 300.249414 
L 539.813307 294.565014 
L 543.429883 289.697746 
L 546.745077 285.618148 
L 549.75889 282.269532 
L 552.471322 279.577768 
L 555.183753 277.213718 
L 557.594804 275.402988 
L 560.005854 273.877933 
L 562.115523 272.785567 
L 564.225192 271.924768 
L 566.334861 271.299753 
L 568.44453 270.913582 
L 570.554199 270.768147 
L 572.663868 270.86416 
L 574.773537 271.201151 
L 576.883206 271.77747 
L 578.992875 272.590293 
L 581.102544 273.63564 
L 583.212213 274.90839 
L 585.623264 276.633368 
L 588.034314 278.63615 
L 590.746746 281.205325 
L 593.459177 284.089039 
L 596.47299 287.633596 
L 599.788184 291.9054 
L 603.40476 296.951841 
L 607.624098 303.25411 
L 612.74758 311.336698 
L 630.529076 339.80555 
L 634.748414 345.915666 
L 638.36499 350.754548 
L 641.680184 354.804003 
L 644.693997 358.122109 
L 647.406429 360.784142 
L 650.11886 363.11656 
L 652.529911 364.897781 
L 654.940961 366.392215 
L 657.05063 367.457029 
L 659.160299 368.289709 
L 661.269968 368.886177 
L 663.379637 369.243512 
L 665.489306 369.359962 
L 667.598975 369.234958 
L 669.708644 368.869112 
L 671.818313 368.264216 
L 673.927982 367.423232 
L 676.037651 366.35028 
L 678.14732 365.050616 
L 680.558371 363.295892 
L 682.969421 361.264629 
L 685.681853 358.66515 
L 688.394284 355.753209 
L 691.408097 352.179998 
L 694.723292 347.880301 
L 698.339867 342.808145 
L 702.559205 336.482567 
L 707.682687 328.381971 
L 724.861421 300.846294 
L 729.080759 294.699531 
L 732.697334 289.821598 
L 736.012529 285.730655 
L 739.026341 282.370541 
L 741.738773 279.667563 
L 744.451205 277.291571 
L 746.862255 275.469695 
L 747.163636 275.261797 
L 747.163636 275.261797 
" clip-path="url(#p9c13825ebe)" style="fill: none; stroke: #1f77b4; stroke-width: 1.5; stroke-linecap: square"/>
   </g>
   <g id="line2d_18">
    <path d="M 144.702433 270.76688 
L 747.163636 270.76688 
L 747.163636 270.76688 
" clip-path="url(#p9c13825ebe)" style="fill: none; stroke-dasharray: 5.55,2.4; stroke-dashoffset: 0; stroke: #1f77b4; stroke-width: 1.5"/>
   </g>
   <g id="line2d_19">
    <path d="M 144.702433 369.36 
L 747.163636 369.36 
L 747.163636 369.36 
" clip-path="url(#p9c13825ebe)" style="fill: none; stroke-dasharray: 5.55,2.4; stroke-dashoffset: 0; stroke: #1f77b4; stroke-width: 1.5"/>
   </g>
   <g id="line2d_20">
    <path d="M 144.702433 320.06344 
L 151.694545 302.73886 
L 155.481211 293.941876 
L 158.609164 287.188989 
L 161.54847 281.355439 
L 164.294244 276.40364 
L 166.838314 272.270693 
L 169.17046 268.877967 
L 171.545559 265.815771 
L 173.694643 263.385364 
L 175.880788 261.240142 
L 178.105093 259.388582 
L 180.083345 258.014596 
L 182.091892 256.873741 
L 184.131004 255.968092 
L 186.2008 255.29857 
L 188.30125 254.86494 
L 190.432174 254.665812 
L 192.593241 254.698648 
L 194.783975 254.959772 
L 197.003751 255.444392 
L 199.251805 256.146619 
L 201.854471 257.206655 
L 204.491324 258.529772 
L 207.160582 260.10226 
L 210.199749 262.150273 
L 213.617935 264.743919 
L 217.422742 267.941699 
L 221.619196 271.782283 
L 226.563042 276.63221 
L 232.970608 283.261783 
L 249.37147 300.403865 
L 254.303048 305.159389 
L 258.485756 308.894196 
L 262.27552 311.976212 
L 265.678158 314.450216 
L 268.701941 316.379842 
L 271.686043 318.004111 
L 274.303092 319.174835 
L 276.885013 320.075232 
L 279.114247 320.632633 
L 281.314676 320.968368 
L 283.485629 321.07728 
L 285.626581 320.95532 
L 287.737152 320.599572 
L 289.817112 320.008265 
L 291.866381 319.18078 
L 293.88503 318.117657 
L 295.873277 316.820588 
L 297.831491 315.292412 
L 300.033346 313.268084 
L 302.197654 310.954829 
L 304.325659 308.362201 
L 306.678112 305.125741 
L 308.988922 301.568828 
L 311.51103 297.266884 
L 314.235022 292.147459 
L 317.1537 286.155176 
L 320.263332 279.2613 
L 324.033633 270.33838 
L 329.389614 257.020507 
L 336.845125 238.519866 
L 340.630614 229.713813 
L 343.75727 222.950953 
L 346.695131 217.106279 
L 349.439388 212.142804 
L 351.981934 207.998138 
L 354.312606 204.594065 
L 356.686144 201.519859 
L 358.833779 199.078298 
L 361.018426 196.921547 
L 363.241194 195.058156 
L 365.218076 193.673629 
L 367.225237 192.522112 
L 369.262954 191.605731 
L 371.331354 190.925461 
L 373.430412 190.481118 
L 375.559955 190.271366 
L 377.71966 190.293718 
L 379.909056 190.544549 
L 382.127526 191.019119 
L 384.374312 191.711587 
L 386.975583 192.760888 
L 389.611107 194.073781 
L 392.279112 195.636622 
L 395.316968 197.674549 
L 398.733834 200.258034 
L 402.537369 203.446028 
L 406.732668 207.277729 
L 411.675496 212.119823 
L 418.082304 218.743554 
L 434.838 236.245162 
L 439.767187 240.982287 
L 443.947254 244.696771 
L 447.734151 247.756727 
L 451.133844 250.20806 
L 454.154723 252.115342 
L 456.806542 253.553628 
L 459.424957 254.734863 
L 462.008305 255.646246 
L 464.238832 256.213593 
L 466.440587 256.559535 
L 468.612894 256.678865 
L 470.755221 256.567482 
L 472.86718 256.22242 
L 474.948536 255.641854 
L 476.999202 254.825113 
L 479.01924 253.772684 
L 481.008863 252.486208 
L 482.968435 250.968471 
L 485.171806 248.955819 
L 487.337588 246.653897 
L 489.467011 244.072188 
L 491.820984 240.847428 
L 494.133223 237.301508 
L 496.656797 233.010839 
L 499.382235 227.902546 
L 502.302274 221.920736 
L 505.413102 215.03607 
L 509.184452 206.121216 
L 514.541071 192.808254 
L 522.230633 173.737672 
L 526.018654 164.95111 
L 529.148093 158.209654 
L 532.089053 152.388837 
L 534.836562 147.450388 
L 537.382372 143.330832 
L 539.716202 139.951065 
L 542.093082 136.90258 
L 544.243821 134.484902 
L 546.431675 132.352833 
L 548.657734 130.514766 
L 550.637547 129.152798 
L 552.647674 128.024098 
L 554.688375 127.130679 
L 556.759762 126.473403 
L 558.861799 126.051976 
L 560.994295 125.864947 
L 563.156913 125.909719 
L 565.349169 126.182559 
L 567.570431 126.678615 
L 569.819928 127.391944 
L 572.42418 128.464189 
L 575.062544 129.798928 
L 578.069237 131.597048 
L 581.113968 133.687877 
L 584.537749 136.324581 
L 588.347934 139.563741 
L 592.54925 143.441749 
L 597.497358 148.324473 
L 604.26517 155.355212 
L 619.242646 171.028039 
L 624.179815 175.826585 
L 628.368744 179.609268 
L 632.16529 182.743475 
L 635.57492 185.271276 
L 638.605606 187.254033 
L 641.597135 188.935454 
L 644.221176 190.159982 
L 646.810409 191.11665 
L 649.046268 191.725028 
L 651.253499 192.113106 
L 653.431398 192.275468 
L 655.579405 192.207804 
L 657.697108 191.906933 
L 659.78424 191.370813 
L 661.840686 190.598556 
L 663.866481 189.590431 
L 665.86181 188.347862 
L 667.827007 186.87342 
L 670.036676 184.909226 
L 672.208575 182.654377 
L 674.343896 180.118053 
L 676.704195 176.941974 
L 679.022383 173.441837 
L 681.552068 169.198192 
L 684.28355 164.136408 
L 687.209289 158.198462 
L 690.32515 151.352519 
L 694.10094 142.471836 
L 699.228156 129.76459 
L 707.616228 108.956148 
L 711.406825 100.189409 
L 714.539077 93.469609 
L 717.483166 87.67286 
L 720.23395 82.759614 
L 722.783041 78.665312 
L 725.120045 75.309966 
L 727.500281 72.2873 
L 728.303692 71.356692 
L 728.303692 71.356692 
" clip-path="url(#p9c13825ebe)" style="fill: none; stroke: #ff7f0e; stroke-width: 1.5; stroke-linecap: square"/>
   </g>
   <g id="line2d_21">
    <path d="M 138.436364 271.844129 
L 727.732344 66.96 
L 727.732344 66.96 
" clip-path="url(#p9c13825ebe)" style="fill: none; stroke-dasharray: 5.55,2.4; stroke-dashoffset: 0; stroke: #ffa500; stroke-width: 1.5"/>
   </g>
   <g id="line2d_22">
    <path d="M 150.968502 368.282752 
L 740.264483 163.398623 
L 740.264483 163.398623 
" clip-path="url(#p9c13825ebe)" style="fill: none; stroke-dasharray: 5.55,2.4; stroke-dashoffset: 0; stroke: #ffa500; stroke-width: 1.5"/>
   </g>
   <g id="patch_3">
    <path d="M 108 384.48 
L 108 51.84 
" style="fill: none; stroke: #000000; stroke-width: 0.8; stroke-linejoin: miter; stroke-linecap: square"/>
   </g>
   <g id="patch_4">
    <path d="M 777.6 384.48 
L 777.6 51.84 
" style="fill: none; stroke: #000000; stroke-width: 0.8; stroke-linejoin: miter; stroke-linecap: square"/>
   </g>
   <g id="patch_5">
    <path d="M 108 384.48 
L 777.6 384.48 
" style="fill: none; stroke: #000000; stroke-width: 0.8; stroke-linejoin: miter; stroke-linecap: square"/>
   </g>
   <g id="patch_6">
    <path d="M 108 51.84 
L 777.6 51.84 
" style="fill: none; stroke: #000000; stroke-width: 0.8; stroke-linejoin: miter; stroke-linecap: square"/>
   </g>
   <g id="text_19">
    <!-- Time(s) vs. Lung Volume(L) -->
    <g transform="translate(361.014375 45.84) scale(0.12 -0.12)">
     <defs>
      <path id="DejaVuSans-76" d="M 191 3500 
L 800 3500 
L 1894 563 
L 2988 3500 
L 3597 3500 
L 2284 0 
L 1503 0 
L 191 3500 
z
" transform="scale(0.015625)"/>
     </defs>
     <use xlink:href="#DejaVuSans-54"/>
     <use xlink:href="#DejaVuSans-69" x="57.958984"/>
     <use xlink:href="#DejaVuSans-6d" x="85.742188"/>
     <use xlink:href="#DejaVuSans-65" x="183.154297"/>
     <use xlink:href="#DejaVuSans-28" x="244.677734"/>
     <use xlink:href="#DejaVuSans-73" x="283.691406"/>
     <use xlink:href="#DejaVuSans-29" x="335.791016"/>
     <use xlink:href="#DejaVuSans-20" x="374.804688"/>
     <use xlink:href="#DejaVuSans-76" x="406.591797"/>
     <use xlink:href="#DejaVuSans-73" x="465.771484"/>
     <use xlink:href="#DejaVuSans-2e" x="517.871094"/>
     <use xlink:href="#DejaVuSans-20" x="549.658203"/>
     <use xlink:href="#DejaVuSans-4c" x="581.445312"/>
     <use xlink:href="#DejaVuSans-75" x="635.408203"/>
     <use xlink:href="#DejaVuSans-6e" x="698.787109"/>
     <use xlink:href="#DejaVuSans-67" x="762.166016"/>
     <use xlink:href="#DejaVuSans-20" x="825.642578"/>
     <use xlink:href="#DejaVuSans-56" x="857.429688"/>
     <use xlink:href="#DejaVuSans-6f" x="918.087891"/>
     <use xlink:href="#DejaVuSans-6c" x="979.269531"/>
     <use xlink:href="#DejaVuSans-75" x="1007.052734"/>
     <use xlink:href="#DejaVuSans-6d" x="1070.431641"/>
     <use xlink:href="#DejaVuSans-65" x="1167.84375"/>
     <use xlink:href="#DejaVuSans-28" x="1229.367188"/>
     <use xlink:href="#DejaVuSans-4c" x="1268.380859"/>
     <use xlink:href="#DejaVuSans-29" x="1324.09375"/>
    </g>
   </g>
   <g id="legend_1">
    <g id="patch_7">
     <path d="M 115 147.90875 
L 412.675 147.90875 
Q 414.675 147.90875 414.675 145.90875 
L 414.675 58.84 
Q 414.675 56.84 412.675 56.84 
L 115 56.84 
Q 113 56.84 113 58.84 
L 113 145.90875 
Q 113 147.90875 115 147.90875 
z
" style="fill: #ffffff; opacity: 0.8; stroke: #cccccc; stroke-linejoin: miter"/>
    </g>
    <g id="line2d_23">
     <path d="M 117 64.938437 
L 127 64.938437 
L 137 64.938437 
" style="fill: none; stroke: #1f77b4; stroke-width: 1.5; stroke-linecap: square"/>
    </g>
    <g id="text_20">
     <!-- Sine Wave y = sin(x) -->
     <g transform="translate(145 68.438437) scale(0.1 -0.1)">
      <defs>
       <path id="DejaVuSans-53" d="M 3425 4513 
L 3425 3897 
Q 3066 4069 2747 4153 
Q 2428 4238 2131 4238 
Q 1616 4238 1336 4038 
Q 1056 3838 1056 3469 
Q 1056 3159 1242 3001 
Q 1428 2844 1947 2747 
L 2328 2669 
Q 3034 2534 3370 2195 
Q 3706 1856 3706 1288 
Q 3706 609 3251 259 
Q 2797 -91 1919 -91 
Q 1588 -91 1214 -16 
Q 841 59 441 206 
L 441 856 
Q 825 641 1194 531 
Q 1563 422 1919 422 
Q 2459 422 2753 634 
Q 3047 847 3047 1241 
Q 3047 1584 2836 1778 
Q 2625 1972 2144 2069 
L 1759 2144 
Q 1053 2284 737 2584 
Q 422 2884 422 3419 
Q 422 4038 858 4394 
Q 1294 4750 2059 4750 
Q 2388 4750 2728 4690 
Q 3069 4631 3425 4513 
z
" transform="scale(0.015625)"/>
       <path id="DejaVuSans-57" d="M 213 4666 
L 850 4666 
L 1831 722 
L 2809 4666 
L 3519 4666 
L 4500 722 
L 5478 4666 
L 6119 4666 
L 4947 0 
L 4153 0 
L 3169 4050 
L 2175 0 
L 1381 0 
L 213 4666 
z
" transform="scale(0.015625)"/>
       <path id="DejaVuSans-61" d="M 2194 1759 
Q 1497 1759 1228 1600 
Q 959 1441 959 1056 
Q 959 750 1161 570 
Q 1363 391 1709 391 
Q 2188 391 2477 730 
Q 2766 1069 2766 1631 
L 2766 1759 
L 2194 1759 
z
M 3341 1997 
L 3341 0 
L 2766 0 
L 2766 531 
Q 2569 213 2275 61 
Q 1981 -91 1556 -91 
Q 1019 -91 701 211 
Q 384 513 384 1019 
Q 384 1609 779 1909 
Q 1175 2209 1959 2209 
L 2766 2209 
L 2766 2266 
Q 2766 2663 2505 2880 
Q 2244 3097 1772 3097 
Q 1472 3097 1187 3025 
Q 903 2953 641 2809 
L 641 3341 
Q 956 3463 1253 3523 
Q 1550 3584 1831 3584 
Q 2591 3584 2966 3190 
Q 3341 2797 3341 1997 
z
" transform="scale(0.015625)"/>
       <path id="DejaVuSans-79" d="M 2059 -325 
Q 1816 -950 1584 -1140 
Q 1353 -1331 966 -1331 
L 506 -1331 
L 506 -850 
L 844 -850 
Q 1081 -850 1212 -737 
Q 1344 -625 1503 -206 
L 1606 56 
L 191 3500 
L 800 3500 
L 1894 763 
L 2988 3500 
L 3597 3500 
L 2059 -325 
z
" transform="scale(0.015625)"/>
       <path id="DejaVuSans-3d" d="M 678 2906 
L 4684 2906 
L 4684 2381 
L 678 2381 
L 678 2906 
z
M 678 1631 
L 4684 1631 
L 4684 1100 
L 678 1100 
L 678 1631 
z
" transform="scale(0.015625)"/>
       <path id="DejaVuSans-78" d="M 3513 3500 
L 2247 1797 
L 3578 0 
L 2900 0 
L 1881 1375 
L 863 0 
L 184 0 
L 1544 1831 
L 300 3500 
L 978 3500 
L 1906 2253 
L 2834 3500 
L 3513 3500 
z
" transform="scale(0.015625)"/>
      </defs>
      <use xlink:href="#DejaVuSans-53"/>
      <use xlink:href="#DejaVuSans-69" x="63.476562"/>
      <use xlink:href="#DejaVuSans-6e" x="91.259766"/>
      <use xlink:href="#DejaVuSans-65" x="154.638672"/>
      <use xlink:href="#DejaVuSans-20" x="216.162109"/>
      <use xlink:href="#DejaVuSans-57" x="247.949219"/>
      <use xlink:href="#DejaVuSans-61" x="340.451172"/>
      <use xlink:href="#DejaVuSans-76" x="401.730469"/>
      <use xlink:href="#DejaVuSans-65" x="460.910156"/>
      <use xlink:href="#DejaVuSans-20" x="522.433594"/>
      <use xlink:href="#DejaVuSans-79" x="554.220703"/>
      <use xlink:href="#DejaVuSans-20" x="613.400391"/>
      <use xlink:href="#DejaVuSans-3d" x="645.1875"/>
      <use xlink:href="#DejaVuSans-20" x="728.976562"/>
      <use xlink:href="#DejaVuSans-73" x="760.763672"/>
      <use xlink:href="#DejaVuSans-69" x="812.863281"/>
      <use xlink:href="#DejaVuSans-6e" x="840.646484"/>
      <use xlink:href="#DejaVuSans-28" x="904.025391"/>
      <use xlink:href="#DejaVuSans-78" x="943.039062"/>
      <use xlink:href="#DejaVuSans-29" x="1002.21875"/>
     </g>
    </g>
    <g id="line2d_24">
     <path d="M 117 79.616562 
L 127 79.616562 
L 137 79.616562 
" style="fill: none; stroke-dasharray: 5.55,2.4; stroke-dashoffset: 0; stroke: #1f77b4; stroke-width: 1.5"/>
    </g>
    <g id="text_21">
     <!-- y=1 -->
     <g transform="translate(145 83.116562) scale(0.1 -0.1)">
      <use xlink:href="#DejaVuSans-79"/>
      <use xlink:href="#DejaVuSans-3d" x="59.179688"/>
      <use xlink:href="#DejaVuSans-31" x="142.96875"/>
     </g>
    </g>
    <g id="line2d_25">
     <path d="M 117 94.294687 
L 127 94.294687 
L 137 94.294687 
" style="fill: none; stroke-dasharray: 5.55,2.4; stroke-dashoffset: 0; stroke: #1f77b4; stroke-width: 1.5"/>
    </g>
    <g id="text_22">
     <!-- y=-1 -->
     <g transform="translate(145 97.794687) scale(0.1 -0.1)">
      <defs>
       <path id="DejaVuSans-2d" d="M 313 2009 
L 1997 2009 
L 1997 1497 
L 313 1497 
L 313 2009 
z
" transform="scale(0.015625)"/>
      </defs>
      <use xlink:href="#DejaVuSans-79"/>
      <use xlink:href="#DejaVuSans-3d" x="59.179688"/>
      <use xlink:href="#DejaVuSans-2d" x="142.96875"/>
      <use xlink:href="#DejaVuSans-31" x="179.052734"/>
     </g>
    </g>
    <g id="line2d_26">
     <path d="M 117 108.972812 
L 127 108.972812 
L 137 108.972812 
" style="fill: none; stroke: #ff7f0e; stroke-width: 1.5; stroke-linecap: square"/>
    </g>
    <g id="text_23">
     <!-- y = sin(x) after counter-clockwise 12-degree rotation -->
     <g transform="translate(145 112.472812) scale(0.1 -0.1)">
      <defs>
       <path id="DejaVuSans-66" d="M 2375 4863 
L 2375 4384 
L 1825 4384 
Q 1516 4384 1395 4259 
Q 1275 4134 1275 3809 
L 1275 3500 
L 2222 3500 
L 2222 3053 
L 1275 3053 
L 1275 0 
L 697 0 
L 697 3053 
L 147 3053 
L 147 3500 
L 697 3500 
L 697 3744 
Q 697 4328 969 4595 
Q 1241 4863 1831 4863 
L 2375 4863 
z
" transform="scale(0.015625)"/>
       <path id="DejaVuSans-74" d="M 1172 4494 
L 1172 3500 
L 2356 3500 
L 2356 3053 
L 1172 3053 
L 1172 1153 
Q 1172 725 1289 603 
Q 1406 481 1766 481 
L 2356 481 
L 2356 0 
L 1766 0 
Q 1100 0 847 248 
Q 594 497 594 1153 
L 594 3053 
L 172 3053 
L 172 3500 
L 594 3500 
L 594 4494 
L 1172 4494 
z
" transform="scale(0.015625)"/>
       <path id="DejaVuSans-72" d="M 2631 2963 
Q 2534 3019 2420 3045 
Q 2306 3072 2169 3072 
Q 1681 3072 1420 2755 
Q 1159 2438 1159 1844 
L 1159 0 
L 581 0 
L 581 3500 
L 1159 3500 
L 1159 2956 
Q 1341 3275 1631 3429 
Q 1922 3584 2338 3584 
Q 2397 3584 2469 3576 
Q 2541 3569 2628 3553 
L 2631 2963 
z
" transform="scale(0.015625)"/>
       <path id="DejaVuSans-63" d="M 3122 3366 
L 3122 2828 
Q 2878 2963 2633 3030 
Q 2388 3097 2138 3097 
Q 1578 3097 1268 2742 
Q 959 2388 959 1747 
Q 959 1106 1268 751 
Q 1578 397 2138 397 
Q 2388 397 2633 464 
Q 2878 531 3122 666 
L 3122 134 
Q 2881 22 2623 -34 
Q 2366 -91 2075 -91 
Q 1284 -91 818 406 
Q 353 903 353 1747 
Q 353 2603 823 3093 
Q 1294 3584 2113 3584 
Q 2378 3584 2631 3529 
Q 2884 3475 3122 3366 
z
" transform="scale(0.015625)"/>
       <path id="DejaVuSans-6b" d="M 581 4863 
L 1159 4863 
L 1159 1991 
L 2875 3500 
L 3609 3500 
L 1753 1863 
L 3688 0 
L 2938 0 
L 1159 1709 
L 1159 0 
L 581 0 
L 581 4863 
z
" transform="scale(0.015625)"/>
       <path id="DejaVuSans-77" d="M 269 3500 
L 844 3500 
L 1563 769 
L 2278 3500 
L 2956 3500 
L 3675 769 
L 4391 3500 
L 4966 3500 
L 4050 0 
L 3372 0 
L 2619 2869 
L 1863 0 
L 1184 0 
L 269 3500 
z
" transform="scale(0.015625)"/>
       <path id="DejaVuSans-64" d="M 2906 2969 
L 2906 4863 
L 3481 4863 
L 3481 0 
L 2906 0 
L 2906 525 
Q 2725 213 2448 61 
Q 2172 -91 1784 -91 
Q 1150 -91 751 415 
Q 353 922 353 1747 
Q 353 2572 751 3078 
Q 1150 3584 1784 3584 
Q 2172 3584 2448 3432 
Q 2725 3281 2906 2969 
z
M 947 1747 
Q 947 1113 1208 752 
Q 1469 391 1925 391 
Q 2381 391 2643 752 
Q 2906 1113 2906 1747 
Q 2906 2381 2643 2742 
Q 2381 3103 1925 3103 
Q 1469 3103 1208 2742 
Q 947 2381 947 1747 
z
" transform="scale(0.015625)"/>
      </defs>
      <use xlink:href="#DejaVuSans-79"/>
      <use xlink:href="#DejaVuSans-20" x="59.179688"/>
      <use xlink:href="#DejaVuSans-3d" x="90.966797"/>
      <use xlink:href="#DejaVuSans-20" x="174.755859"/>
      <use xlink:href="#DejaVuSans-73" x="206.542969"/>
      <use xlink:href="#DejaVuSans-69" x="258.642578"/>
      <use xlink:href="#DejaVuSans-6e" x="286.425781"/>
      <use xlink:href="#DejaVuSans-28" x="349.804688"/>
      <use xlink:href="#DejaVuSans-78" x="388.818359"/>
      <use xlink:href="#DejaVuSans-29" x="447.998047"/>
      <use xlink:href="#DejaVuSans-20" x="487.011719"/>
      <use xlink:href="#DejaVuSans-61" x="518.798828"/>
      <use xlink:href="#DejaVuSans-66" x="580.078125"/>
      <use xlink:href="#DejaVuSans-74" x="613.533203"/>
      <use xlink:href="#DejaVuSans-65" x="652.742188"/>
      <use xlink:href="#DejaVuSans-72" x="714.265625"/>
      <use xlink:href="#DejaVuSans-20" x="755.378906"/>
      <use xlink:href="#DejaVuSans-63" x="787.166016"/>
      <use xlink:href="#DejaVuSans-6f" x="842.146484"/>
      <use xlink:href="#DejaVuSans-75" x="903.328125"/>
      <use xlink:href="#DejaVuSans-6e" x="966.707031"/>
      <use xlink:href="#DejaVuSans-74" x="1030.085938"/>
      <use xlink:href="#DejaVuSans-65" x="1069.294922"/>
      <use xlink:href="#DejaVuSans-72" x="1130.818359"/>
      <use xlink:href="#DejaVuSans-2d" x="1165.556641"/>
      <use xlink:href="#DejaVuSans-63" x="1201.640625"/>
      <use xlink:href="#DejaVuSans-6c" x="1256.621094"/>
      <use xlink:href="#DejaVuSans-6f" x="1284.404297"/>
      <use xlink:href="#DejaVuSans-63" x="1345.585938"/>
      <use xlink:href="#DejaVuSans-6b" x="1400.566406"/>
      <use xlink:href="#DejaVuSans-77" x="1458.476562"/>
      <use xlink:href="#DejaVuSans-69" x="1540.263672"/>
      <use xlink:href="#DejaVuSans-73" x="1568.046875"/>
      <use xlink:href="#DejaVuSans-65" x="1620.146484"/>
      <use xlink:href="#DejaVuSans-20" x="1681.669922"/>
      <use xlink:href="#DejaVuSans-31" x="1713.457031"/>
      <use xlink:href="#DejaVuSans-32" x="1777.080078"/>
      <use xlink:href="#DejaVuSans-2d" x="1840.703125"/>
      <use xlink:href="#DejaVuSans-64" x="1876.787109"/>
      <use xlink:href="#DejaVuSans-65" x="1940.263672"/>
      <use xlink:href="#DejaVuSans-67" x="2001.787109"/>
      <use xlink:href="#DejaVuSans-72" x="2065.263672"/>
      <use xlink:href="#DejaVuSans-65" x="2104.126953"/>
      <use xlink:href="#DejaVuSans-65" x="2165.650391"/>
      <use xlink:href="#DejaVuSans-20" x="2227.173828"/>
      <use xlink:href="#DejaVuSans-72" x="2258.960938"/>
      <use xlink:href="#DejaVuSans-6f" x="2297.824219"/>
      <use xlink:href="#DejaVuSans-74" x="2359.005859"/>
      <use xlink:href="#DejaVuSans-61" x="2398.214844"/>
      <use xlink:href="#DejaVuSans-74" x="2459.494141"/>
      <use xlink:href="#DejaVuSans-69" x="2498.703125"/>
      <use xlink:href="#DejaVuSans-6f" x="2526.486328"/>
      <use xlink:href="#DejaVuSans-6e" x="2587.667969"/>
     </g>
    </g>
    <g id="line2d_27">
     <path d="M 117 123.650937 
L 127 123.650937 
L 137 123.650937 
" style="fill: none; stroke-dasharray: 5.55,2.4; stroke-dashoffset: 0; stroke: #ffa500; stroke-width: 1.5"/>
    </g>
    <g id="text_24">
     <!-- Maximum after counter-clockwise 12-degree rotation -->
     <g transform="translate(145 127.150937) scale(0.1 -0.1)">
      <defs>
       <path id="DejaVuSans-4d" d="M 628 4666 
L 1569 4666 
L 2759 1491 
L 3956 4666 
L 4897 4666 
L 4897 0 
L 4281 0 
L 4281 4097 
L 3078 897 
L 2444 897 
L 1241 4097 
L 1241 0 
L 628 0 
L 628 4666 
z
" transform="scale(0.015625)"/>
      </defs>
      <use xlink:href="#DejaVuSans-4d"/>
      <use xlink:href="#DejaVuSans-61" x="86.279297"/>
      <use xlink:href="#DejaVuSans-78" x="147.558594"/>
      <use xlink:href="#DejaVuSans-69" x="206.738281"/>
      <use xlink:href="#DejaVuSans-6d" x="234.521484"/>
      <use xlink:href="#DejaVuSans-75" x="331.933594"/>
      <use xlink:href="#DejaVuSans-6d" x="395.3125"/>
      <use xlink:href="#DejaVuSans-20" x="492.724609"/>
      <use xlink:href="#DejaVuSans-61" x="524.511719"/>
      <use xlink:href="#DejaVuSans-66" x="585.791016"/>
      <use xlink:href="#DejaVuSans-74" x="619.246094"/>
      <use xlink:href="#DejaVuSans-65" x="658.455078"/>
      <use xlink:href="#DejaVuSans-72" x="719.978516"/>
      <use xlink:href="#DejaVuSans-20" x="761.091797"/>
      <use xlink:href="#DejaVuSans-63" x="792.878906"/>
      <use xlink:href="#DejaVuSans-6f" x="847.859375"/>
      <use xlink:href="#DejaVuSans-75" x="909.041016"/>
      <use xlink:href="#DejaVuSans-6e" x="972.419922"/>
      <use xlink:href="#DejaVuSans-74" x="1035.798828"/>
      <use xlink:href="#DejaVuSans-65" x="1075.007812"/>
      <use xlink:href="#DejaVuSans-72" x="1136.53125"/>
      <use xlink:href="#DejaVuSans-2d" x="1171.269531"/>
      <use xlink:href="#DejaVuSans-63" x="1207.353516"/>
      <use xlink:href="#DejaVuSans-6c" x="1262.333984"/>
      <use xlink:href="#DejaVuSans-6f" x="1290.117188"/>
      <use xlink:href="#DejaVuSans-63" x="1351.298828"/>
      <use xlink:href="#DejaVuSans-6b" x="1406.279297"/>
      <use xlink:href="#DejaVuSans-77" x="1464.189453"/>
      <use xlink:href="#DejaVuSans-69" x="1545.976562"/>
      <use xlink:href="#DejaVuSans-73" x="1573.759766"/>
      <use xlink:href="#DejaVuSans-65" x="1625.859375"/>
      <use xlink:href="#DejaVuSans-20" x="1687.382812"/>
      <use xlink:href="#DejaVuSans-31" x="1719.169922"/>
      <use xlink:href="#DejaVuSans-32" x="1782.792969"/>
      <use xlink:href="#DejaVuSans-2d" x="1846.416016"/>
      <use xlink:href="#DejaVuSans-64" x="1882.5"/>
      <use xlink:href="#DejaVuSans-65" x="1945.976562"/>
      <use xlink:href="#DejaVuSans-67" x="2007.5"/>
      <use xlink:href="#DejaVuSans-72" x="2070.976562"/>
      <use xlink:href="#DejaVuSans-65" x="2109.839844"/>
      <use xlink:href="#DejaVuSans-65" x="2171.363281"/>
      <use xlink:href="#DejaVuSans-20" x="2232.886719"/>
      <use xlink:href="#DejaVuSans-72" x="2264.673828"/>
      <use xlink:href="#DejaVuSans-6f" x="2303.537109"/>
      <use xlink:href="#DejaVuSans-74" x="2364.71875"/>
      <use xlink:href="#DejaVuSans-61" x="2403.927734"/>
      <use xlink:href="#DejaVuSans-74" x="2465.207031"/>
      <use xlink:href="#DejaVuSans-69" x="2504.416016"/>
      <use xlink:href="#DejaVuSans-6f" x="2532.199219"/>
      <use xlink:href="#DejaVuSans-6e" x="2593.380859"/>
     </g>
    </g>
    <g id="line2d_28">
     <path d="M 117 138.329062 
L 127 138.329062 
L 137 138.329062 
" style="fill: none; stroke-dasharray: 5.55,2.4; stroke-dashoffset: 0; stroke: #ffa500; stroke-width: 1.5"/>
    </g>
    <g id="text_25">
     <!-- Maximum after counter-clockwise 12-degree rotation -->
     <g transform="translate(145 141.829062) scale(0.1 -0.1)">
      <use xlink:href="#DejaVuSans-4d"/>
      <use xlink:href="#DejaVuSans-61" x="86.279297"/>
      <use xlink:href="#DejaVuSans-78" x="147.558594"/>
      <use xlink:href="#DejaVuSans-69" x="206.738281"/>
      <use xlink:href="#DejaVuSans-6d" x="234.521484"/>
      <use xlink:href="#DejaVuSans-75" x="331.933594"/>
      <use xlink:href="#DejaVuSans-6d" x="395.3125"/>
      <use xlink:href="#DejaVuSans-20" x="492.724609"/>
      <use xlink:href="#DejaVuSans-61" x="524.511719"/>
      <use xlink:href="#DejaVuSans-66" x="585.791016"/>
      <use xlink:href="#DejaVuSans-74" x="619.246094"/>
      <use xlink:href="#DejaVuSans-65" x="658.455078"/>
      <use xlink:href="#DejaVuSans-72" x="719.978516"/>
      <use xlink:href="#DejaVuSans-20" x="761.091797"/>
      <use xlink:href="#DejaVuSans-63" x="792.878906"/>
      <use xlink:href="#DejaVuSans-6f" x="847.859375"/>
      <use xlink:href="#DejaVuSans-75" x="909.041016"/>
      <use xlink:href="#DejaVuSans-6e" x="972.419922"/>
      <use xlink:href="#DejaVuSans-74" x="1035.798828"/>
      <use xlink:href="#DejaVuSans-65" x="1075.007812"/>
      <use xlink:href="#DejaVuSans-72" x="1136.53125"/>
      <use xlink:href="#DejaVuSans-2d" x="1171.269531"/>
      <use xlink:href="#DejaVuSans-63" x="1207.353516"/>
      <use xlink:href="#DejaVuSans-6c" x="1262.333984"/>
      <use xlink:href="#DejaVuSans-6f" x="1290.117188"/>
      <use xlink:href="#DejaVuSans-63" x="1351.298828"/>
      <use xlink:href="#DejaVuSans-6b" x="1406.279297"/>
      <use xlink:href="#DejaVuSans-77" x="1464.189453"/>
      <use xlink:href="#DejaVuSans-69" x="1545.976562"/>
      <use xlink:href="#DejaVuSans-73" x="1573.759766"/>
      <use xlink:href="#DejaVuSans-65" x="1625.859375"/>
      <use xlink:href="#DejaVuSans-20" x="1687.382812"/>
      <use xlink:href="#DejaVuSans-31" x="1719.169922"/>
      <use xlink:href="#DejaVuSans-32" x="1782.792969"/>
      <use xlink:href="#DejaVuSans-2d" x="1846.416016"/>
      <use xlink:href="#DejaVuSans-64" x="1882.5"/>
      <use xlink:href="#DejaVuSans-65" x="1945.976562"/>
      <use xlink:href="#DejaVuSans-67" x="2007.5"/>
      <use xlink:href="#DejaVuSans-72" x="2070.976562"/>
      <use xlink:href="#DejaVuSans-65" x="2109.839844"/>
      <use xlink:href="#DejaVuSans-65" x="2171.363281"/>
      <use xlink:href="#DejaVuSans-20" x="2232.886719"/>
      <use xlink:href="#DejaVuSans-72" x="2264.673828"/>
      <use xlink:href="#DejaVuSans-6f" x="2303.537109"/>
      <use xlink:href="#DejaVuSans-74" x="2364.71875"/>
      <use xlink:href="#DejaVuSans-61" x="2403.927734"/>
      <use xlink:href="#DejaVuSans-74" x="2465.207031"/>
      <use xlink:href="#DejaVuSans-69" x="2504.416016"/>
      <use xlink:href="#DejaVuSans-6f" x="2532.199219"/>
      <use xlink:href="#DejaVuSans-6e" x="2593.380859"/>
     </g>
    </g>
   </g>
  </g>
 </g>
 <defs>
  <clipPath id="p9c13825ebe">
   <rect x="108" y="51.84" width="669.6" height="332.64"/>
  </clipPath>
 </defs>
</svg>
